SplineFontDB: 3.2
FontName: Helvetica-Bold
FullName: Helvetica Bold
FamilyName: Helvetica
Weight: Bold
Copyright: 
Version: 0.90
ItalicAngle: 0
UnderlinePosition: -100
UnderlineWidth: 50
Ascent: 1638
Descent: 410
InvalidEm: 0
sfntRevision: 0x0000e666
LayerCount: 2
Layer: 0 1 "Back" 1
Layer: 1 1 "Fore" 0
XUID: [1021 33 724386662 4949003]
StyleMap: 0x0020
FSType: 4
OS2Version: 3
OS2_WeightWidthSlopeOnly: 0
OS2_UseTypoMetrics: 0
CreationTime: 1568931412
ModificationTime: 1569334844
PfmFamily: 33
TTFWeight: 700
TTFWidth: 5
LineGap: 57
VLineGap: 0
Panose: 2 11 8 0 4 0 0 2 0 4
OS2TypoAscent: 1470
OS2TypoAOffset: 0
OS2TypoDescent: -424
OS2TypoDOffset: 0
OS2TypoLinegap: 113
OS2WinAscent: 1968
OS2WinAOffset: 0
OS2WinDescent: 467
OS2WinDOffset: 0
HheadAscent: 1968
HheadAOffset: 0
HheadDescent: -467
HheadDOffset: 0
OS2SubXSize: 419
OS2SubYSize: 419
OS2SubXOff: 0
OS2SubYOff: 587
OS2SupXSize: 419
OS2SupYSize: 419
OS2SupXOff: 0
OS2SupYOff: 587
OS2StrikeYSize: 102
OS2StrikeYPos: 512
OS2CapHeight: 1470
OS2XHeight: 1090
OS2Vendor: 'NXTS'
OS2CodePages: 200001ff.fff70000
OS2UnicodeRanges: a0002aef.c0007ffb.00000008.00000000
Lookup: 258 0 0 "'kern' Horizontal Kerning lookup 0" { "'kern' Horizontal Kerning lookup 0 subtable"  } ['kern' ('DFLT' <'dflt' > ) ]
MarkAttachClasses: 1
DEI: 91125
TtTable: prep
PUSHW_1
 0
CALL
SVTCA[y-axis]
PUSHW_3
 1
 5
 2
CALL
SVTCA[x-axis]
PUSHW_3
 6
 9
 2
CALL
SVTCA[x-axis]
PUSHW_8
 6
 40
 33
 26
 18
 9
 0
 8
CALL
PUSHW_8
 7
 37
 33
 26
 18
 9
 0
 8
CALL
PUSHW_8
 8
 57
 47
 36
 24
 12
 0
 8
CALL
PUSHW_8
 9
 87
 71
 56
 41
 24
 0
 8
CALL
PUSHW_8
 10
 49
 41
 32
 23
 14
 0
 8
CALL
PUSHW_8
 11
 76
 62
 48
 35
 18
 0
 8
CALL
PUSHW_8
 12
 63
 52
 41
 30
 18
 0
 8
CALL
PUSHW_8
 13
 57
 47
 41
 30
 18
 0
 8
CALL
PUSHW_8
 14
 83
 68
 53
 41
 24
 0
 8
CALL
SVTCA[y-axis]
PUSHW_8
 1
 47
 40
 33
 26
 13
 0
 8
CALL
PUSHW_8
 2
 44
 35
 28
 21
 12
 0
 8
CALL
PUSHW_8
 3
 49
 41
 32
 23
 14
 0
 8
CALL
PUSHW_8
 4
 76
 62
 48
 35
 18
 0
 8
CALL
PUSHW_8
 5
 72
 59
 46
 30
 18

StartChar: .notdef
Encoding: 65536 -1 0
Width: 1048
GlyphClass: 2
Flags: W
LayerCount: 2
Fore
SplineSet
454 239 m 1,0,-1
 454 376 l 1,1,-1
 569 376 l 1,2,-1
 569 239 l 1,3,-1
 454 239 l 1,0,-1
460 479 m 1,4,-1
 457 514 l 1,5,6
 457 626 457 626 483.5 679.5 c 128,-1,7
 510 733 510 733 578 800 c 0,8,9
 643 865 643 865 661.5 898 c 128,-1,10
 680 931 680 931 680 970 c 0,11,12
 680 1044 680 1044 633.5 1094.5 c 128,-1,13
 587 1145 587 1145 525 1145 c 0,14,15
 460 1145 460 1145 414 1099.5 c 128,-1,16
 368 1054 368 1054 356 951 c 1,17,-1
 254 967 l 1,18,19
 268 1113 268 1113 343.5 1180.5 c 128,-1,20
 419 1248 419 1248 530 1248 c 0,21,22
 638 1248 638 1248 711.5 1173.5 c 128,-1,23
 785 1099 785 1099 785 979 c 0,24,25
 785 914 785 914 759 859.5 c 128,-1,26
 733 805 733 805 656 733 c 0,27,28
 580 665 580 665 567 626 c 128,-1,29
 554 587 554 587 554 479 c 1,30,-1
 460 479 l 1,4,-1
946 102 m 1,31,-1
 946 1367 l 1,32,-1
 102 1367 l 1,33,-1
 102 102 l 1,34,-1
 946 102 l 1,31,-1
1048 1470 m 1,35,-1
 1048 0 l 1,36,-1
 0 0 l 1,37,-1
 0 1470 l 1,38,-1
 1048 1470 l 1,35,-1
EndSplineSet
EndChar

StartChar: A
Encoding: 65 65 4
Width: 1447
GlyphClass: 2
Flags: W
LayerCount: 2
Fore
SplineSet
533 557 m 1,0,-1
 908 557 l 1,1,-1
 725 1139 l 1,2,-1
 721 1139 l 1,3,-1
 533 557 l 1,0,-1
349 0 m 1,4,-1
 25 0 l 1,5,-1
 549 1470 l 1,6,-1
 904 1470 l 1,7,-1
 1422 0 l 1,8,-1
 1088 0 l 1,9,-1
 994 303 l 1,10,-1
 451 303 l 1,11,-1
 349 0 l 1,4,-1
EndSplineSet
EndChar

StartChar: B
Encoding: 66 66 5
Width: 1444
GlyphClass: 2
Flags: W
LayerCount: 2
Fore
SplineSet
445 895 m 1,0,-1
 805 895 l 2,1,2
 910 895 910 895 966 938 c 128,-1,3
 1022 981 1022 981 1022 1059 c 256,4,5
 1022 1137 1022 1137 970.5 1177 c 128,-1,6
 919 1217 919 1217 797 1217 c 2,7,-1
 445 1217 l 1,8,-1
 445 895 l 1,0,-1
445 254 m 1,9,-1
 821 254 l 2,10,11
 934 254 934 254 995.5 305 c 128,-1,12
 1057 356 1057 356 1057 469 c 0,13,14
 1057 551 1057 551 998 599 c 128,-1,15
 939 647 939 647 836 647 c 2,16,-1
 445 647 l 1,17,-1
 445 254 l 1,9,-1
150 1470 m 1,18,-1
 864 1470 l 2,19,20
 1085 1470 1085 1470 1201 1363.5 c 128,-1,21
 1317 1257 1317 1257 1317 1094 c 0,22,23
 1317 869 1317 869 1137 793 c 1,24,25
 1364 706 1364 706 1364 436 c 0,26,27
 1364 348 1364 348 1330.5 269 c 128,-1,28
 1297 190 1297 190 1226.5 122.5 c 128,-1,29
 1156 55 1156 55 1058 27.5 c 128,-1,30
 960 0 960 0 772 0 c 2,31,-1
 150 0 l 1,32,-1
 150 1470 l 1,18,-1
EndSplineSet
EndChar

StartChar: C
Encoding: 67 67 6
Width: 1481
GlyphClass: 2
Flags: W
LayerCount: 2
Fore
SplineSet
1094 989 m 1,0,1
 1037 1243 1037 1243 768 1243 c 0,2,3
 601 1243 601 1243 502 1107 c 128,-1,4
 403 971 403 971 403 729 c 0,5,6
 403 502 403 502 499 364.5 c 128,-1,7
 595 227 595 227 768 227 c 0,8,9
 1032 227 1032 227 1094 504 c 1,10,-1
 1401 504 l 1,11,12
 1368 278 1368 278 1203 119.5 c 128,-1,13
 1038 -39 1038 -39 762 -39 c 0,14,15
 454 -39 454 -39 272 164.5 c 128,-1,16
 90 368 90 368 90 733 c 0,17,18
 90 1082 90 1082 271 1295.5 c 128,-1,19
 452 1509 452 1509 766 1509 c 0,20,21
 1041 1509 1041 1509 1210.5 1360.5 c 128,-1,22
 1380 1212 1380 1212 1401 989 c 1,23,-1
 1094 989 l 1,0,1
EndSplineSet
EndChar

StartChar: D
Encoding: 68 68 7
Width: 1487
GlyphClass: 2
Flags: W
LayerCount: 2
Fore
SplineSet
451 254 m 1,0,-1
 750 254 l 2,1,2
 908 254 908 254 996 386 c 128,-1,3
 1084 518 1084 518 1084 748 c 0,4,5
 1084 985 1084 985 1003 1101 c 128,-1,6
 922 1217 922 1217 756 1217 c 2,7,-1
 451 1217 l 1,8,-1
 451 254 l 1,0,-1
150 1470 m 1,9,-1
 799 1470 l 2,10,11
 1097 1470 1097 1470 1247 1276.5 c 128,-1,12
 1397 1083 1397 1083 1397 770 c 0,13,14
 1397 424 1397 424 1237.5 212 c 128,-1,15
 1078 0 1078 0 787 0 c 2,16,-1
 150 0 l 1,17,-1
 150 1470 l 1,9,-1
EndSplineSet
EndChar

StartChar: E
Encoding: 69 69 8
Width: 1356
GlyphClass: 2
Flags: W
LayerCount: 2
Fore
SplineSet
1231 1210 m 1,0,-1
 451 1210 l 1,1,-1
 451 901 l 1,2,-1
 1168 901 l 1,3,-1
 1168 641 l 1,4,-1
 451 641 l 1,5,-1
 451 260 l 1,6,-1
 1266 260 l 1,7,-1
 1266 0 l 1,8,-1
 150 0 l 1,9,-1
 150 1470 l 1,10,-1
 1231 1470 l 1,11,-1
 1231 1210 l 1,0,-1
EndSplineSet
EndChar

StartChar: F
Encoding: 70 70 9
Width: 1241
GlyphClass: 2
Flags: W
LayerCount: 2
Fore
SplineSet
457 0 m 1,0,-1
 150 0 l 1,1,-1
 150 1470 l 1,2,-1
 1196 1470 l 1,3,-1
 1196 1210 l 1,4,-1
 457 1210 l 1,5,-1
 457 879 l 1,6,-1
 1104 879 l 1,7,-1
 1104 618 l 1,8,-1
 457 618 l 1,9,-1
 457 0 l 1,0,-1
EndSplineSet
EndChar

StartChar: G
Encoding: 71 71 10
Width: 1600
GlyphClass: 2
Flags: W
LayerCount: 2
Fore
SplineSet
846 793 m 1,0,-1
 1460 793 l 1,1,-1
 1460 0 l 1,2,-1
 1255 0 l 1,3,-1
 1225 184 l 1,4,5
 1055 -39 1055 -39 760 -39 c 256,6,7
 465 -39 465 -39 277.5 171.5 c 128,-1,8
 90 382 90 382 90 731 c 256,9,10
 90 1080 90 1080 283 1294.5 c 128,-1,11
 476 1509 476 1509 809 1509 c 0,12,13
 1094 1509 1094 1509 1264 1365.5 c 128,-1,14
 1434 1222 1434 1222 1454 1014 c 1,15,-1
 1148 1014 l 1,16,17
 1120 1124 1120 1124 1031.5 1189.5 c 128,-1,18
 943 1255 943 1255 825 1255 c 0,19,20
 628 1255 628 1255 515.5 1114 c 128,-1,21
 403 973 403 973 403 728 c 0,22,23
 403 484 403 484 511.5 352.5 c 128,-1,24
 620 221 620 221 831 221 c 0,25,26
 950 221 950 221 1049 298 c 128,-1,27
 1148 375 1148 375 1188 545 c 1,28,-1
 846 545 l 1,29,-1
 846 793 l 1,0,-1
EndSplineSet
EndChar

StartChar: H
Encoding: 72 72 11
Width: 1488
GlyphClass: 2
Flags: W
LayerCount: 2
Fore
SplineSet
1338 1470 m 1,0,-1
 1338 0 l 1,1,-1
 1031 0 l 1,2,-1
 1031 659 l 1,3,-1
 457 659 l 1,4,-1
 457 0 l 1,5,-1
 150 0 l 1,6,-1
 150 1470 l 1,7,-1
 457 1470 l 1,8,-1
 457 913 l 1,9,-1
 1031 913 l 1,10,-1
 1031 1470 l 1,11,-1
 1338 1470 l 1,0,-1
EndSplineSet
EndChar

StartChar: I
Encoding: 73 73 12
Width: 607
GlyphClass: 2
Flags: W
LayerCount: 2
Fore
SplineSet
457 0 m 1,0,-1
 150 0 l 1,1,-1
 150 1470 l 1,2,-1
 457 1470 l 1,3,-1
 457 0 l 1,0,-1
EndSplineSet
EndChar

StartChar: J
Encoding: 74 74 13
Width: 1126
GlyphClass: 2
Flags: W
LayerCount: 2
Fore
SplineSet
986 426 m 2,0,1
 986 193 986 193 868 78 c 128,-1,2
 750 -37 750 -37 530 -37 c 0,3,4
 272 -37 272 -37 155.5 79 c 128,-1,5
 39 195 39 195 40 454 c 2,6,-1
 40 555 l 1,7,-1
 327 555 l 1,8,-1
 327 525 l 2,9,10
 327 332 327 332 368 271.5 c 128,-1,11
 409 211 409 211 507 211 c 0,12,13
 599 211 599 211 639 256 c 128,-1,14
 679 301 679 301 679 416 c 2,15,-1
 679 1470 l 1,16,-1
 986 1470 l 1,17,-1
 986 426 l 2,0,1
EndSplineSet
EndChar

StartChar: K
Encoding: 75 75 14
Width: 1461
GlyphClass: 2
Flags: W
LayerCount: 2
Fore
SplineSet
457 0 m 1,0,-1
 150 0 l 1,1,-1
 150 1470 l 1,2,-1
 457 1470 l 1,3,-1
 457 872 l 1,4,-1
 1019 1470 l 1,5,-1
 1416 1470 l 1,6,-1
 816 868 l 1,7,-1
 1451 0 l 1,8,-1
 1055 0 l 1,9,-1
 601 645 l 1,10,-1
 457 498 l 1,11,-1
 457 0 l 1,0,-1
EndSplineSet
EndChar

StartChar: L
Encoding: 76 76 15
Width: 1223
GlyphClass: 2
Flags: W
LayerCount: 2
Fore
SplineSet
457 266 m 1,0,-1
 1188 266 l 1,1,-1
 1188 0 l 1,2,-1
 150 0 l 1,3,-1
 150 1470 l 1,4,-1
 457 1470 l 1,5,-1
 457 266 l 1,0,-1
EndSplineSet
EndChar

StartChar: M
Encoding: 77 77 16
Width: 1726
GlyphClass: 2
Flags: W
LayerCount: 2
Fore
SplineSet
1576 0 m 1,0,-1
 1289 0 l 1,1,-1
 1289 993 l 1,2,-1
 1293 1229 l 1,3,-1
 1285 1229 l 1,4,-1
 1010 0 l 1,5,-1
 709 0 l 1,6,-1
 441 1229 l 1,7,-1
 434 1229 l 1,8,-1
 437 993 l 1,9,-1
 437 0 l 1,10,-1
 150 0 l 1,11,-1
 150 1470 l 1,12,-1
 599 1470 l 1,13,-1
 864 311 l 1,14,-1
 870 311 l 1,15,-1
 1131 1470 l 1,16,-1
 1576 1470 l 1,17,-1
 1576 0 l 1,0,-1
EndSplineSet
EndChar

StartChar: N
Encoding: 78 78 17
Width: 1498
GlyphClass: 2
Flags: W
LayerCount: 2
Fore
SplineSet
1062 1470 m 1,0,-1
 1348 1470 l 1,1,-1
 1348 0 l 1,2,-1
 1041 0 l 1,3,-1
 441 1049 l 1,4,-1
 437 1049 l 1,5,-1
 437 0 l 1,6,-1
 150 0 l 1,7,-1
 150 1470 l 1,8,-1
 474 1470 l 1,9,-1
 1058 446 l 1,10,-1
 1062 446 l 1,11,-1
 1062 1470 l 1,0,-1
EndSplineSet
EndChar

StartChar: O
Encoding: 79 79 18
Width: 1583
GlyphClass: 2
Flags: W
LayerCount: 2
Fore
SplineSet
392 735 m 0,0,1
 392 479 392 479 506 350 c 128,-1,2
 620 221 620 221 795 221 c 256,3,4
 970 221 970 221 1080.5 354 c 128,-1,5
 1191 487 1191 487 1191 735 c 256,6,7
 1191 983 1191 983 1081.5 1116 c 128,-1,8
 972 1249 972 1249 791 1249 c 256,9,10
 610 1249 610 1249 501 1116.5 c 128,-1,11
 392 984 392 984 392 735 c 0,0,1
85 735 m 0,12,13
 85 1113 85 1113 282 1311 c 128,-1,14
 479 1509 479 1509 789 1509 c 256,15,16
 1099 1509 1099 1509 1298.5 1313.5 c 128,-1,17
 1498 1118 1498 1118 1498 735 c 0,18,19
 1498 361 1498 361 1302 161 c 128,-1,20
 1106 -39 1106 -39 792 -39 c 0,21,22
 493 -39 493 -39 289 150.5 c 128,-1,23
 85 340 85 340 85 735 c 0,12,13
EndSplineSet
EndChar

StartChar: P
Encoding: 80 80 19
Width: 1353
GlyphClass: 2
Flags: W
LayerCount: 2
Fore
SplineSet
742 784 m 2,0,1
 859 784 859 784 915 838.5 c 128,-1,2
 971 893 971 893 971 1007 c 0,3,4
 971 1122 971 1122 907.5 1169.5 c 128,-1,5
 844 1217 844 1217 719 1217 c 2,6,-1
 457 1217 l 1,7,-1
 457 784 l 1,8,-1
 742 784 l 2,0,1
457 0 m 1,9,-1
 150 0 l 1,10,-1
 150 1470 l 1,11,-1
 821 1470 l 2,12,13
 1031 1470 1031 1470 1154.5 1344 c 128,-1,14
 1278 1218 1278 1218 1278 999 c 0,15,16
 1278 810 1278 810 1157 670 c 128,-1,17
 1036 530 1036 530 809 530 c 2,18,-1
 457 530 l 1,19,-1
 457 0 l 1,9,-1
EndSplineSet
EndChar

StartChar: Q
Encoding: 81 81 20
Width: 1583
GlyphClass: 2
Flags: W
LayerCount: 2
Fore
SplineSet
85 735 m 0,0,1
 85 1113 85 1113 282 1311 c 128,-1,2
 479 1509 479 1509 789 1509 c 256,3,4
 1099 1509 1099 1509 1298.5 1313.5 c 128,-1,5
 1498 1118 1498 1118 1498 735 c 0,6,7
 1498 404 1498 404 1344 209 c 1,8,-1
 1504 59 l 1,9,-1
 1343 -106 l 1,10,-1
 1170 57 l 1,11,12
 1010 -39 1010 -39 792 -39 c 0,13,14
 493 -39 493 -39 289 150.5 c 128,-1,15
 85 340 85 340 85 735 c 0,0,1
392 735 m 0,16,17
 392 479 392 479 506 350 c 128,-1,18
 620 221 620 221 795 221 c 0,19,20
 886 221 886 221 960 257 c 1,21,-1
 810 399 l 1,22,-1
 968 565 l 1,23,-1
 1123 418 l 1,24,25
 1191 541 1191 541 1191 735 c 0,26,27
 1191 983 1191 983 1081.5 1116 c 128,-1,28
 972 1249 972 1249 791 1249 c 256,29,30
 610 1249 610 1249 501 1116.5 c 128,-1,31
 392 984 392 984 392 735 c 0,16,17
EndSplineSet
EndChar

StartChar: R
Encoding: 82 82 21
Width: 1455
GlyphClass: 2
Flags: W
LayerCount: 2
Fore
SplineSet
811 823 m 2,0,1
 932 823 932 823 990.5 869 c 128,-1,2
 1049 915 1049 915 1049 1024 c 0,3,4
 1049 1114 1049 1114 994.5 1165.5 c 128,-1,5
 940 1217 940 1217 834 1217 c 2,6,-1
 451 1217 l 1,7,-1
 451 823 l 1,8,-1
 811 823 l 2,0,1
150 1470 m 1,9,-1
 893 1470 l 2,10,11
 1120 1470 1120 1470 1238 1348.5 c 128,-1,12
 1356 1227 1356 1227 1356 1055 c 0,13,14
 1356 799 1356 799 1129 705 c 1,15,16
 1234 665 1234 665 1274.5 589.5 c 128,-1,17
 1315 514 1315 514 1315 317 c 0,18,19
 1315 121 1315 121 1329.5 86.5 c 128,-1,20
 1344 52 1344 52 1380 39 c 1,21,-1
 1380 0 l 1,22,-1
 1041 0 l 1,23,24
 1008 99 1008 99 1008 286 c 0,25,26
 1008 443 1008 443 987 488.5 c 128,-1,27
 966 534 966 534 917.5 554.5 c 128,-1,28
 869 575 869 575 768 575 c 2,29,-1
 451 575 l 1,30,-1
 451 0 l 1,31,-1
 150 0 l 1,32,-1
 150 1470 l 1,9,-1
EndSplineSet
EndChar

StartChar: S
Encoding: 83 83 22
Width: 1373
GlyphClass: 2
Flags: W
LayerCount: 2
Fore
SplineSet
380 453 m 1,0,1
 380 344 380 344 460.5 279.5 c 128,-1,2
 541 215 541 215 691 215 c 256,3,4
 841 215 841 215 919.5 263.5 c 128,-1,5
 998 312 998 312 998 406 c 0,6,7
 998 462 998 462 957.5 503 c 128,-1,8
 917 544 917 544 765 580 c 2,9,-1
 515 638 l 2,10,11
 278 694 278 694 192.5 790.5 c 128,-1,12
 107 887 107 887 107 1057 c 0,13,14
 107 1256 107 1256 248.5 1382.5 c 128,-1,15
 390 1509 390 1509 673 1509 c 0,16,17
 954 1509 954 1509 1099.5 1367 c 128,-1,18
 1245 1225 1245 1225 1246 1034 c 1,19,-1
 951 1034 l 1,20,21
 941 1142 941 1142 867 1198.5 c 128,-1,22
 793 1255 793 1255 650 1255 c 0,23,24
 535 1255 535 1255 464.5 1207.5 c 128,-1,25
 394 1160 394 1160 394 1079 c 0,26,27
 394 1023 394 1023 425 986 c 128,-1,28
 456 949 456 949 525 932 c 2,29,-1
 918 835 l 2,30,31
 1131 783 1131 783 1212 685.5 c 128,-1,32
 1293 588 1293 588 1293 442 c 0,33,34
 1293 202 1293 202 1126.5 81.5 c 128,-1,35
 960 -39 960 -39 714 -39 c 0,36,37
 396 -39 396 -39 240.5 96.5 c 128,-1,38
 85 232 85 232 85 453 c 1,39,-1
 380 453 l 1,0,1
EndSplineSet
EndChar

StartChar: T
Encoding: 84 84 23
Width: 1256
GlyphClass: 2
Flags: W
LayerCount: 2
Fore
SplineSet
781 0 m 1,0,-1
 474 0 l 1,1,-1
 474 1210 l 1,2,-1
 30 1210 l 1,3,-1
 30 1470 l 1,4,-1
 1226 1470 l 1,5,-1
 1226 1210 l 1,6,-1
 781 1210 l 1,7,-1
 781 0 l 1,0,-1
EndSplineSet
EndChar

StartChar: U
Encoding: 85 85 24
Width: 1476
GlyphClass: 2
Flags: W
LayerCount: 2
Fore
SplineSet
1331 514 m 2,0,1
 1331 243 1331 243 1180.5 102 c 128,-1,2
 1030 -39 1030 -39 727 -39 c 0,3,4
 461 -39 461 -39 303 96.5 c 128,-1,5
 145 232 145 232 145 498 c 2,6,-1
 145 1470 l 1,7,-1
 459 1470 l 1,8,-1
 459 516 l 2,9,10
 459 372 459 372 530 296.5 c 128,-1,11
 601 221 601 221 734 221 c 0,12,13
 868 221 868 221 943 291 c 128,-1,14
 1018 361 1018 361 1018 502 c 2,15,-1
 1018 1470 l 1,16,-1
 1331 1470 l 1,17,-1
 1331 514 l 2,0,1
EndSplineSet
EndChar

StartChar: V
Encoding: 86 86 25
Width: 1340
GlyphClass: 2
Flags: W
LayerCount: 2
Fore
SplineSet
996 1470 m 1,0,-1
 1315 1470 l 1,1,-1
 815 0 l 1,2,-1
 523 0 l 1,3,-1
 27 1470 l 1,4,-1
 357 1470 l 1,5,-1
 672 356 l 1,6,-1
 676 356 l 1,7,-1
 996 1470 l 1,0,-1
EndSplineSet
EndChar

StartChar: W
Encoding: 87 87 26
Width: 1935
GlyphClass: 2
Flags: W
LayerCount: 2
Fore
SplineSet
32 1470 m 1,0,-1
 359 1470 l 1,1,-1
 568 532 l 1,2,-1
 593 385 l 1,3,-1
 597 385 l 1,4,-1
 621 532 l 1,5,-1
 802 1470 l 1,6,-1
 1127 1470 l 1,7,-1
 1321 537 l 1,8,-1
 1347 385 l 1,9,-1
 1351 385 l 1,10,-1
 1377 537 l 1,11,-1
 1590 1470 l 1,12,-1
 1902 1470 l 1,13,-1
 1488 0 l 1,14,-1
 1193 0 l 1,15,-1
 985 1032 l 1,16,-1
 966 1157 l 1,17,-1
 962 1157 l 1,18,-1
 943 1032 l 1,19,-1
 734 0 l 1,20,-1
 448 0 l 1,21,-1
 32 1470 l 1,0,-1
EndSplineSet
EndChar

StartChar: X
Encoding: 88 88 27
Width: 1343
GlyphClass: 2
Flags: W
LayerCount: 2
Fore
SplineSet
1324 0 m 1,0,-1
 950 0 l 1,1,-1
 671 502 l 1,2,-1
 374 0 l 1,3,-1
 16 0 l 1,4,-1
 491 752 l 1,5,-1
 42 1470 l 1,6,-1
 409 1470 l 1,7,-1
 671 995 l 1,8,-1
 939 1470 l 1,9,-1
 1294 1470 l 1,10,-1
 845 764 l 1,11,-1
 1324 0 l 1,0,-1
EndSplineSet
EndChar

StartChar: Y
Encoding: 89 89 28
Width: 1307
GlyphClass: 2
Flags: W
LayerCount: 2
Fore
SplineSet
807 0 m 1,0,-1
 500 0 l 1,1,-1
 500 555 l 1,2,-1
 -8 1470 l 1,3,-1
 354 1470 l 1,4,-1
 659 831 l 1,5,-1
 950 1470 l 1,6,-1
 1298 1470 l 1,7,-1
 807 551 l 1,8,-1
 807 0 l 1,0,-1
EndSplineSet
EndChar

StartChar: Z
Encoding: 90 90 29
Width: 1250
GlyphClass: 2
Flags: W
LayerCount: 2
Fore
SplineSet
1199 0 m 1,0,-1
 50 0 l 1,1,-1
 50 260 l 1,2,-1
 810 1210 l 1,3,-1
 71 1210 l 1,4,-1
 71 1470 l 1,5,-1
 1195 1470 l 1,6,-1
 1195 1229 l 1,7,-1
 425 260 l 1,8,-1
 1199 260 l 1,9,-1
 1199 0 l 1,0,-1
EndSplineSet
EndChar

StartChar: Aogonek
Encoding: 260 260 50
Width: 1447
GlyphClass: 2
Flags: W
LayerCount: 2
Fore
SplineSet
533 557 m 1,0,-1
 908 557 l 1,1,-1
 725 1139 l 1,2,-1
 721 1139 l 1,3,-1
 533 557 l 1,0,-1
349 0 m 1,4,-1
 25 0 l 1,5,-1
 549 1470 l 1,6,-1
 904 1470 l 1,7,-1
 1422 0 l 1,8,9
 1303 -6 1303 -6 1238.5 -53 c 128,-1,10
 1174 -100 1174 -100 1174 -165 c 0,11,12
 1174 -204 1174 -204 1199.5 -228.5 c 128,-1,13
 1225 -253 1225 -253 1270 -253 c 0,14,15
 1312 -253 1312 -253 1360 -231 c 1,16,-1
 1360 -413 l 1,17,18
 1295 -446 1295 -446 1214 -446 c 0,19,20
 1104 -446 1104 -446 1030 -389.5 c 128,-1,21
 956 -333 956 -333 956 -230 c 0,22,23
 956 -98 956 -98 1088 0 c 1,24,-1
 994 303 l 1,25,-1
 451 303 l 1,26,-1
 349 0 l 1,4,-1
EndSplineSet
EndChar

StartChar: AE
Encoding: 198 198 52
Width: 2064
GlyphClass: 2
Flags: W
LayerCount: 2
Fore
SplineSet
899 555 m 1,0,-1
 899 1210 l 1,1,-1
 765 1210 l 1,2,-1
 538 555 l 1,3,-1
 899 555 l 1,0,-1
1200 260 m 1,4,-1
 1974 260 l 1,5,-1
 1974 0 l 1,6,-1
 899 0 l 1,7,-1
 899 313 l 1,8,-1
 458 313 l 1,9,-1
 352 0 l 1,10,-1
 30 0 l 1,11,-1
 567 1470 l 1,12,-1
 1959 1470 l 1,13,-1
 1959 1210 l 1,14,-1
 1200 1210 l 1,15,-1
 1200 901 l 1,16,-1
 1884 901 l 1,17,-1
 1884 641 l 1,18,-1
 1200 641 l 1,19,-1
 1200 260 l 1,4,-1
EndSplineSet
EndChar

StartChar: Ccedilla
Encoding: 199 199 59
Width: 1481
GlyphClass: 2
Flags: W
LayerCount: 2
Fore
SplineSet
1094 989 m 1,0,1
 1037 1243 1037 1243 768 1243 c 0,2,3
 601 1243 601 1243 502 1107 c 128,-1,4
 403 971 403 971 403 729 c 0,5,6
 403 502 403 502 499 364.5 c 128,-1,7
 595 227 595 227 768 227 c 0,8,9
 1032 227 1032 227 1094 504 c 1,10,-1
 1401 504 l 1,11,12
 1368 278 1368 278 1207 123.5 c 128,-1,13
 1046 -31 1046 -31 788 -38 c 1,14,-1
 737 -113 l 1,15,16
 768 -104 768 -104 792 -104 c 0,17,18
 870 -104 870 -104 923.5 -146.5 c 128,-1,19
 977 -189 977 -189 977 -270 c 0,20,21
 977 -352 977 -352 906.5 -409.5 c 128,-1,22
 836 -467 836 -467 718 -467 c 0,23,24
 610 -467 610 -467 487 -416 c 1,25,-1
 532 -317 l 1,26,27
 636 -350 636 -350 684 -350 c 256,28,29
 732 -350 732 -350 759 -327 c 128,-1,30
 786 -304 786 -304 786 -269 c 0,31,32
 786 -235 786 -235 762.5 -216 c 128,-1,33
 739 -197 739 -197 706 -197 c 0,34,35
 671 -197 671 -197 625 -213 c 1,36,-1
 581 -172 l 1,37,-1
 671 -34 l 1,38,39
 413 -9 413 -9 251.5 187.5 c 128,-1,40
 90 384 90 384 90 733 c 256,41,42
 90 1082 90 1082 271 1295.5 c 128,-1,43
 452 1509 452 1509 766 1509 c 0,44,45
 1041 1509 1041 1509 1210.5 1360.5 c 128,-1,46
 1380 1212 1380 1212 1401 989 c 1,47,-1
 1094 989 l 1,0,1
EndSplineSet
EndChar

StartChar: Dcroat
Encoding: 272 272 62
Width: 1517
GlyphClass: 2
Flags: W
LayerCount: 2
Fore
SplineSet
180 1470 m 1,0,-1
 829 1470 l 2,1,2
 1127 1470 1127 1470 1277 1276.5 c 128,-1,3
 1427 1083 1427 1083 1427 770 c 0,4,5
 1427 424 1427 424 1267.5 212 c 128,-1,6
 1108 0 1108 0 817 0 c 2,7,-1
 180 0 l 1,8,-1
 180 647 l 1,9,-1
 14 647 l 1,10,-1
 14 901 l 1,11,-1
 180 901 l 1,12,-1
 180 1470 l 1,0,-1
481 254 m 1,13,-1
 780 254 l 2,14,15
 938 254 938 254 1026 386 c 128,-1,16
 1114 518 1114 518 1114 748 c 0,17,18
 1114 985 1114 985 1033 1101 c 128,-1,19
 952 1217 952 1217 786 1217 c 2,20,-1
 481 1217 l 1,21,-1
 481 901 l 1,22,-1
 821 901 l 1,23,-1
 821 647 l 1,24,-1
 481 647 l 1,25,-1
 481 254 l 1,13,-1
EndSplineSet
EndChar

StartChar: Eogonek
Encoding: 280 280 78
Width: 1356
GlyphClass: 2
Flags: W
LayerCount: 2
Fore
SplineSet
1231 1210 m 1,0,-1
 451 1210 l 1,1,-1
 451 901 l 1,2,-1
 1168 901 l 1,3,-1
 1168 641 l 1,4,-1
 451 641 l 1,5,-1
 451 260 l 1,6,-1
 1266 260 l 1,7,-1
 1266 0 l 1,8,9
 1080 -53 1080 -53 1080 -165 c 0,10,11
 1080 -204 1080 -204 1105.5 -228.5 c 128,-1,12
 1131 -253 1131 -253 1176 -253 c 0,13,14
 1222 -253 1222 -253 1266 -231 c 1,15,-1
 1266 -413 l 1,16,17
 1198 -446 1198 -446 1120 -446 c 0,18,19
 1007 -446 1007 -446 934.5 -388.5 c 128,-1,20
 862 -331 862 -331 862 -230 c 0,21,22
 862 -102 862 -102 996 0 c 1,23,-1
 996 3 l 1,24,-1
 851 0 l 1,25,-1
 150 0 l 1,26,-1
 150 1470 l 1,27,-1
 1231 1470 l 1,28,-1
 1231 1210 l 1,0,-1
EndSplineSet
EndChar

StartChar: Hbar
Encoding: 294 294 86
Width: 1525
GlyphClass: 2
Flags: W
LayerCount: 2
Fore
SplineSet
1046 853 m 1,0,-1
 1046 1051 l 1,1,-1
 472 1051 l 1,2,-1
 472 853 l 1,3,-1
 1046 853 l 1,0,-1
60 1275 m 1,4,-1
 165 1275 l 1,5,-1
 165 1470 l 1,6,-1
 472 1470 l 1,7,-1
 472 1275 l 1,8,-1
 1046 1275 l 1,9,-1
 1046 1470 l 1,10,-1
 1353 1470 l 1,11,-1
 1353 1275 l 1,12,-1
 1465 1275 l 1,13,-1
 1465 1051 l 1,14,-1
 1353 1051 l 1,15,-1
 1353 0 l 1,16,-1
 1046 0 l 1,17,-1
 1046 619 l 1,18,-1
 472 619 l 1,19,-1
 472 0 l 1,20,-1
 165 0 l 1,21,-1
 165 1051 l 1,22,-1
 60 1051 l 1,23,-1
 60 1275 l 1,4,-1
EndSplineSet
EndChar

StartChar: Iogonek
Encoding: 302 302 96
Width: 607
GlyphClass: 2
Flags: W
LayerCount: 2
Fore
SplineSet
457 0 m 1,0,1
 300 -56 300 -56 300 -165 c 0,2,3
 300 -204 300 -204 325.5 -228.5 c 128,-1,4
 351 -253 351 -253 396 -253 c 0,5,6
 437 -253 437 -253 486 -231 c 1,7,-1
 486 -413 l 1,8,9
 424 -446 424 -446 340 -446 c 0,10,11
 227 -446 227 -446 154.5 -388.5 c 128,-1,12
 82 -331 82 -331 82 -230 c 0,13,14
 82 -104 82 -104 208 0 c 1,15,-1
 208 2 l 1,16,-1
 150 0 l 1,17,-1
 150 1470 l 1,18,-1
 457 1470 l 1,19,-1
 457 0 l 1,0,1
EndSplineSet
EndChar

StartChar: Lslash
Encoding: 321 321 105
Width: 1237
GlyphClass: 2
Flags: W
LayerCount: 2
Fore
SplineSet
471 891 m 1,0,-1
 890 1045 l 1,1,-1
 890 797 l 1,2,-1
 471 643 l 1,3,-1
 471 266 l 1,4,-1
 1202 266 l 1,5,-1
 1202 0 l 1,6,-1
 164 0 l 1,7,-1
 164 531 l 1,8,-1
 20 478 l 1,9,-1
 20 726 l 1,10,-1
 164 779 l 1,11,-1
 164 1470 l 1,12,-1
 471 1470 l 1,13,-1
 471 891 l 1,0,-1
EndSplineSet
EndChar

StartChar: Ohorn
Encoding: 416 416 125
Width: 1744
GlyphClass: 2
Flags: W
LayerCount: 2
Fore
SplineSet
85 735 m 0,0,1
 85 1113 85 1113 282 1311 c 128,-1,2
 479 1509 479 1509 789 1509 c 0,3,4
 1173 1509 1173 1509 1382 1210 c 1,5,6
 1444 1217 1444 1217 1474 1257 c 128,-1,7
 1504 1297 1504 1297 1504 1379 c 0,8,9
 1504 1418 1504 1418 1496 1470 c 1,10,-1
 1702 1470 l 1,11,12
 1714 1416 1714 1416 1714 1356 c 0,13,14
 1714 1213 1714 1213 1641 1145.5 c 128,-1,15
 1568 1078 1568 1078 1449 1068 c 1,16,17
 1498 925 1498 925 1498 735 c 0,18,19
 1498 361 1498 361 1302 161 c 128,-1,20
 1106 -39 1106 -39 792 -39 c 0,21,22
 493 -39 493 -39 289 150.5 c 128,-1,23
 85 340 85 340 85 735 c 0,0,1
392 735 m 0,24,25
 392 479 392 479 506 350 c 128,-1,26
 620 221 620 221 795 221 c 256,27,28
 970 221 970 221 1080.5 354 c 128,-1,29
 1191 487 1191 487 1191 735 c 256,30,31
 1191 983 1191 983 1081.5 1116 c 128,-1,32
 972 1249 972 1249 791 1249 c 256,33,34
 610 1249 610 1249 501 1116.5 c 128,-1,35
 392 984 392 984 392 735 c 0,24,25
EndSplineSet
EndChar

StartChar: Oslash
Encoding: 216 216 131
Width: 1583
GlyphClass: 2
Flags: W
LayerCount: 2
Fore
SplineSet
85 735 m 0,0,1
 85 1113 85 1113 282 1311 c 128,-1,2
 479 1509 479 1509 789 1509 c 0,3,4
 1074 1509 1074 1509 1266 1343 c 1,5,-1
 1433 1526 l 1,6,-1
 1519 1448 l 1,7,-1
 1347 1259 l 1,8,9
 1498 1068 1498 1068 1498 735 c 0,10,11
 1498 361 1498 361 1302 161 c 128,-1,12
 1106 -39 1106 -39 792 -39 c 0,13,14
 512 -39 512 -39 315 127 c 1,15,-1
 149 -55 l 1,16,-1
 63 23 l 1,17,-1
 234 210 l 1,18,19
 85 398 85 398 85 735 c 0,0,1
795 221 m 0,20,21
 970 221 970 221 1080.5 354 c 128,-1,22
 1191 487 1191 487 1191 735 c 0,23,24
 1191 910 1191 910 1136 1028 c 1,25,-1
 512 343 l 1,26,27
 624 221 624 221 795 221 c 0,20,21
392 735 m 0,28,29
 392 559 392 559 446 443 c 1,30,-1
 1071 1128 l 1,31,32
 963 1249 963 1249 791 1249 c 0,33,34
 610 1249 610 1249 501 1116.5 c 128,-1,35
 392 984 392 984 392 735 c 0,28,29
EndSplineSet
EndChar

StartChar: OE
Encoding: 338 338 133
Width: 2072
GlyphClass: 2
Flags: W
LayerCount: 2
Fore
SplineSet
999 1067 m 2,0,1
 999 1155 999 1155 925.5 1205 c 128,-1,2
 852 1255 852 1255 745 1255 c 0,3,4
 573 1255 573 1255 482 1110.5 c 128,-1,5
 391 966 391 966 391 734 c 256,6,7
 391 502 391 502 484.5 358.5 c 128,-1,8
 578 215 578 215 733 215 c 0,9,10
 850 215 850 215 924.5 271.5 c 128,-1,11
 999 328 999 328 999 401 c 2,12,-1
 999 1067 l 2,0,1
1300 901 m 1,13,-1
 1935 901 l 1,14,-1
 1935 641 l 1,15,-1
 1300 641 l 1,16,-1
 1300 260 l 1,17,-1
 1982 260 l 1,18,-1
 1982 0 l 1,19,-1
 1020 0 l 1,20,-1
 1020 102 l 1,21,22
 903 -39 903 -39 694 -39 c 0,23,24
 420 -39 420 -39 255 167 c 128,-1,25
 90 373 90 373 90 735 c 0,26,27
 90 1079 90 1079 249 1294 c 128,-1,28
 408 1509 408 1509 702 1509 c 0,29,30
 898 1509 898 1509 1020 1384 c 1,31,-1
 1020 1470 l 1,32,-1
 1982 1470 l 1,33,-1
 1982 1210 l 1,34,-1
 1300 1210 l 1,35,-1
 1300 901 l 1,13,-1
EndSplineSet
EndChar

StartChar: Scedilla
Encoding: 350 350 140
Width: 1373
GlyphClass: 2
Flags: W
LayerCount: 2
Fore
SplineSet
380 453 m 1,0,1
 380 344 380 344 460.5 279.5 c 128,-1,2
 541 215 541 215 691 215 c 256,3,4
 841 215 841 215 919.5 263.5 c 128,-1,5
 998 312 998 312 998 406 c 0,6,7
 998 462 998 462 957.5 503 c 128,-1,8
 917 544 917 544 765 580 c 2,9,-1
 515 638 l 2,10,11
 278 694 278 694 192.5 790.5 c 128,-1,12
 107 887 107 887 107 1057 c 0,13,14
 107 1256 107 1256 248.5 1382.5 c 128,-1,15
 390 1509 390 1509 673 1509 c 0,16,17
 954 1509 954 1509 1099.5 1367 c 128,-1,18
 1245 1225 1245 1225 1246 1034 c 1,19,-1
 951 1034 l 1,20,21
 941 1142 941 1142 867 1198.5 c 128,-1,22
 793 1255 793 1255 650 1255 c 0,23,24
 535 1255 535 1255 464.5 1207.5 c 128,-1,25
 394 1160 394 1160 394 1079 c 0,26,27
 394 1023 394 1023 425 986 c 128,-1,28
 456 949 456 949 525 932 c 2,29,-1
 918 835 l 2,30,31
 1131 783 1131 783 1212 685.5 c 128,-1,32
 1293 588 1293 588 1293 442 c 0,33,34
 1293 202 1293 202 1127.5 81.5 c 128,-1,35
 962 -39 962 -39 706 -39 c 1,36,-1
 655 -113 l 1,37,38
 686 -104 686 -104 710 -104 c 0,39,40
 788 -104 788 -104 841.5 -146.5 c 128,-1,41
 895 -189 895 -189 895 -270 c 0,42,43
 895 -352 895 -352 824.5 -409.5 c 128,-1,44
 754 -467 754 -467 636 -467 c 0,45,46
 528 -467 528 -467 405 -416 c 1,47,-1
 450 -317 l 1,48,49
 554 -350 554 -350 602 -350 c 256,50,51
 650 -350 650 -350 677 -327 c 128,-1,52
 704 -304 704 -304 704 -269 c 0,53,54
 704 -235 704 -235 680.5 -216 c 128,-1,55
 657 -197 657 -197 624 -197 c 0,56,57
 589 -197 589 -197 543 -213 c 1,58,-1
 499 -172 l 1,59,-1
 590 -33 l 1,60,61
 357 -16 357 -16 221 114 c 128,-1,62
 85 244 85 244 85 453 c 1,63,-1
 380 453 l 1,0,1
EndSplineSet
EndChar

StartChar: Tbar
Encoding: 358 358 146
Width: 1256
GlyphClass: 2
Flags: W
LayerCount: 2
Fore
SplineSet
781 837 m 1,0,-1
 1025 837 l 1,1,-1
 1025 603 l 1,2,-1
 781 603 l 1,3,-1
 781 0 l 1,4,-1
 474 0 l 1,5,-1
 474 603 l 1,6,-1
 227 603 l 1,7,-1
 227 837 l 1,8,-1
 474 837 l 1,9,-1
 474 1210 l 1,10,-1
 30 1210 l 1,11,-1
 30 1470 l 1,12,-1
 1226 1470 l 1,13,-1
 1226 1210 l 1,14,-1
 781 1210 l 1,15,-1
 781 837 l 1,0,-1
EndSplineSet
EndChar

StartChar: Uogonek
Encoding: 370 370 157
Width: 1476
GlyphClass: 2
Flags: W
LayerCount: 2
Fore
SplineSet
1331 514 m 2,0,1
 1331 269 1331 269 1215 139 c 128,-1,2
 1099 9 1099 9 931 -19 c 1,3,4
 802 -69 802 -69 802 -165 c 0,5,6
 802 -204 802 -204 827.5 -228.5 c 128,-1,7
 853 -253 853 -253 898 -253 c 0,8,9
 940 -253 940 -253 988 -231 c 1,10,-1
 988 -413 l 1,11,12
 924 -446 924 -446 842 -446 c 0,13,14
 727 -446 727 -446 655.5 -388 c 128,-1,15
 584 -330 584 -330 584 -230 c 0,16,17
 584 -125 584 -125 675 -37 c 1,18,19
 441 -27 441 -27 293 106 c 128,-1,20
 145 239 145 239 145 498 c 2,21,-1
 145 1470 l 1,22,-1
 459 1470 l 1,23,-1
 459 516 l 2,24,25
 459 372 459 372 530 296.5 c 128,-1,26
 601 221 601 221 734 221 c 0,27,28
 868 221 868 221 943 291 c 128,-1,29
 1018 361 1018 361 1018 502 c 2,30,-1
 1018 1470 l 1,31,-1
 1331 1470 l 1,32,-1
 1331 514 l 2,0,1
EndSplineSet
EndChar

StartChar: Uhorn
Encoding: 431 431 159
Width: 1752
GlyphClass: 2
Flags: W
LayerCount: 2
Fore
SplineSet
1331 514 m 2,0,1
 1331 243 1331 243 1180.5 102 c 128,-1,2
 1030 -39 1030 -39 727 -39 c 0,3,4
 461 -39 461 -39 303 96.5 c 128,-1,5
 145 232 145 232 145 498 c 2,6,-1
 145 1470 l 1,7,-1
 459 1470 l 1,8,-1
 459 516 l 2,9,10
 459 372 459 372 530 296.5 c 128,-1,11
 601 221 601 221 734 221 c 0,12,13
 868 221 868 221 943 291 c 128,-1,14
 1018 361 1018 361 1018 502 c 2,15,-1
 1018 1470 l 1,16,-1
 1331 1470 l 1,17,-1
 1331 1208 l 1,18,-1
 1353 1208 l 2,19,20
 1435 1208 1435 1208 1473.5 1246.5 c 128,-1,21
 1512 1285 1512 1285 1512 1379 c 0,22,23
 1512 1417 1512 1417 1504 1470 c 1,24,-1
 1710 1470 l 1,25,26
 1722 1416 1722 1416 1722 1356 c 0,27,28
 1722 1210 1722 1210 1638.5 1137 c 128,-1,29
 1555 1064 1555 1064 1392 1064 c 0,30,31
 1361 1064 1361 1064 1331 1065 c 1,32,-1
 1331 514 l 2,0,1
EndSplineSet
EndChar

StartChar: Thorn
Encoding: 222 222 181
Width: 1348
GlyphClass: 2
Flags: W
LayerCount: 2
Fore
SplineSet
457 0 m 1,0,-1
 150 0 l 1,1,-1
 150 1470 l 1,2,-1
 457 1470 l 1,3,-1
 457 1270 l 1,4,-1
 821 1270 l 2,5,6
 1031 1270 1031 1270 1154.5 1144 c 128,-1,7
 1278 1018 1278 1018 1278 799 c 0,8,9
 1278 610 1278 610 1157 470 c 128,-1,10
 1036 330 1036 330 809 330 c 2,11,-1
 457 330 l 1,12,-1
 457 0 l 1,0,-1
742 584 m 2,13,14
 859 584 859 584 915 638.5 c 128,-1,15
 971 693 971 693 971 807 c 0,16,17
 971 922 971 922 907.5 969.5 c 128,-1,18
 844 1017 844 1017 719 1017 c 2,19,-1
 457 1017 l 1,20,-1
 457 584 l 1,21,-1
 742 584 l 2,13,14
EndSplineSet
EndChar

StartChar: Eng
Encoding: 330 330 182
Width: 1498
GlyphClass: 2
Flags: W
LayerCount: 2
Fore
SplineSet
1062 1470 m 1,0,-1
 1348 1470 l 1,1,-1
 1348 61 l 2,2,3
 1348 -186 1348 -186 1198.5 -315 c 128,-1,4
 1049 -444 1049 -444 805 -444 c 1,5,-1
 805 -197 l 1,6,7
 915 -197 915 -197 975 -152 c 128,-1,8
 1035 -107 1035 -107 1045 0 c 1,9,-1
 441 1049 l 1,10,-1
 437 1049 l 1,11,-1
 437 0 l 1,12,-1
 150 0 l 1,13,-1
 150 1470 l 1,14,-1
 474 1470 l 1,15,-1
 1058 446 l 1,16,-1
 1062 446 l 1,17,-1
 1062 1470 l 1,0,-1
EndSplineSet
EndChar

StartChar: a
Encoding: 97 97 183
Width: 1170
GlyphClass: 2
Flags: W
LayerCount: 2
Fore
SplineSet
765 528 m 1,0,1
 712 491 712 491 559 469 c 0,2,3
 431 451 431 451 391.5 411.5 c 128,-1,4
 352 372 352 372 352 307 c 256,5,6
 352 242 352 242 394 209 c 128,-1,7
 436 176 436 176 494 176 c 0,8,9
 604 176 604 176 684.5 237.5 c 128,-1,10
 765 299 765 299 765 391 c 2,11,-1
 765 528 l 1,0,1
1045 213 m 2,12,13
 1045 138 1045 138 1059 95.5 c 128,-1,14
 1073 53 1073 53 1108 43 c 1,15,-1
 1108 0 l 1,16,-1
 801 0 l 1,17,18
 781 55 781 55 773 129 c 1,19,20
 633 -29 633 -29 409 -29 c 0,21,22
 254 -29 254 -29 159.5 57 c 128,-1,23
 65 143 65 143 65 289 c 0,24,25
 65 429 65 429 147.5 520 c 128,-1,26
 230 611 230 611 394 635 c 2,27,-1
 662 674 l 2,28,29
 717 682 717 682 741 704.5 c 128,-1,30
 765 727 765 727 765 762 c 0,31,32
 765 825 765 825 719 857.5 c 128,-1,33
 673 890 673 890 578 890 c 0,34,35
 479 890 479 890 433.5 854 c 128,-1,36
 388 818 388 818 377 737 c 1,37,-1
 100 737 l 1,38,39
 121 936 121 936 235.5 1027 c 128,-1,40
 350 1118 350 1118 601 1118 c 0,41,42
 803 1118 803 1118 924 1037 c 128,-1,43
 1045 956 1045 956 1045 803 c 2,44,-1
 1045 213 l 2,12,13
EndSplineSet
EndChar

StartChar: b
Encoding: 98 98 184
Width: 1274
GlyphClass: 2
Flags: W
LayerCount: 2
Fore
SplineSet
904 537 m 0,0,1
 904 697 904 697 839.5 783.5 c 128,-1,2
 775 870 775 870 660 870 c 0,3,4
 536 870 536 870 475 780 c 128,-1,5
 414 690 414 690 414 520 c 0,6,7
 414 371 414 371 482.5 289 c 128,-1,8
 551 207 551 207 668 207 c 0,9,10
 772 207 772 207 838 295.5 c 128,-1,11
 904 384 904 384 904 537 c 0,0,1
427 948 m 1,12,-1
 431 948 l 1,13,14
 537 1118 537 1118 746 1118 c 0,15,16
 944 1118 944 1118 1071.5 967.5 c 128,-1,17
 1199 817 1199 817 1199 557 c 0,18,19
 1199 296 1199 296 1078 133.5 c 128,-1,20
 957 -29 957 -29 740 -29 c 0,21,22
 525 -29 525 -29 425 137 c 1,23,-1
 421 137 l 1,24,-1
 421 0 l 1,25,-1
 140 0 l 1,26,-1
 140 1470 l 1,27,-1
 427 1470 l 1,28,-1
 427 948 l 1,12,-1
EndSplineSet
EndChar

StartChar: c
Encoding: 99 99 185
Width: 1143
GlyphClass: 2
Flags: W
LayerCount: 2
Fore
SplineSet
1076 397 m 1,0,1
 1052 206 1052 206 923 88.5 c 128,-1,2
 794 -29 794 -29 578 -29 c 0,3,4
 334 -29 334 -29 204.5 116 c 128,-1,5
 75 261 75 261 75 514 c 0,6,7
 75 814 75 814 211.5 966 c 128,-1,8
 348 1118 348 1118 597 1118 c 0,9,10
 791 1118 791 1118 926 1012 c 128,-1,11
 1061 906 1061 906 1078 700 c 1,12,-1
 787 700 l 1,13,14
 771 791 771 791 723 834 c 128,-1,15
 675 877 675 877 597 877 c 0,16,17
 487 877 487 877 428.5 790 c 128,-1,18
 370 703 370 703 370 561 c 0,19,20
 370 356 370 356 429.5 281.5 c 128,-1,21
 489 207 489 207 591 207 c 0,22,23
 673 207 673 207 726 263.5 c 128,-1,24
 779 320 779 320 785 397 c 1,25,-1
 1076 397 l 1,0,1
EndSplineSet
EndChar

StartChar: d
Encoding: 100 100 186
Width: 1273
GlyphClass: 2
Flags: W
LayerCount: 2
Fore
SplineSet
370 537 m 0,0,1
 370 393 370 393 433 300 c 128,-1,2
 496 207 496 207 605 207 c 0,3,4
 726 207 726 207 792.5 292.5 c 128,-1,5
 859 378 859 378 859 520 c 0,6,7
 859 694 859 694 797 782 c 128,-1,8
 735 870 735 870 613 870 c 0,9,10
 498 870 498 870 434 782 c 128,-1,11
 370 694 370 694 370 537 c 0,0,1
1133 0 m 1,12,-1
 853 0 l 1,13,-1
 853 137 l 1,14,-1
 849 137 l 1,15,16
 750 -29 750 -29 533 -29 c 0,17,18
 317 -29 317 -29 196 132 c 128,-1,19
 75 293 75 293 75 557 c 0,20,21
 75 816 75 816 202 967 c 128,-1,22
 329 1118 329 1118 527 1118 c 0,23,24
 737 1118 737 1118 843 948 c 1,25,-1
 847 948 l 1,26,-1
 847 1470 l 1,27,-1
 1133 1470 l 1,28,-1
 1133 0 l 1,12,-1
EndSplineSet
EndChar

StartChar: e
Encoding: 101 101 187
Width: 1174
GlyphClass: 2
Flags: W
LayerCount: 2
Fore
SplineSet
819 653 m 1,0,1
 810 757 810 757 751 820 c 128,-1,2
 692 883 692 883 598 883 c 0,3,4
 394 883 394 883 365 653 c 1,5,-1
 819 653 l 1,0,1
1102 319 m 1,6,7
 1052 150 1052 150 923 60.5 c 128,-1,8
 794 -29 794 -29 623 -29 c 0,9,10
 354 -29 354 -29 212 119.5 c 128,-1,11
 70 268 70 268 70 531 c 0,12,13
 70 795 70 795 203.5 956.5 c 128,-1,14
 337 1118 337 1118 602 1118 c 0,15,16
 840 1118 840 1118 977 967 c 128,-1,17
 1114 816 1114 816 1114 518 c 2,18,-1
 1114 467 l 1,19,-1
 357 467 l 1,20,21
 367 334 367 334 435 267.5 c 128,-1,22
 503 201 503 201 620 201 c 0,23,24
 690 201 690 201 741 233.5 c 128,-1,25
 792 266 792 266 807 319 c 1,26,-1
 1102 319 l 1,6,7
EndSplineSet
EndChar

StartChar: f
Encoding: 102 102 188
Width: 676
GlyphClass: 2
Flags: W
LayerCount: 2
Fore
SplineSet
455 1090 m 1,0,-1
 641 1090 l 1,1,-1
 641 885 l 1,2,-1
 455 885 l 1,3,-1
 455 0 l 1,4,-1
 168 0 l 1,5,-1
 168 885 l 1,6,-1
 15 885 l 1,7,-1
 15 1090 l 1,8,-1
 168 1090 l 1,9,-1
 168 1178 l 2,10,11
 168 1338 168 1338 251 1414 c 128,-1,12
 334 1490 334 1490 517 1490 c 0,13,14
 566 1490 566 1490 635 1485 c 1,15,-1
 635 1251 l 1,16,17
 604 1254 604 1254 570 1254 c 0,18,19
 529 1254 529 1254 506 1248.5 c 128,-1,20
 483 1243 483 1243 472 1229.5 c 128,-1,21
 461 1216 461 1216 458 1192.5 c 128,-1,22
 455 1169 455 1169 455 1132 c 2,23,-1
 455 1090 l 1,0,-1
EndSplineSet
EndChar

StartChar: g
Encoding: 103 103 189
Width: 1261
GlyphClass: 2
Flags: W
LayerCount: 2
Fore
SplineSet
370 539 m 0,0,1
 370 402 370 402 430 319 c 128,-1,2
 490 236 490 236 597 236 c 0,3,4
 715 236 715 236 778 316.5 c 128,-1,5
 841 397 841 397 841 551 c 0,6,7
 841 694 841 694 773.5 782 c 128,-1,8
 706 870 706 870 595 870 c 0,9,10
 496 870 496 870 433 787 c 128,-1,11
 370 704 370 704 370 539 c 0,0,1
1126 1090 m 1,12,-1
 1126 27 l 2,13,14
 1126 -220 1126 -220 990 -332 c 128,-1,15
 854 -444 854 -444 575 -444 c 0,16,17
 374 -444 374 -444 240.5 -357 c 128,-1,18
 107 -270 107 -270 99 -117 c 1,19,-1
 411 -117 l 1,20,21
 422 -227 422 -227 613 -227 c 0,22,23
 839 -227 839 -227 839 9 c 2,24,-1
 839 154 l 1,25,-1
 835 158 l 1,26,27
 752 -6 752 -6 544 -6 c 0,28,29
 331 -6 331 -6 203 141.5 c 128,-1,30
 75 289 75 289 75 557 c 0,31,32
 75 820 75 820 202.5 969 c 128,-1,33
 330 1118 330 1118 528 1118 c 0,34,35
 754 1118 754 1118 847 928 c 1,36,-1
 851 928 l 1,37,-1
 851 1090 l 1,38,-1
 1126 1090 l 1,12,-1
EndSplineSet
EndChar

StartChar: h
Encoding: 104 104 190
Width: 1250
GlyphClass: 2
Flags: W
LayerCount: 2
Fore
SplineSet
1125 0 m 1,0,-1
 838 0 l 1,1,-1
 838 677 l 2,2,3
 838 777 838 777 792.5 827 c 128,-1,4
 747 877 747 877 652 877 c 0,5,6
 545 877 545 877 486 806 c 128,-1,7
 427 735 427 735 427 625 c 2,8,-1
 427 0 l 1,9,-1
 140 0 l 1,10,-1
 140 1470 l 1,11,-1
 427 1470 l 1,12,-1
 427 951 l 1,13,-1
 431 951 l 1,14,15
 529 1118 529 1118 750 1118 c 0,16,17
 920 1118 920 1118 1022.5 1018.5 c 128,-1,18
 1125 919 1125 919 1125 754 c 2,19,-1
 1125 0 l 1,0,-1
EndSplineSet
EndChar

StartChar: i
Encoding: 105 105 191
Width: 567
GlyphClass: 2
Flags: W
LayerCount: 2
Fore
SplineSet
427 1219 m 1,0,-1
 140 1219 l 1,1,-1
 140 1485 l 1,2,-1
 427 1485 l 1,3,-1
 427 1219 l 1,0,-1
427 1090 m 1,4,-1
 427 0 l 1,5,-1
 140 0 l 1,6,-1
 140 1090 l 1,7,-1
 427 1090 l 1,4,-1
EndSplineSet
EndChar

StartChar: j
Encoding: 106 106 192
Width: 567
GlyphClass: 2
Flags: W
LayerCount: 2
Fore
SplineSet
427 1219 m 1,0,-1
 140 1219 l 1,1,-1
 140 1485 l 1,2,-1
 427 1485 l 1,3,-1
 427 1219 l 1,0,-1
427 -115 m 2,4,5
 427 -285 427 -285 358 -361.5 c 128,-1,6
 289 -438 289 -438 97 -438 c 2,7,-1
 5 -438 l 1,8,-1
 5 -209 l 1,9,-1
 62 -209 l 2,10,11
 105 -209 105 -209 122.5 -183 c 128,-1,12
 140 -157 140 -157 140 -109 c 2,13,-1
 140 1090 l 1,14,-1
 427 1090 l 1,15,-1
 427 -115 l 2,4,5
EndSplineSet
EndChar

StartChar: k
Encoding: 107 107 193
Width: 1145
GlyphClass: 2
Flags: W
LayerCount: 2
Fore
SplineSet
427 0 m 1,0,-1
 140 0 l 1,1,-1
 140 1470 l 1,2,-1
 427 1470 l 1,3,-1
 427 676 l 1,4,-1
 787 1090 l 1,5,-1
 1140 1090 l 1,6,-1
 755 668 l 1,7,-1
 1150 0 l 1,8,-1
 806 0 l 1,9,-1
 546 467 l 1,10,-1
 427 344 l 1,11,-1
 427 0 l 1,0,-1
EndSplineSet
EndChar

StartChar: l
Encoding: 108 108 194
Width: 567
GlyphClass: 2
Flags: W
LayerCount: 2
Fore
SplineSet
427 0 m 1,0,-1
 140 0 l 1,1,-1
 140 1470 l 1,2,-1
 427 1470 l 1,3,-1
 427 0 l 1,0,-1
EndSplineSet
EndChar

StartChar: m
Encoding: 109 109 195
Width: 1826
GlyphClass: 2
Flags: W
LayerCount: 2
Fore
SplineSet
1701 0 m 1,0,-1
 1414 0 l 1,1,-1
 1414 667 l 2,2,3
 1414 762 1414 762 1376 819.5 c 128,-1,4
 1338 877 1338 877 1253 877 c 256,5,6
 1168 877 1168 877 1116 824 c 128,-1,7
 1064 771 1064 771 1064 664 c 2,8,-1
 1064 0 l 1,9,-1
 777 0 l 1,10,-1
 777 680 l 2,11,12
 777 782 777 782 736 829.5 c 128,-1,13
 695 877 695 877 605 877 c 256,14,15
 515 877 515 877 471 823.5 c 128,-1,16
 427 770 427 770 427 664 c 2,17,-1
 427 0 l 1,18,-1
 140 0 l 1,19,-1
 140 1090 l 1,20,-1
 415 1090 l 1,21,-1
 415 930 l 1,22,-1
 419 930 l 1,23,24
 515 1118 515 1118 735 1118 c 0,25,26
 935 1118 935 1118 1031 944 c 1,27,28
 1140 1118 1140 1118 1322 1118 c 0,29,30
 1490 1118 1490 1118 1595.5 1022.5 c 128,-1,31
 1701 927 1701 927 1701 754 c 2,32,-1
 1701 0 l 1,0,-1
EndSplineSet
EndChar

StartChar: n
Encoding: 110 110 196
Width: 1250
GlyphClass: 2
Flags: W
LayerCount: 2
Fore
SplineSet
1125 0 m 1,0,-1
 838 0 l 1,1,-1
 838 677 l 2,2,3
 838 772 838 772 795 824.5 c 128,-1,4
 752 877 752 877 652 877 c 0,5,6
 549 877 549 877 488 809.5 c 128,-1,7
 427 742 427 742 427 625 c 2,8,-1
 427 0 l 1,9,-1
 140 0 l 1,10,-1
 140 1090 l 1,11,-1
 415 1090 l 1,12,-1
 415 930 l 1,13,-1
 419 930 l 1,14,15
 522 1118 522 1118 744 1118 c 0,16,17
 911 1118 911 1118 1018 1022.5 c 128,-1,18
 1125 927 1125 927 1125 754 c 2,19,-1
 1125 0 l 1,0,-1
EndSplineSet
EndChar

StartChar: o
Encoding: 111 111 197
Width: 1258
GlyphClass: 2
Flags: W
LayerCount: 2
Fore
SplineSet
888 545 m 0,0,1
 888 701 888 701 823.5 789 c 128,-1,2
 759 877 759 877 629 877 c 0,3,4
 508 877 508 877 439 794.5 c 128,-1,5
 370 712 370 712 370 545 c 0,6,7
 370 381 370 381 437 297 c 128,-1,8
 504 213 504 213 629 213 c 0,9,10
 758 213 758 213 823 300 c 128,-1,11
 888 387 888 387 888 545 c 0,0,1
1183 545 m 0,12,13
 1183 278 1183 278 1029.5 124.5 c 128,-1,14
 876 -29 876 -29 629 -29 c 0,15,16
 386 -29 386 -29 230.5 123.5 c 128,-1,17
 75 276 75 276 75 545 c 0,18,19
 75 816 75 816 230.5 967 c 128,-1,20
 386 1118 386 1118 629 1118 c 0,21,22
 878 1118 878 1118 1030.5 963.5 c 128,-1,23
 1183 809 1183 809 1183 545 c 0,12,13
EndSplineSet
EndChar

StartChar: p
Encoding: 112 112 198
Width: 1272
GlyphClass: 2
Flags: W
LayerCount: 2
Fore
SplineSet
414 520 m 0,0,1
 414 376 414 376 480 291.5 c 128,-1,2
 546 207 546 207 666 207 c 0,3,4
 776 207 776 207 839 301.5 c 128,-1,5
 902 396 902 396 902 537 c 0,6,7
 902 699 902 699 837.5 784.5 c 128,-1,8
 773 870 773 870 658 870 c 0,9,10
 535 870 535 870 474.5 780.5 c 128,-1,11
 414 691 414 691 414 520 c 0,0,1
414 932 m 1,12,-1
 419 932 l 1,13,14
 524 1118 524 1118 744 1118 c 0,15,16
 940 1118 940 1118 1068.5 968.5 c 128,-1,17
 1197 819 1197 819 1197 557 c 0,18,19
 1197 300 1197 300 1077.5 135.5 c 128,-1,20
 958 -29 958 -29 738 -29 c 0,21,22
 523 -29 523 -29 431 139 c 1,23,-1
 427 139 l 1,24,-1
 427 -424 l 1,25,-1
 140 -424 l 1,26,-1
 140 1090 l 1,27,-1
 414 1090 l 1,28,-1
 414 932 l 1,12,-1
EndSplineSet
EndChar

StartChar: q
Encoding: 113 113 199
Width: 1275
GlyphClass: 2
Flags: W
LayerCount: 2
Fore
SplineSet
370 524 m 0,0,1
 370 370 370 370 432.5 291.5 c 128,-1,2
 495 213 495 213 615 213 c 0,3,4
 727 213 727 213 791 300 c 128,-1,5
 855 387 855 387 855 539 c 0,6,7
 855 699 855 699 785.5 784.5 c 128,-1,8
 716 870 716 870 609 870 c 0,9,10
 496 870 496 870 433 782 c 128,-1,11
 370 694 370 694 370 524 c 0,0,1
1135 1090 m 1,12,-1
 1135 -424 l 1,13,-1
 849 -424 l 1,14,-1
 849 135 l 1,15,-1
 845 135 l 1,16,17
 757 -29 757 -29 535 -29 c 0,18,19
 317 -29 317 -29 196 133.5 c 128,-1,20
 75 296 75 296 75 522 c 0,21,22
 75 788 75 788 201 953 c 128,-1,23
 327 1118 327 1118 553 1118 c 0,24,25
 756 1118 756 1118 857 928 c 1,26,-1
 861 928 l 1,27,-1
 861 1090 l 1,28,-1
 1135 1090 l 1,12,-1
EndSplineSet
EndChar

StartChar: r
Encoding: 114 114 200
Width: 808
GlyphClass: 2
Flags: W
LayerCount: 2
Fore
SplineSet
140 1090 m 1,0,-1
 415 1090 l 1,1,-1
 415 901 l 1,2,-1
 419 901 l 1,3,4
 469 1008 469 1008 540 1063 c 128,-1,5
 611 1118 611 1118 718 1118 c 0,6,7
 746 1118 746 1118 773 1114 c 1,8,-1
 773 823 l 1,9,10
 753 827 753 827 691 827 c 0,11,12
 557 827 557 827 492 762.5 c 128,-1,13
 427 698 427 698 427 567 c 2,14,-1
 427 0 l 1,15,-1
 140 0 l 1,16,-1
 140 1090 l 1,0,-1
EndSplineSet
EndChar

StartChar: s
Encoding: 115 115 201
Width: 1138
GlyphClass: 2
Flags: W
LayerCount: 2
Fore
SplineSet
749 756 m 1,0,1
 741 827 741 827 697 866 c 128,-1,2
 653 905 653 905 557 905 c 0,3,4
 468 905 468 905 426 876 c 128,-1,5
 384 847 384 847 384 803 c 0,6,7
 384 760 384 760 419.5 736.5 c 128,-1,8
 455 713 455 713 693 657 c 0,9,10
 936 600 936 600 1002 524.5 c 128,-1,11
 1068 449 1068 449 1068 336 c 0,12,13
 1068 155 1068 155 940.5 59 c 128,-1,14
 813 -37 813 -37 560 -37 c 0,15,16
 337 -37 337 -37 210.5 55 c 128,-1,17
 84 147 84 147 65 344 c 1,18,-1
 359 344 l 1,19,20
 359 259 359 259 413.5 217.5 c 128,-1,21
 468 176 468 176 579 176 c 0,22,23
 673 176 673 176 723 204.5 c 128,-1,24
 773 233 773 233 773 280 c 0,25,26
 773 328 773 328 736.5 354.5 c 128,-1,27
 700 381 700 381 489 426 c 0,28,29
 254 476 254 476 177.5 556.5 c 128,-1,30
 101 637 101 637 101 750 c 0,31,32
 101 912 101 912 217 1015 c 128,-1,33
 333 1118 333 1118 560 1118 c 0,34,35
 782 1118 782 1118 900 1026 c 128,-1,36
 1018 934 1018 934 1031 756 c 1,37,-1
 749 756 l 1,0,1
EndSplineSet
EndChar

StartChar: t
Encoding: 116 116 202
Width: 688
GlyphClass: 2
Flags: W
LayerCount: 2
Fore
SplineSet
460 1090 m 1,0,-1
 638 1090 l 1,1,-1
 638 885 l 1,2,-1
 460 885 l 1,3,-1
 460 274 l 2,4,5
 460 231 460 231 483.5 218 c 128,-1,6
 507 205 507 205 556 205 c 256,7,8
 605 205 605 205 638 209 c 1,9,-1
 638 -4 l 1,10,11
 575 -14 575 -14 483 -14 c 0,12,13
 313 -14 313 -14 243 37.5 c 128,-1,14
 173 89 173 89 173 223 c 2,15,-1
 173 885 l 1,16,-1
 25 885 l 1,17,-1
 25 1090 l 1,18,-1
 173 1090 l 1,19,-1
 173 1384 l 1,20,-1
 460 1384 l 1,21,-1
 460 1090 l 1,0,-1
EndSplineSet
EndChar

StartChar: u
Encoding: 117 117 203
Width: 1256
GlyphClass: 2
Flags: W
LayerCount: 2
Fore
SplineSet
1116 0 m 1,0,-1
 842 0 l 1,1,-1
 842 154 l 1,2,-1
 838 154 l 1,3,4
 729 -29 729 -29 506 -29 c 0,5,6
 333 -29 333 -29 234 73 c 128,-1,7
 135 175 135 175 135 373 c 2,8,-1
 135 1090 l 1,9,-1
 422 1090 l 1,10,-1
 422 414 l 2,11,12
 422 310 422 310 470 261.5 c 128,-1,13
 518 213 518 213 608 213 c 0,14,15
 705 213 705 213 767 277.5 c 128,-1,16
 829 342 829 342 829 461 c 2,17,-1
 829 1090 l 1,18,-1
 1116 1090 l 1,19,-1
 1116 0 l 1,0,-1
EndSplineSet
EndChar

StartChar: v
Encoding: 118 118 204
Width: 1132
GlyphClass: 2
Flags: W
LayerCount: 2
Fore
SplineSet
717 0 m 1,0,-1
 416 0 l 1,1,-1
 25 1090 l 1,2,-1
 344 1090 l 1,3,-1
 569 287 l 1,4,-1
 573 287 l 1,5,-1
 805 1090 l 1,6,-1
 1110 1090 l 1,7,-1
 717 0 l 1,0,-1
EndSplineSet
EndChar

StartChar: w
Encoding: 119 119 205
Width: 1609
GlyphClass: 2
Flags: W
LayerCount: 2
Fore
SplineSet
1271 0 m 1,0,-1
 976 0 l 1,1,-1
 806 795 l 1,2,-1
 802 795 l 1,3,-1
 632 0 l 1,4,-1
 337 0 l 1,5,-1
 29 1090 l 1,6,-1
 335 1090 l 1,7,-1
 505 307 l 1,8,-1
 509 307 l 1,9,-1
 662 1090 l 1,10,-1
 951 1090 l 1,11,-1
 1115 307 l 1,12,-1
 1119 307 l 1,13,-1
 1289 1090 l 1,14,-1
 1584 1090 l 1,15,-1
 1271 0 l 1,0,-1
EndSplineSet
EndChar

StartChar: x
Encoding: 120 120 206
Width: 1135
GlyphClass: 2
Flags: W
LayerCount: 2
Fore
SplineSet
1107 0 m 1,0,-1
 753 0 l 1,1,-1
 564 328 l 1,2,-1
 376 0 l 1,3,-1
 30 0 l 1,4,-1
 400 555 l 1,5,-1
 44 1090 l 1,6,-1
 392 1090 l 1,7,-1
 577 772 l 1,8,-1
 757 1090 l 1,9,-1
 1095 1090 l 1,10,-1
 736 555 l 1,11,-1
 1107 0 l 1,0,-1
EndSplineSet
EndChar

StartChar: y
Encoding: 121 121 207
Width: 1143
GlyphClass: 2
Flags: W
LayerCount: 2
Fore
SplineSet
737 18 m 2,0,1
 656 -214 656 -214 615 -291 c 128,-1,2
 574 -368 574 -368 515 -403.5 c 128,-1,3
 456 -439 456 -439 316 -439 c 0,4,5
 244 -439 244 -439 186 -432 c 1,6,-1
 186 -205 l 1,7,8
 217 -209 217 -209 264 -209 c 0,9,10
 326 -209 326 -209 365.5 -183 c 128,-1,11
 405 -157 405 -157 432 -47 c 1,12,-1
 28 1090 l 1,13,-1
 348 1090 l 1,14,-1
 581 287 l 1,15,-1
 586 287 l 1,16,-1
 809 1090 l 1,17,-1
 1112 1090 l 1,18,-1
 737 18 l 2,0,1
EndSplineSet
EndChar

StartChar: z
Encoding: 122 122 208
Width: 1037
GlyphClass: 2
Flags: W
LayerCount: 2
Fore
SplineSet
416 236 m 1,0,-1
 987 236 l 1,1,-1
 987 0 l 1,2,-1
 45 0 l 1,3,-1
 45 223 l 1,4,-1
 604 860 l 1,5,-1
 84 860 l 1,6,-1
 84 1090 l 1,7,-1
 967 1090 l 1,8,-1
 967 854 l 1,9,-1
 416 236 l 1,0,-1
EndSplineSet
EndChar

StartChar: aogonek
Encoding: 261 261 229
Width: 1170
GlyphClass: 2
Flags: W
LayerCount: 2
Fore
SplineSet
1045 213 m 2,0,1
 1045 138 1045 138 1059 95.5 c 128,-1,2
 1073 53 1073 53 1108 43 c 1,3,-1
 1108 4 l 1,4,5
 885 -40 885 -40 885 -165 c 0,6,7
 885 -204 885 -204 910.5 -228.5 c 128,-1,8
 936 -253 936 -253 981 -253 c 0,9,10
 1023 -253 1023 -253 1071 -231 c 1,11,-1
 1071 -413 l 1,12,13
 1012 -444 1012 -444 929 -444 c 0,14,15
 805 -444 805 -444 736.5 -386 c 128,-1,16
 668 -328 668 -328 668 -227 c 0,17,18
 668 -99 668 -99 801 0 c 1,19,20
 781 55 781 55 773 129 c 1,21,22
 633 -29 633 -29 409 -29 c 0,23,24
 254 -29 254 -29 159.5 57 c 128,-1,25
 65 143 65 143 65 289 c 0,26,27
 65 429 65 429 147.5 520 c 128,-1,28
 230 611 230 611 394 635 c 2,29,-1
 662 674 l 2,30,31
 717 682 717 682 741 704.5 c 128,-1,32
 765 727 765 727 765 762 c 0,33,34
 765 825 765 825 719 857.5 c 128,-1,35
 673 890 673 890 578 890 c 0,36,37
 479 890 479 890 433.5 854 c 128,-1,38
 388 818 388 818 377 737 c 1,39,-1
 100 737 l 1,40,41
 121 936 121 936 235.5 1027 c 128,-1,42
 350 1118 350 1118 601 1118 c 0,43,44
 803 1118 803 1118 924 1037 c 128,-1,45
 1045 956 1045 956 1045 803 c 2,46,-1
 1045 213 l 2,0,1
765 528 m 1,47,48
 712 491 712 491 559 469 c 0,49,50
 431 451 431 451 391.5 411.5 c 128,-1,51
 352 372 352 372 352 307 c 256,52,53
 352 242 352 242 394 209 c 128,-1,54
 436 176 436 176 494 176 c 0,55,56
 604 176 604 176 684.5 237.5 c 128,-1,57
 765 299 765 299 765 391 c 2,58,-1
 765 528 l 1,47,48
EndSplineSet
EndChar

StartChar: ae
Encoding: 230 230 231
Width: 1834
GlyphClass: 2
Flags: W
LayerCount: 2
Fore
SplineSet
1774 467 m 1,0,-1
 1017 467 l 1,1,2
 1027 334 1027 334 1095 267.5 c 128,-1,3
 1163 201 1163 201 1280 201 c 0,4,5
 1350 201 1350 201 1401 233.5 c 128,-1,6
 1452 266 1452 266 1467 319 c 1,7,-1
 1762 319 l 1,8,9
 1712 150 1712 150 1583 60.5 c 128,-1,10
 1454 -29 1454 -29 1283 -29 c 0,11,12
 998 -29 998 -29 877 148 c 1,13,14
 740 -29 740 -29 468 -29 c 0,15,16
 254 -29 254 -29 159.5 57 c 128,-1,17
 65 143 65 143 65 289 c 0,18,19
 65 429 65 429 147.5 520 c 128,-1,20
 230 611 230 611 394 635 c 2,21,-1
 662 674 l 2,22,23
 717 682 717 682 741 704.5 c 128,-1,24
 765 727 765 727 765 762 c 0,25,26
 765 825 765 825 719 857.5 c 128,-1,27
 673 890 673 890 578 890 c 0,28,29
 479 890 479 890 433.5 854 c 128,-1,30
 388 818 388 818 377 737 c 1,31,-1
 100 737 l 1,32,33
 121 936 121 936 235.5 1027 c 128,-1,34
 350 1118 350 1118 601 1118 c 0,35,36
 803 1118 803 1118 938 997 c 1,37,38
 1086 1118 1086 1118 1262 1118 c 0,39,40
 1500 1118 1500 1118 1637 967 c 128,-1,41
 1774 816 1774 816 1774 518 c 2,42,-1
 1774 467 l 1,0,-1
765 528 m 1,43,44
 712 491 712 491 559 469 c 0,45,46
 431 451 431 451 391.5 411.5 c 128,-1,47
 352 372 352 372 352 307 c 256,48,49
 352 242 352 242 394 209 c 128,-1,50
 436 176 436 176 494 176 c 0,51,52
 604 176 604 176 684.5 237.5 c 128,-1,53
 765 299 765 299 765 391 c 2,54,-1
 765 528 l 1,43,44
1479 653 m 1,55,56
 1470 757 1470 757 1411 820 c 128,-1,57
 1352 883 1352 883 1258 883 c 0,58,59
 1054 883 1054 883 1025 653 c 1,60,-1
 1479 653 l 1,55,56
EndSplineSet
EndChar

StartChar: ccedilla
Encoding: 231 231 238
Width: 1143
GlyphClass: 2
Flags: W
LayerCount: 2
Fore
SplineSet
1076 397 m 1,0,1
 1052 206 1052 206 926.5 92 c 128,-1,2
 801 -22 801 -22 603 -28 c 1,3,-1
 545 -113 l 1,4,5
 576 -104 576 -104 600 -104 c 0,6,7
 678 -104 678 -104 731.5 -146.5 c 128,-1,8
 785 -189 785 -189 785 -270 c 0,9,10
 785 -352 785 -352 714.5 -409.5 c 128,-1,11
 644 -467 644 -467 526 -467 c 0,12,13
 418 -467 418 -467 295 -416 c 1,14,-1
 340 -317 l 1,15,16
 444 -350 444 -350 492 -350 c 256,17,18
 540 -350 540 -350 567 -327 c 128,-1,19
 594 -304 594 -304 594 -269 c 0,20,21
 594 -235 594 -235 570.5 -216 c 128,-1,22
 547 -197 547 -197 514 -197 c 0,23,24
 479 -197 479 -197 433 -213 c 1,25,-1
 389 -172 l 1,26,-1
 486 -23 l 1,27,28
 297 -1 297 -1 186 138 c 128,-1,29
 75 277 75 277 75 514 c 0,30,31
 75 814 75 814 211.5 966 c 128,-1,32
 348 1118 348 1118 597 1118 c 0,33,34
 791 1118 791 1118 926 1012 c 128,-1,35
 1061 906 1061 906 1078 700 c 1,36,-1
 787 700 l 1,37,38
 771 791 771 791 723 834 c 128,-1,39
 675 877 675 877 597 877 c 0,40,41
 487 877 487 877 428.5 790 c 128,-1,42
 370 703 370 703 370 561 c 0,43,44
 370 356 370 356 429.5 281.5 c 128,-1,45
 489 207 489 207 591 207 c 0,46,47
 673 207 673 207 726 263.5 c 128,-1,48
 779 320 779 320 785 397 c 1,49,-1
 1076 397 l 1,0,1
EndSplineSet
EndChar

StartChar: dcroat
Encoding: 273 273 241
Width: 1306
GlyphClass: 2
Flags: W
LayerCount: 2
Fore
SplineSet
1133 0 m 1,0,-1
 853 0 l 1,1,-1
 853 137 l 1,2,-1
 849 137 l 1,3,4
 750 -29 750 -29 533 -29 c 0,5,6
 317 -29 317 -29 196 121.5 c 128,-1,7
 75 272 75 272 75 519 c 0,8,9
 75 761 75 761 202 902 c 128,-1,10
 329 1043 329 1043 527 1043 c 0,11,12
 737 1043 737 1043 843 873 c 1,13,-1
 847 873 l 1,14,-1
 847 1174 l 1,15,-1
 461 1174 l 1,16,-1
 461 1356 l 1,17,-1
 847 1356 l 1,18,-1
 847 1480 l 1,19,-1
 1133 1480 l 1,20,-1
 1133 1356 l 1,21,-1
 1266 1356 l 1,22,-1
 1266 1174 l 1,23,-1
 1133 1174 l 1,24,-1
 1133 0 l 1,0,-1
370 500 m 0,25,26
 370 372 370 372 433 289.5 c 128,-1,27
 496 207 496 207 605 207 c 0,28,29
 726 207 726 207 792.5 283 c 128,-1,30
 859 359 859 359 859 485 c 0,31,32
 859 639 859 639 797 717 c 128,-1,33
 735 795 735 795 613 795 c 0,34,35
 498 795 498 795 434 717 c 128,-1,36
 370 639 370 639 370 500 c 0,25,26
EndSplineSet
EndChar

StartChar: eogonek
Encoding: 281 281 257
Width: 1174
GlyphClass: 2
Flags: W
LayerCount: 2
Fore
SplineSet
1102 319 m 1,0,1
 1057 168 1057 168 949 79 c 0,2,3
 870 14 870 14 830 -43.5 c 128,-1,4
 790 -101 790 -101 790 -152 c 0,5,6
 790 -204 790 -204 815.5 -228.5 c 128,-1,7
 841 -253 841 -253 886 -253 c 0,8,9
 926 -253 926 -253 976 -231 c 1,10,-1
 976 -413 l 1,11,12
 916 -446 916 -446 830 -446 c 0,13,14
 715 -446 715 -446 643.5 -388 c 128,-1,15
 572 -330 572 -330 572 -230 c 0,16,17
 572 -116 572 -116 675 -27 c 1,18,19
 649 -29 649 -29 623 -29 c 0,20,21
 354 -29 354 -29 212 119.5 c 128,-1,22
 70 268 70 268 70 531 c 0,23,24
 70 795 70 795 203.5 956.5 c 128,-1,25
 337 1118 337 1118 602 1118 c 0,26,27
 840 1118 840 1118 977 967 c 128,-1,28
 1114 816 1114 816 1114 518 c 2,29,-1
 1114 467 l 1,30,-1
 357 467 l 1,31,32
 367 334 367 334 435 267.5 c 128,-1,33
 503 201 503 201 620 201 c 0,34,35
 690 201 690 201 741 233.5 c 128,-1,36
 792 266 792 266 807 319 c 1,37,-1
 1102 319 l 1,0,1
819 653 m 1,38,39
 810 757 810 757 751 820 c 128,-1,40
 692 883 692 883 598 883 c 0,41,42
 394 883 394 883 365 653 c 1,43,-1
 819 653 l 1,38,39
EndSplineSet
EndChar

StartChar: hbar
Encoding: 295 295 265
Width: 1283
GlyphClass: 2
Flags: W
LayerCount: 2
Fore
SplineSet
1158 0 m 1,0,-1
 871 0 l 1,1,-1
 871 602 l 2,2,3
 871 702 871 702 825.5 752 c 128,-1,4
 780 802 780 802 685 802 c 0,5,6
 578 802 578 802 519 731 c 128,-1,7
 460 660 460 660 460 550 c 2,8,-1
 460 0 l 1,9,-1
 173 0 l 1,10,-1
 173 1174 l 1,11,-1
 40 1174 l 1,12,-1
 40 1356 l 1,13,-1
 173 1356 l 1,14,-1
 173 1480 l 1,15,-1
 460 1480 l 1,16,-1
 460 1356 l 1,17,-1
 835 1356 l 1,18,-1
 835 1174 l 1,19,-1
 460 1174 l 1,20,-1
 460 876 l 1,21,-1
 464 876 l 1,22,23
 562 1043 562 1043 783 1043 c 0,24,25
 953 1043 953 1043 1055.5 943.5 c 128,-1,26
 1158 844 1158 844 1158 679 c 2,27,-1
 1158 0 l 1,0,-1
EndSplineSet
EndChar

StartChar: iogonek
Encoding: 303 303 274
Width: 567
GlyphClass: 2
Flags: W
LayerCount: 2
Fore
SplineSet
427 1090 m 1,0,-1
 427 0 l 1,1,2
 270 -58 270 -58 270 -165 c 0,3,4
 270 -204 270 -204 295.5 -228.5 c 128,-1,5
 321 -253 321 -253 366 -253 c 0,6,7
 410 -253 410 -253 456 -231 c 1,8,-1
 456 -413 l 1,9,10
 391 -446 391 -446 310 -446 c 0,11,12
 196 -446 196 -446 124 -388 c 128,-1,13
 52 -330 52 -330 52 -230 c 0,14,15
 52 -106 52 -106 176 0 c 1,16,-1
 176 2 l 1,17,-1
 140 0 l 1,18,-1
 140 1090 l 1,19,-1
 427 1090 l 1,0,-1
427 1219 m 1,20,-1
 140 1219 l 1,21,-1
 140 1485 l 1,22,-1
 427 1485 l 1,23,-1
 427 1219 l 1,20,-1
EndSplineSet
EndChar

StartChar: dotlessi
Encoding: 305 305 276
Width: 567
GlyphClass: 2
Flags: W
LayerCount: 2
Fore
SplineSet
427 1090 m 1,0,-1
 427 0 l 1,1,-1
 140 0 l 1,2,-1
 140 1090 l 1,3,-1
 427 1090 l 1,0,-1
EndSplineSet
EndChar

StartChar: jcircumflex
Encoding: 309 309 278
Width: 567
GlyphClass: 2
Flags: W
LayerCount: 2
Fore
SplineSet
640 1237 m 1,0,-1
 409 1237 l 1,1,-1
 278 1405 l 1,2,-1
 149 1237 l 1,3,-1
 -82 1237 l 1,4,-1
 151 1536 l 1,5,-1
 407 1536 l 1,6,-1
 640 1237 l 1,0,-1
427 -115 m 2,7,8
 427 -285 427 -285 358 -361.5 c 128,-1,9
 289 -438 289 -438 97 -438 c 2,10,-1
 5 -438 l 1,11,-1
 5 -209 l 1,12,-1
 62 -209 l 2,13,14
 105 -209 105 -209 122.5 -183 c 128,-1,15
 140 -157 140 -157 140 -109 c 2,16,-1
 140 1090 l 1,17,-1
 427 1090 l 1,18,-1
 427 -115 l 2,7,8
EndSplineSet
EndChar

StartChar: kgreenlandic
Encoding: 312 312 280
Width: 1145
GlyphClass: 2
Flags: W
LayerCount: 2
Fore
SplineSet
427 0 m 1,0,-1
 140 0 l 1,1,-1
 140 1089 l 1,2,-1
 427 1089 l 1,3,-1
 427 676 l 1,4,-1
 787 1090 l 1,5,-1
 1140 1090 l 1,6,-1
 755 668 l 1,7,-1
 1150 0 l 1,8,-1
 806 0 l 1,9,-1
 546 467 l 1,10,-1
 427 344 l 1,11,-1
 427 0 l 1,0,-1
EndSplineSet
EndChar

StartChar: lslash
Encoding: 322 322 285
Width: 607
GlyphClass: 2
Flags: W
LayerCount: 2
Fore
SplineSet
447 963 m 1,0,-1
 594 1049 l 1,1,-1
 594 841 l 1,2,-1
 447 755 l 1,3,-1
 447 0 l 1,4,-1
 160 0 l 1,5,-1
 160 589 l 1,6,-1
 29 513 l 1,7,-1
 29 721 l 1,8,-1
 160 797 l 1,9,-1
 160 1470 l 1,10,-1
 447 1470 l 1,11,-1
 447 963 l 1,0,-1
EndSplineSet
EndChar

StartChar: ohorn
Encoding: 417 417 306
Width: 1485
GlyphClass: 2
Flags: W
LayerCount: 2
Fore
SplineSet
1183 545 m 0,0,1
 1183 278 1183 278 1029.5 124.5 c 128,-1,2
 876 -29 876 -29 629 -29 c 0,3,4
 386 -29 386 -29 230.5 123.5 c 128,-1,5
 75 276 75 276 75 545 c 0,6,7
 75 816 75 816 230.5 967 c 128,-1,8
 386 1118 386 1118 629 1118 c 0,9,10
 878 1118 878 1118 1030 963 c 0,11,12
 1088 905 1088 905 1123 831 c 1,13,14
 1177 840 1177 840 1201 872 c 0,15,16
 1235 917 1235 917 1235 999 c 0,17,18
 1235 1038 1235 1038 1227 1090 c 1,19,-1
 1433 1090 l 1,20,21
 1445 1036 1445 1036 1445 976 c 0,22,23
 1445 833 1445 833 1369 763 c 0,24,25
 1296 696 1296 696 1170 688 c 1,26,27
 1183 621 1183 621 1183 545 c 0,0,1
888 545 m 0,28,29
 888 701 888 701 823.5 789 c 128,-1,30
 759 877 759 877 629 877 c 0,31,32
 508 877 508 877 439 794.5 c 128,-1,33
 370 712 370 712 370 545 c 0,34,35
 370 381 370 381 437 297 c 128,-1,36
 504 213 504 213 629 213 c 0,37,38
 758 213 758 213 823 300 c 128,-1,39
 888 387 888 387 888 545 c 0,28,29
EndSplineSet
EndChar

StartChar: oslash
Encoding: 248 248 312
Width: 1258
GlyphClass: 2
Flags: W
LayerCount: 2
Fore
SplineSet
1183 545 m 0,0,1
 1183 278 1183 278 1029.5 124.5 c 128,-1,2
 876 -29 876 -29 629 -29 c 0,3,4
 414 -29 414 -29 267 90 c 1,5,-1
 126 -59 l 1,6,-1
 48 0 l 1,7,-1
 198 158 l 1,8,9
 75 305 75 305 75 545 c 0,10,11
 75 816 75 816 230.5 967 c 128,-1,12
 386 1118 386 1118 629 1118 c 0,13,14
 850 1118 850 1118 995 996 c 1,15,-1
 1138 1147 l 1,16,-1
 1209 1081 l 1,17,-1
 1063 927 l 1,18,19
 1183 779 1183 779 1183 545 c 0,0,1
629 877 m 0,20,21
 508 877 508 877 439 794.5 c 128,-1,22
 370 712 370 712 370 545 c 0,23,24
 370 440 370 440 397 367 c 1,25,-1
 811 803 l 1,26,27
 747 877 747 877 629 877 c 0,20,21
888 545 m 0,28,29
 888 644 888 644 862 716 c 1,30,-1
 450 282 l 1,31,32
 515 213 515 213 629 213 c 0,33,34
 758 213 758 213 823 300 c 128,-1,35
 888 387 888 387 888 545 c 0,28,29
EndSplineSet
EndChar

StartChar: oe
Encoding: 339 339 314
Width: 1938
GlyphClass: 2
Flags: W
LayerCount: 2
Fore
SplineSet
983 123 m 1,0,1
 867 -29 867 -29 629 -29 c 0,2,3
 386 -29 386 -29 230.5 123.5 c 128,-1,4
 75 276 75 276 75 545 c 0,5,6
 75 816 75 816 230.5 967 c 128,-1,7
 386 1118 386 1118 629 1118 c 0,8,9
 847 1118 847 1118 1001 954 c 1,10,11
 1146 1118 1146 1118 1366 1118 c 0,12,13
 1604 1118 1604 1118 1741 967 c 128,-1,14
 1878 816 1878 816 1878 518 c 2,15,-1
 1878 467 l 1,16,-1
 1121 467 l 1,17,18
 1131 334 1131 334 1199 267.5 c 128,-1,19
 1267 201 1267 201 1384 201 c 0,20,21
 1454 201 1454 201 1505 233.5 c 128,-1,22
 1556 266 1556 266 1571 319 c 1,23,-1
 1866 319 l 1,24,25
 1816 150 1816 150 1687 60.5 c 128,-1,26
 1558 -29 1558 -29 1387 -29 c 0,27,28
 1118 -29 1118 -29 983 123 c 1,0,1
888 545 m 0,29,30
 888 701 888 701 823.5 789 c 128,-1,31
 759 877 759 877 629 877 c 0,32,33
 508 877 508 877 439 794.5 c 128,-1,34
 370 712 370 712 370 545 c 0,35,36
 370 381 370 381 437 297 c 128,-1,37
 504 213 504 213 629 213 c 0,38,39
 758 213 758 213 823 300 c 128,-1,40
 888 387 888 387 888 545 c 0,29,30
1583 653 m 1,41,42
 1574 757 1574 757 1515 820 c 128,-1,43
 1456 883 1456 883 1362 883 c 0,44,45
 1158 883 1158 883 1129 653 c 1,46,-1
 1583 653 l 1,41,42
EndSplineSet
EndChar

StartChar: scedilla
Encoding: 351 351 321
Width: 1138
GlyphClass: 2
Flags: W
LayerCount: 2
Fore
SplineSet
749 756 m 1,0,1
 741 827 741 827 697 866 c 128,-1,2
 653 905 653 905 557 905 c 0,3,4
 468 905 468 905 426 876 c 128,-1,5
 384 847 384 847 384 803 c 0,6,7
 384 760 384 760 419.5 736.5 c 128,-1,8
 455 713 455 713 693 657 c 0,9,10
 936 600 936 600 1002 524.5 c 128,-1,11
 1068 449 1068 449 1068 336 c 0,12,13
 1068 155 1068 155 943.5 61.5 c 128,-1,14
 819 -32 819 -32 585 -37 c 1,15,-1
 530 -117 l 1,16,17
 561 -108 561 -108 585 -108 c 0,18,19
 663 -108 663 -108 716.5 -150.5 c 128,-1,20
 770 -193 770 -193 770 -274 c 0,21,22
 770 -356 770 -356 699.5 -413.5 c 128,-1,23
 629 -471 629 -471 511 -471 c 0,24,25
 403 -471 403 -471 280 -420 c 1,26,-1
 325 -321 l 1,27,28
 429 -354 429 -354 477 -354 c 256,29,30
 525 -354 525 -354 552 -331 c 128,-1,31
 579 -308 579 -308 579 -273 c 0,32,33
 579 -239 579 -239 555.5 -220 c 128,-1,34
 532 -201 532 -201 499 -201 c 0,35,36
 464 -201 464 -201 418 -217 c 1,37,-1
 374 -176 l 1,38,-1
 468 -33 l 1,39,40
 305 -19 305 -19 196 67 c 128,-1,41
 87 153 87 153 65 344 c 1,42,-1
 359 344 l 1,43,44
 359 259 359 259 413.5 217.5 c 128,-1,45
 468 176 468 176 579 176 c 0,46,47
 673 176 673 176 723 204.5 c 128,-1,48
 773 233 773 233 773 280 c 0,49,50
 773 328 773 328 736.5 354.5 c 128,-1,51
 700 381 700 381 489 426 c 0,52,53
 254 476 254 476 177.5 556.5 c 128,-1,54
 101 637 101 637 101 750 c 0,55,56
 101 912 101 912 217 1015 c 128,-1,57
 333 1118 333 1118 560 1118 c 0,58,59
 782 1118 782 1118 900 1026 c 128,-1,60
 1018 934 1018 934 1031 756 c 1,61,-1
 749 756 l 1,0,1
EndSplineSet
EndChar

StartChar: longs
Encoding: 383 383 324
Width: 632
GlyphClass: 2
Flags: W
LayerCount: 2
Fore
SplineSet
427 1090 m 1,0,-1
 427 0 l 1,1,-1
 140 0 l 1,2,-1
 140 1090 l 1,3,-1
 140 1178 l 2,4,5
 140 1338 140 1338 223 1414 c 128,-1,6
 306 1490 306 1490 489 1490 c 0,7,8
 538 1490 538 1490 607 1485 c 1,9,-1
 607 1251 l 1,10,11
 576 1254 576 1254 542 1254 c 0,12,13
 501 1254 501 1254 478 1248.5 c 128,-1,14
 455 1243 455 1243 444 1229.5 c 128,-1,15
 433 1216 433 1216 430 1192.5 c 128,-1,16
 427 1169 427 1169 427 1132 c 2,17,-1
 427 1090 l 1,0,-1
EndSplineSet
EndChar

StartChar: germandbls
Encoding: 223 223 325
Width: 1255
GlyphClass: 2
Flags: W
LayerCount: 2
Fore
SplineSet
565 209 m 1,0,1
 594 207 594 207 625 207 c 0,2,3
 755 207 755 207 824 269 c 128,-1,4
 893 331 893 331 893 454 c 0,5,6
 893 578 893 578 815.5 642.5 c 128,-1,7
 738 707 738 707 599 707 c 0,8,9
 591 707 591 707 580 706 c 1,10,-1
 580 904 l 1,11,12
 590 903 590 903 604 903 c 0,13,14
 706 903 706 903 757 951 c 128,-1,15
 808 999 808 999 808 1085 c 0,16,17
 808 1172 808 1172 754.5 1220 c 128,-1,18
 701 1268 701 1268 614 1268 c 0,19,20
 519 1268 519 1268 470.5 1219.5 c 128,-1,21
 422 1171 422 1171 422 1085 c 2,22,-1
 422 0 l 1,23,-1
 135 0 l 1,24,-1
 135 1104 l 2,25,26
 135 1283 135 1283 271 1390 c 128,-1,27
 407 1497 407 1497 624 1497 c 0,28,29
 839 1497 839 1497 967.5 1392 c 128,-1,30
 1096 1287 1096 1287 1096 1110 c 256,31,32
 1096 933 1096 933 936 837 c 1,33,34
 1180 737 1180 737 1180 470 c 0,35,36
 1180 237 1180 237 1047 104 c 128,-1,37
 914 -29 914 -29 678 -29 c 0,38,39
 630 -29 630 -29 565 -16 c 1,40,-1
 565 209 l 1,0,1
EndSplineSet
EndChar

StartChar: tbar
Encoding: 359 359 329
Width: 688
GlyphClass: 2
Flags: W
LayerCount: 2
Fore
SplineSet
173 575 m 1,0,-1
 25 575 l 1,1,-1
 25 770 l 1,2,-1
 173 770 l 1,3,-1
 173 895 l 1,4,-1
 25 895 l 1,5,-1
 25 1090 l 1,6,-1
 173 1090 l 1,7,-1
 173 1384 l 1,8,-1
 460 1384 l 1,9,-1
 460 1090 l 1,10,-1
 638 1090 l 1,11,-1
 638 895 l 1,12,-1
 460 895 l 1,13,-1
 460 770 l 1,14,-1
 638 770 l 1,15,-1
 638 575 l 1,16,-1
 460 575 l 1,17,-1
 460 274 l 2,18,19
 460 231 460 231 483.5 218 c 128,-1,20
 507 205 507 205 556 205 c 256,21,22
 605 205 605 205 638 209 c 1,23,-1
 638 -4 l 1,24,25
 575 -14 575 -14 483 -14 c 0,26,27
 313 -14 313 -14 243 37.5 c 128,-1,28
 173 89 173 89 173 223 c 2,29,-1
 173 575 l 1,0,-1
EndSplineSet
EndChar

StartChar: uogonek
Encoding: 371 371 340
Width: 1256
GlyphClass: 2
Flags: W
LayerCount: 2
Fore
SplineSet
1116 0 m 1,0,1
 949 -48 949 -48 949 -165 c 0,2,3
 949 -204 949 -204 974.5 -228.5 c 128,-1,4
 1000 -253 1000 -253 1045 -253 c 0,5,6
 1085 -253 1085 -253 1135 -231 c 1,7,-1
 1135 -413 l 1,8,9
 1070 -446 1070 -446 989 -446 c 0,10,11
 879 -446 879 -446 805 -389.5 c 128,-1,12
 731 -333 731 -333 731 -230 c 0,13,14
 731 -100 731 -100 852 0 c 1,15,-1
 842 154 l 1,16,-1
 838 154 l 1,17,18
 729 -29 729 -29 506 -29 c 0,19,20
 333 -29 333 -29 234 73 c 128,-1,21
 135 175 135 175 135 373 c 2,22,-1
 135 1090 l 1,23,-1
 422 1090 l 1,24,-1
 422 414 l 2,25,26
 422 310 422 310 470 261.5 c 128,-1,27
 518 213 518 213 608 213 c 0,28,29
 705 213 705 213 767 277.5 c 128,-1,30
 829 342 829 342 829 461 c 2,31,-1
 829 1090 l 1,32,-1
 1116 1090 l 1,33,-1
 1116 0 l 1,0,1
EndSplineSet
EndChar

StartChar: uhorn
Encoding: 432 432 342
Width: 1527
GlyphClass: 2
Flags: W
LayerCount: 2
Fore
SplineSet
1116 0 m 1,0,-1
 842 0 l 1,1,-1
 842 154 l 1,2,-1
 838 154 l 1,3,4
 729 -29 729 -29 506 -29 c 0,5,6
 333 -29 333 -29 234 73 c 128,-1,7
 135 175 135 175 135 373 c 2,8,-1
 135 1090 l 1,9,-1
 422 1090 l 1,10,-1
 422 414 l 2,11,12
 422 310 422 310 470 261.5 c 128,-1,13
 518 213 518 213 608 213 c 0,14,15
 705 213 705 213 767 277.5 c 128,-1,16
 829 342 829 342 829 461 c 2,17,-1
 829 1090 l 1,18,-1
 1116 1090 l 1,19,-1
 1116 828 l 1,20,-1
 1118 828 l 2,21,22
 1200 828 1200 828 1238.5 866.5 c 128,-1,23
 1277 905 1277 905 1277 999 c 0,24,25
 1277 1037 1277 1037 1269 1090 c 1,26,-1
 1475 1090 l 1,27,28
 1487 1036 1487 1036 1487 976 c 0,29,30
 1487 830 1487 830 1403.5 757 c 128,-1,31
 1320 684 1320 684 1157 684 c 2,32,-1
 1116 684 l 1,33,-1
 1116 0 l 1,0,-1
EndSplineSet
EndChar

StartChar: eth
Encoding: 240 240 363
Width: 1269
GlyphClass: 2
Flags: W
LayerCount: 2
Fore
SplineSet
632 814 m 0,0,1
 505 814 505 814 437.5 731 c 128,-1,2
 370 648 370 648 370 527 c 0,3,4
 370 372 370 372 442.5 292.5 c 128,-1,5
 515 213 515 213 634 213 c 0,6,7
 761 213 761 213 827.5 300.5 c 128,-1,8
 894 388 894 388 894 535 c 0,9,10
 894 652 894 652 827 733 c 128,-1,11
 760 814 760 814 632 814 c 0,0,1
871 1313 m 1,12,13
 1007 1191 1007 1191 1098 1003.5 c 128,-1,14
 1189 816 1189 816 1189 604 c 0,15,16
 1189 304 1189 304 1036.5 137.5 c 128,-1,17
 884 -29 884 -29 636 -29 c 0,18,19
 389 -29 389 -29 232 117 c 128,-1,20
 75 263 75 263 75 535 c 0,21,22
 75 768 75 768 218.5 912 c 128,-1,23
 362 1056 362 1056 580 1056 c 0,24,25
 733 1056 733 1056 832 958 c 1,26,-1
 836 963 l 1,27,28
 778 1090 778 1090 638 1210 c 1,29,-1
 417 1114 l 1,30,-1
 288 1221 l 1,31,-1
 509 1317 l 1,32,33
 432 1373 432 1373 359 1409 c 1,34,-1
 580 1509 l 1,35,36
 671 1472 671 1472 742 1419 c 1,37,-1
 951 1509 l 1,38,-1
 1078 1403 l 1,39,-1
 871 1313 l 1,12,13
EndSplineSet
EndChar

StartChar: thorn
Encoding: 254 254 364
Width: 1272
GlyphClass: 2
Flags: W
LayerCount: 2
Fore
SplineSet
902 537 m 0,0,1
 902 697 902 697 837.5 783.5 c 128,-1,2
 773 870 773 870 658 870 c 0,3,4
 535 870 535 870 474.5 780 c 128,-1,5
 414 690 414 690 414 520 c 0,6,7
 414 371 414 371 482 289 c 128,-1,8
 550 207 550 207 666 207 c 0,9,10
 770 207 770 207 836 295.5 c 128,-1,11
 902 384 902 384 902 537 c 0,0,1
427 948 m 1,12,-1
 431 948 l 1,13,14
 537 1118 537 1118 744 1118 c 0,15,16
 942 1118 942 1118 1069.5 967.5 c 128,-1,17
 1197 817 1197 817 1197 557 c 0,18,19
 1197 296 1197 296 1076 133.5 c 128,-1,20
 955 -29 955 -29 738 -29 c 0,21,22
 524 -29 524 -29 431 139 c 1,23,-1
 427 139 l 1,24,-1
 427 -424 l 1,25,-1
 140 -424 l 1,26,-1
 140 1470 l 1,27,-1
 427 1470 l 1,28,-1
 427 948 l 1,12,-1
EndSplineSet
EndChar

StartChar: eng
Encoding: 331 331 365
Width: 1250
GlyphClass: 2
Flags: W
LayerCount: 2
Fore
SplineSet
140 1090 m 1,0,-1
 415 1090 l 1,1,-1
 415 930 l 1,2,-1
 419 930 l 1,3,4
 522 1118 522 1118 746 1118 c 0,5,6
 911 1118 911 1118 1018 1022.5 c 128,-1,7
 1125 927 1125 927 1125 754 c 2,8,-1
 1125 40 l 2,9,10
 1125 -189 1125 -189 985.5 -316.5 c 128,-1,11
 846 -444 846 -444 604 -444 c 1,12,-1
 604 -204 l 1,13,14
 723 -204 723 -204 780.5 -147 c 128,-1,15
 838 -90 838 -90 838 28 c 2,16,-1
 838 677 l 2,17,18
 838 772 838 772 795 824.5 c 128,-1,19
 752 877 752 877 652 877 c 0,20,21
 549 877 549 877 488 809.5 c 128,-1,22
 427 742 427 742 427 625 c 2,23,-1
 427 0 l 1,24,-1
 140 0 l 1,25,-1
 140 1090 l 1,0,-1
EndSplineSet
EndChar

StartChar: ampersand
Encoding: 38 38 371
Width: 1460
GlyphClass: 2
Flags: W
LayerCount: 2
Fore
SplineSet
774 1133 m 0,0,1
 774 1194 774 1194 738.5 1223.5 c 128,-1,2
 703 1253 703 1253 651 1253 c 0,3,4
 598 1253 598 1253 565 1220.5 c 128,-1,5
 532 1188 532 1188 532 1135 c 0,6,7
 532 1060 532 1060 638 950 c 1,8,9
 774 1032 774 1032 774 1133 c 0,0,1
550 643 m 1,10,11
 455 579 455 579 415.5 528.5 c 128,-1,12
 376 478 376 478 376 397 c 0,13,14
 376 325 376 325 433.5 264 c 128,-1,15
 491 203 491 203 593 203 c 0,16,17
 707 203 707 203 821 305 c 1,18,-1
 550 643 l 1,10,11
1415 0 m 1,19,-1
 1069 0 l 1,20,-1
 968 125 l 1,21,22
 817 -39 817 -39 548 -39 c 0,23,24
 348 -39 348 -39 219 84 c 128,-1,25
 90 207 90 207 90 379 c 0,26,27
 90 644 90 644 372 807 c 2,28,-1
 403 825 l 1,29,30
 270 976 270 976 270 1133 c 0,31,32
 270 1281 270 1281 378 1375.5 c 128,-1,33
 486 1470 486 1470 646 1470 c 256,34,35
 806 1470 806 1470 913.5 1379 c 128,-1,36
 1021 1288 1021 1288 1021 1130 c 0,37,38
 1021 925 1021 925 778 780 c 1,39,-1
 987 522 l 1,40,41
 1054 634 1054 634 1062 764 c 1,42,-1
 1316 764 l 1,43,44
 1295 498 1295 498 1148 322 c 1,45,-1
 1415 0 l 1,19,-1
EndSplineSet
EndChar

StartChar: asuperior
Encoding: 63209 63209 372
Width: 720
GlyphClass: 2
Flags: W
LayerCount: 2
Fore
SplineSet
451 1174 m 1,0,1
 424 1152 424 1152 345 1139 c 0,2,3
 278 1130 278 1130 258 1110.5 c 128,-1,4
 238 1091 238 1091 238 1061 c 0,5,6
 238 1030 238 1030 259.5 1014.5 c 128,-1,7
 281 999 281 999 311 999 c 0,8,9
 368 999 368 999 409.5 1028 c 128,-1,10
 451 1057 451 1057 451 1100 c 2,11,-1
 451 1174 l 1,0,1
647 1007 m 2,12,13
 647 962 647 962 655 937 c 128,-1,14
 663 912 663 912 684 906 c 1,15,-1
 684 875 l 1,16,-1
 477 875 l 1,17,18
 463 907 463 907 457 951 c 1,19,20
 373 858 373 858 241 858 c 0,21,22
 150 858 150 858 94 908.5 c 128,-1,23
 38 959 38 959 38 1046 c 0,24,25
 38 1128 38 1128 87 1181.5 c 128,-1,26
 136 1235 136 1235 232 1250 c 2,27,-1
 391 1273 l 2,28,29
 423 1276 423 1276 437 1287.5 c 128,-1,30
 451 1299 451 1299 451 1317 c 0,31,32
 451 1347 451 1347 427.5 1363.5 c 128,-1,33
 404 1380 404 1380 355 1380 c 0,34,35
 305 1380 305 1380 281.5 1363.5 c 128,-1,36
 258 1347 258 1347 252 1310 c 1,37,-1
 59 1310 l 1,38,39
 72 1427 72 1427 143 1481 c 128,-1,40
 214 1535 214 1535 371 1535 c 0,41,42
 496 1535 496 1535 571.5 1487 c 128,-1,43
 647 1439 647 1439 647 1349 c 2,44,-1
 647 1007 l 2,12,13
EndSplineSet
EndChar

StartChar: bsuperior
Encoding: 63210 63210 373
Width: 782
GlyphClass: 2
Flags: W
LayerCount: 2
Fore
SplineSet
533 1192 m 0,0,1
 533 1276 533 1276 499 1322 c 128,-1,2
 465 1368 465 1368 404 1368 c 0,3,4
 339 1368 339 1368 306.5 1320.5 c 128,-1,5
 274 1273 274 1273 274 1183 c 0,6,7
 274 1104 274 1104 310.5 1060.5 c 128,-1,8
 347 1017 347 1017 408 1017 c 0,9,10
 463 1017 463 1017 498 1064.5 c 128,-1,11
 533 1112 533 1112 533 1192 c 0,0,1
282 1434 m 1,12,-1
 284 1434 l 1,13,14
 347 1535 347 1535 470 1535 c 0,15,16
 587 1535 587 1535 662 1446 c 128,-1,17
 737 1357 737 1357 737 1204 c 0,18,19
 737 1050 737 1050 666 954 c 128,-1,20
 595 858 595 858 467 858 c 0,21,22
 340 858 340 858 281 956 c 1,23,-1
 278 956 l 1,24,-1
 278 875 l 1,25,-1
 83 875 l 1,26,-1
 83 1741 l 1,27,-1
 282 1741 l 1,28,-1
 282 1434 l 1,12,-1
EndSplineSet
EndChar

StartChar: c.superior
Encoding: 65537 -1 374
Width: 704
GlyphClass: 2
Flags: W
LayerCount: 2
Fore
SplineSet
665 1109 m 1,0,1
 650 997 650 997 570 927.5 c 128,-1,2
 490 858 490 858 356 858 c 0,3,4
 205 858 205 858 124.5 943.5 c 128,-1,5
 44 1029 44 1029 44 1178 c 0,6,7
 44 1355 44 1355 128.5 1445 c 128,-1,8
 213 1535 213 1535 368 1535 c 0,9,10
 488 1535 488 1535 571.5 1472.5 c 128,-1,11
 655 1410 655 1410 666 1288 c 1,12,-1
 464 1288 l 1,13,14
 456 1332 456 1332 431 1352 c 128,-1,15
 406 1372 406 1372 366 1372 c 0,16,17
 309 1372 309 1372 278.5 1326 c 128,-1,18
 248 1280 248 1280 248 1205 c 0,19,20
 248 1096 248 1096 279 1056.5 c 128,-1,21
 310 1017 310 1017 363 1017 c 0,22,23
 405 1017 405 1017 432.5 1044.5 c 128,-1,24
 460 1072 460 1072 463 1109 c 1,25,-1
 665 1109 l 1,0,1
EndSplineSet
EndChar

StartChar: dsuperior
Encoding: 63211 63211 375
Width: 781
GlyphClass: 2
Flags: W
LayerCount: 2
Fore
SplineSet
248 1192 m 0,0,1
 248 1116 248 1116 281.5 1066.5 c 128,-1,2
 315 1017 315 1017 373 1017 c 0,3,4
 436 1017 436 1017 471.5 1062.5 c 128,-1,5
 507 1108 507 1108 507 1183 c 0,6,7
 507 1275 507 1275 474.5 1321.5 c 128,-1,8
 442 1368 442 1368 377 1368 c 0,9,10
 316 1368 316 1368 282 1321.5 c 128,-1,11
 248 1275 248 1275 248 1192 c 0,0,1
698 875 m 1,12,-1
 503 875 l 1,13,-1
 503 956 l 1,14,-1
 501 956 l 1,15,16
 442 858 442 858 314 858 c 0,17,18
 187 858 187 858 115.5 953 c 128,-1,19
 44 1048 44 1048 44 1204 c 0,20,21
 44 1356 44 1356 119 1445.5 c 128,-1,22
 194 1535 194 1535 311 1535 c 0,23,24
 435 1535 435 1535 497 1434 c 1,25,-1
 500 1434 l 1,26,-1
 500 1741 l 1,27,-1
 698 1741 l 1,28,-1
 698 875 l 1,12,-1
EndSplineSet
EndChar

StartChar: esuperior
Encoding: 63212 63212 376
Width: 723
GlyphClass: 2
Flags: W
LayerCount: 2
Fore
SplineSet
483 1270 m 1,0,1
 479 1321 479 1321 447.5 1351 c 128,-1,2
 416 1381 416 1381 368 1381 c 0,3,4
 260 1381 260 1381 245 1270 c 1,5,-1
 483 1270 l 1,0,1
680 1063 m 1,6,7
 650 963 650 963 569.5 910.5 c 128,-1,8
 489 858 489 858 384 858 c 0,9,10
 217 858 217 858 129 945.5 c 128,-1,11
 41 1033 41 1033 41 1188 c 0,12,13
 41 1344 41 1344 124 1439.5 c 128,-1,14
 207 1535 207 1535 370 1535 c 0,15,16
 518 1535 518 1535 602.5 1445.5 c 128,-1,17
 687 1356 687 1356 687 1181 c 2,18,-1
 687 1151 l 1,19,-1
 241 1151 l 1,20,21
 246 1080 246 1080 281.5 1044.5 c 128,-1,22
 317 1009 317 1009 378 1009 c 0,23,24
 415 1009 415 1009 441.5 1024 c 128,-1,25
 468 1039 468 1039 476 1063 c 1,26,-1
 680 1063 l 1,6,7
EndSplineSet
EndChar

StartChar: f.superior
Encoding: 65538 -1 377
Width: 429
GlyphClass: 2
Flags: W
LayerCount: 2
Fore
SplineSet
298 1513 m 1,0,-1
 408 1513 l 1,1,-1
 408 1377 l 1,2,-1
 298 1377 l 1,3,-1
 298 875 l 1,4,-1
 99 875 l 1,5,-1
 99 1377 l 1,6,-1
 9 1377 l 1,7,-1
 9 1513 l 1,8,-1
 99 1513 l 1,9,-1
 99 1569 l 2,10,11
 99 1663 99 1663 156.5 1708 c 128,-1,12
 214 1753 214 1753 335 1753 c 0,13,14
 364 1753 364 1753 405 1750 c 1,15,-1
 405 1597 l 1,16,17
 386 1599 386 1599 366 1599 c 0,18,19
 342 1599 342 1599 328.5 1596 c 128,-1,20
 315 1593 315 1593 308.5 1587 c 128,-1,21
 302 1581 302 1581 300 1570 c 128,-1,22
 298 1559 298 1559 298 1542 c 2,23,-1
 298 1513 l 1,0,-1
EndSplineSet
EndChar

StartChar: g.superior
Encoding: 65539 -1 378
Width: 774
GlyphClass: 2
Flags: W
LayerCount: 2
Fore
SplineSet
248 1194 m 0,0,1
 248 1122 248 1122 279.5 1078 c 128,-1,2
 311 1034 311 1034 368 1034 c 0,3,4
 430 1034 430 1034 463 1076.5 c 128,-1,5
 496 1119 496 1119 496 1200 c 0,6,7
 496 1275 496 1275 461 1321.5 c 128,-1,8
 426 1368 426 1368 367 1368 c 0,9,10
 315 1368 315 1368 281.5 1324 c 128,-1,11
 248 1280 248 1280 248 1194 c 0,0,1
694 1518 m 1,12,-1
 694 884 l 2,13,14
 694 736 694 736 610 668 c 128,-1,15
 526 600 526 600 353 600 c 0,16,17
 229 600 229 600 146 655.5 c 128,-1,18
 63 711 63 711 58 806 c 1,19,-1
 272 806 l 1,20,21
 278 746 278 746 378 746 c 0,22,23
 495 746 495 746 495 880 c 2,24,-1
 495 966 l 1,25,-1
 493 968 l 1,26,27
 444 871 444 871 321 871 c 0,28,29
 195 871 195 871 119.5 958.5 c 128,-1,30
 44 1046 44 1046 44 1204 c 0,31,32
 44 1359 44 1359 119.5 1447 c 128,-1,33
 195 1535 195 1535 312 1535 c 0,34,35
 445 1535 445 1535 500 1423 c 1,36,-1
 502 1423 l 1,37,-1
 502 1518 l 1,38,-1
 694 1518 l 1,12,-1
EndSplineSet
EndChar

StartChar: h.superior
Encoding: 65540 -1 379
Width: 767
GlyphClass: 2
Flags: W
LayerCount: 2
Fore
SplineSet
694 875 m 1,0,-1
 494 875 l 1,1,-1
 494 1274 l 2,2,3
 494 1320 494 1320 471 1343.5 c 128,-1,4
 448 1367 448 1367 399 1367 c 0,5,6
 343 1367 343 1367 312.5 1332.5 c 128,-1,7
 282 1298 282 1298 282 1244 c 2,8,-1
 282 875 l 1,9,-1
 83 875 l 1,10,-1
 83 1741 l 1,11,-1
 282 1741 l 1,12,-1
 282 1436 l 1,13,-1
 284 1436 l 1,14,15
 342 1535 342 1535 472 1535 c 0,16,17
 573 1535 573 1535 633.5 1476 c 128,-1,18
 694 1417 694 1417 694 1320 c 2,19,-1
 694 875 l 1,0,-1
EndSplineSet
EndChar

StartChar: isuperior
Encoding: 63213 63213 380
Width: 365
GlyphClass: 2
Flags: W
LayerCount: 2
Fore
SplineSet
282 1593 m 1,0,-1
 83 1593 l 1,1,-1
 83 1750 l 1,2,-1
 282 1750 l 1,3,-1
 282 1593 l 1,0,-1
282 1518 m 1,4,-1
 282 875 l 1,5,-1
 83 875 l 1,6,-1
 83 1518 l 1,7,-1
 282 1518 l 1,4,-1
EndSplineSet
EndChar

StartChar: j.superior
Encoding: 65541 -1 381
Width: 365
GlyphClass: 2
Flags: W
LayerCount: 2
Fore
SplineSet
282 1593 m 1,0,-1
 83 1593 l 1,1,-1
 83 1750 l 1,2,-1
 282 1750 l 1,3,-1
 282 1593 l 1,0,-1
282 827 m 2,4,5
 282 719 282 719 236.5 665.5 c 128,-1,6
 191 612 191 612 64 612 c 2,7,-1
 3 612 l 1,8,-1
 3 772 l 1,9,-1
 37 772 l 2,10,11
 62 772 62 772 72.5 787 c 128,-1,12
 83 802 83 802 83 831 c 2,13,-1
 83 1518 l 1,14,-1
 282 1518 l 1,15,-1
 282 827 l 2,4,5
EndSplineSet
EndChar

StartChar: k.superior
Encoding: 65542 -1 382
Width: 706
GlyphClass: 2
Flags: W
LayerCount: 2
Fore
SplineSet
323 1144 m 1,0,-1
 282 1101 l 1,1,-1
 282 875 l 1,2,-1
 83 875 l 1,3,-1
 83 1741 l 1,4,-1
 282 1741 l 1,5,-1
 282 1337 l 1,6,-1
 458 1518 l 1,7,-1
 681 1518 l 1,8,-1
 462 1289 l 1,9,-1
 706 875 l 1,10,-1
 474 875 l 1,11,-1
 323 1144 l 1,0,-1
EndSplineSet
EndChar

StartChar: lsuperior
Encoding: 63214 63214 383
Width: 365
GlyphClass: 2
Flags: W
LayerCount: 2
Fore
SplineSet
282 875 m 1,0,-1
 83 875 l 1,1,-1
 83 1741 l 1,2,-1
 282 1741 l 1,3,-1
 282 875 l 1,0,-1
EndSplineSet
EndChar

StartChar: msuperior
Encoding: 63215 63215 384
Width: 1107
GlyphClass: 2
Flags: W
LayerCount: 2
Fore
SplineSet
1034 875 m 1,0,-1
 834 875 l 1,1,-1
 834 1269 l 2,2,3
 834 1314 834 1314 815 1340.5 c 128,-1,4
 796 1367 796 1367 753 1367 c 256,5,6
 710 1367 710 1367 684 1342 c 128,-1,7
 658 1317 658 1317 658 1267 c 2,8,-1
 658 875 l 1,9,-1
 458 875 l 1,10,-1
 458 1276 l 2,11,12
 458 1323 458 1323 437.5 1345 c 128,-1,13
 417 1367 417 1367 372 1367 c 0,14,15
 326 1367 326 1367 304 1342 c 128,-1,16
 282 1317 282 1317 282 1267 c 2,17,-1
 282 875 l 1,18,-1
 83 875 l 1,19,-1
 83 1518 l 1,20,-1
 275 1518 l 1,21,-1
 275 1424 l 1,22,-1
 277 1424 l 1,23,24
 333 1535 333 1535 461 1535 c 0,25,26
 578 1535 578 1535 633 1432 c 1,27,28
 699 1535 699 1535 807 1535 c 0,29,30
 907 1535 907 1535 970.5 1478.5 c 128,-1,31
 1034 1422 1034 1422 1034 1320 c 2,32,-1
 1034 875 l 1,0,-1
EndSplineSet
EndChar

StartChar: nsuperior
Encoding: 8319 8319 385
Width: 767
GlyphClass: 2
Flags: W
LayerCount: 2
Fore
SplineSet
694 875 m 1,0,-1
 494 875 l 1,1,-1
 494 1274 l 2,2,3
 494 1318 494 1318 472 1342.5 c 128,-1,4
 450 1367 450 1367 399 1367 c 0,5,6
 345 1367 345 1367 313.5 1334 c 128,-1,7
 282 1301 282 1301 282 1244 c 2,8,-1
 282 875 l 1,9,-1
 83 875 l 1,10,-1
 83 1518 l 1,11,-1
 275 1518 l 1,12,-1
 275 1424 l 1,13,-1
 277 1424 l 1,14,15
 338 1535 338 1535 470 1535 c 0,16,17
 567 1535 567 1535 630.5 1478.5 c 128,-1,18
 694 1422 694 1422 694 1320 c 2,19,-1
 694 875 l 1,0,-1
EndSplineSet
EndChar

StartChar: osuperior
Encoding: 63216 63216 386
Width: 772
GlyphClass: 2
Flags: W
LayerCount: 2
Fore
SplineSet
524 1197 m 0,0,1
 524 1280 524 1280 489.5 1326 c 128,-1,2
 455 1372 455 1372 386 1372 c 0,3,4
 322 1372 322 1372 285 1328.5 c 128,-1,5
 248 1285 248 1285 248 1197 c 0,6,7
 248 1110 248 1110 283.5 1065.5 c 128,-1,8
 319 1021 319 1021 386 1021 c 0,9,10
 455 1021 455 1021 489.5 1067 c 128,-1,11
 524 1113 524 1113 524 1197 c 0,0,1
728 1197 m 0,12,13
 728 1039 728 1039 633.5 948.5 c 128,-1,14
 539 858 539 858 386 858 c 0,15,16
 236 858 236 858 140 948 c 128,-1,17
 44 1038 44 1038 44 1197 c 256,18,19
 44 1356 44 1356 140 1445.5 c 128,-1,20
 236 1535 236 1535 386 1535 c 0,21,22
 540 1535 540 1535 634 1443.5 c 128,-1,23
 728 1352 728 1352 728 1197 c 0,12,13
EndSplineSet
EndChar

StartChar: p.superior
Encoding: 65543 -1 387
Width: 780
GlyphClass: 2
Flags: W
LayerCount: 2
Fore
SplineSet
274 1183 m 0,0,1
 274 1107 274 1107 309 1062 c 128,-1,2
 344 1017 344 1017 407 1017 c 0,3,4
 466 1017 466 1017 499 1067.5 c 128,-1,5
 532 1118 532 1118 532 1192 c 0,6,7
 532 1277 532 1277 498 1322.5 c 128,-1,8
 464 1368 464 1368 403 1368 c 0,9,10
 338 1368 338 1368 306 1321 c 128,-1,11
 274 1274 274 1274 274 1183 c 0,0,1
274 1425 m 1,12,-1
 277 1425 l 1,13,14
 339 1535 339 1535 469 1535 c 0,15,16
 585 1535 585 1535 660.5 1446.5 c 128,-1,17
 736 1358 736 1358 736 1204 c 0,18,19
 736 1052 736 1052 665.5 955 c 128,-1,20
 595 858 595 858 465 858 c 0,21,22
 339 858 339 858 284 957 c 1,23,-1
 282 957 l 1,24,-1
 282 621 l 1,25,-1
 83 621 l 1,26,-1
 83 1518 l 1,27,-1
 274 1518 l 1,28,-1
 274 1425 l 1,12,-1
EndSplineSet
EndChar

StartChar: q.superior
Encoding: 65544 -1 388
Width: 783
GlyphClass: 2
Flags: W
LayerCount: 2
Fore
SplineSet
248 1185 m 0,0,1
 248 1103 248 1103 281 1062 c 128,-1,2
 314 1021 314 1021 378 1021 c 0,3,4
 437 1021 437 1021 470.5 1066.5 c 128,-1,5
 504 1112 504 1112 504 1193 c 0,6,7
 504 1277 504 1277 467.5 1322.5 c 128,-1,8
 431 1368 431 1368 374 1368 c 0,9,10
 315 1368 315 1368 281.5 1321.5 c 128,-1,11
 248 1275 248 1275 248 1185 c 0,0,1
700 1518 m 1,12,-1
 700 621 l 1,13,-1
 501 621 l 1,14,-1
 501 955 l 1,15,-1
 499 955 l 1,16,17
 447 858 447 858 316 858 c 0,18,19
 187 858 187 858 115.5 954 c 128,-1,20
 44 1050 44 1050 44 1183 c 0,21,22
 44 1340 44 1340 118.5 1437.5 c 128,-1,23
 193 1535 193 1535 326 1535 c 0,24,25
 446 1535 446 1535 506 1423 c 1,26,-1
 508 1423 l 1,27,-1
 508 1518 l 1,28,-1
 700 1518 l 1,12,-1
EndSplineSet
EndChar

StartChar: rsuperior
Encoding: 63217 63217 389
Width: 507
GlyphClass: 2
Flags: W
LayerCount: 2
Fore
SplineSet
83 1518 m 1,0,-1
 275 1518 l 1,1,-1
 275 1407 l 1,2,-1
 277 1407 l 1,3,4
 307 1470 307 1470 348.5 1502.5 c 128,-1,5
 390 1535 390 1535 454 1535 c 0,6,7
 470 1535 470 1535 486 1532 c 1,8,-1
 486 1341 l 1,9,10
 474 1343 474 1343 438 1343 c 0,11,12
 359 1343 359 1343 320.5 1311 c 128,-1,13
 282 1279 282 1279 282 1215 c 2,14,-1
 282 875 l 1,15,-1
 83 875 l 1,16,-1
 83 1518 l 1,0,-1
EndSplineSet
EndChar

StartChar: ssuperior
Encoding: 63218 63218 390
Width: 701
GlyphClass: 2
Flags: W
LayerCount: 2
Fore
SplineSet
442 1325 m 1,0,1
 438 1360 438 1360 415.5 1378 c 128,-1,2
 393 1396 393 1396 345 1396 c 0,3,4
 299 1396 299 1396 278 1382.5 c 128,-1,5
 257 1369 257 1369 257 1346 c 0,6,7
 257 1325 257 1325 277.5 1312.5 c 128,-1,8
 298 1300 298 1300 439 1269 c 0,9,10
 582 1237 582 1237 621 1191.5 c 128,-1,11
 660 1146 660 1146 660 1078 c 0,12,13
 660 971 660 971 581 914.5 c 128,-1,14
 502 858 502 858 345 858 c 0,15,16
 207 858 207 858 129 912 c 128,-1,17
 51 966 51 966 38 1082 c 1,18,-1
 242 1082 l 1,19,20
 242 1040 242 1040 270 1019 c 128,-1,21
 298 998 298 998 356 998 c 0,22,23
 404 998 404 998 430 1012.5 c 128,-1,24
 456 1027 456 1027 456 1052 c 0,25,26
 456 1076 456 1076 434.5 1089.5 c 128,-1,27
 413 1103 413 1103 289 1128 c 0,28,29
 150 1156 150 1156 105 1204.5 c 128,-1,30
 60 1253 60 1253 60 1322 c 0,31,32
 60 1417 60 1417 131.5 1476 c 128,-1,33
 203 1535 203 1535 345 1535 c 0,34,35
 483 1535 483 1535 557 1482.5 c 128,-1,36
 631 1430 631 1430 638 1325 c 1,37,-1
 442 1325 l 1,0,1
EndSplineSet
EndChar

StartChar: tsuperior
Encoding: 63219 63219 391
Width: 436
GlyphClass: 2
Flags: W
LayerCount: 2
Fore
SplineSet
301 1513 m 1,0,-1
 406 1513 l 1,1,-1
 406 1377 l 1,2,-1
 301 1377 l 1,3,-1
 301 1057 l 2,4,5
 301 1031 301 1031 315 1023.5 c 128,-1,6
 329 1016 329 1016 358 1016 c 256,7,8
 387 1016 387 1016 406 1018 c 1,9,-1
 406 873 l 1,10,11
 365 867 365 867 305 867 c 0,12,13
 194 867 194 867 148 897.5 c 128,-1,14
 102 928 102 928 102 1007 c 2,15,-1
 102 1377 l 1,16,-1
 15 1377 l 1,17,-1
 15 1513 l 1,18,-1
 102 1513 l 1,19,-1
 102 1692 l 1,20,-1
 301 1692 l 1,21,-1
 301 1513 l 1,0,-1
EndSplineSet
EndChar

StartChar: u.superior
Encoding: 65545 -1 392
Width: 771
GlyphClass: 2
Flags: W
LayerCount: 2
Fore
SplineSet
688 875 m 1,0,-1
 497 875 l 1,1,-1
 497 966 l 1,2,-1
 494 966 l 1,3,4
 430 858 430 858 299 858 c 0,5,6
 196 858 196 858 138 918 c 128,-1,7
 80 978 80 978 80 1095 c 2,8,-1
 80 1518 l 1,9,-1
 279 1518 l 1,10,-1
 279 1119 l 2,11,12
 279 1071 279 1071 304 1048.5 c 128,-1,13
 329 1026 329 1026 375 1026 c 0,14,15
 425 1026 425 1026 457 1057.5 c 128,-1,16
 489 1089 489 1089 489 1147 c 2,17,-1
 489 1518 l 1,18,-1
 688 1518 l 1,19,-1
 688 875 l 1,0,-1
EndSplineSet
EndChar

StartChar: v.superior
Encoding: 65546 -1 393
Width: 698
GlyphClass: 2
Flags: W
LayerCount: 2
Fore
SplineSet
453 875 m 1,0,-1
 245 875 l 1,1,-1
 15 1518 l 1,2,-1
 233 1518 l 1,3,-1
 339 1128 l 1,4,-1
 350 1073 l 1,5,-1
 354 1073 l 1,6,-1
 365 1128 l 1,7,-1
 475 1518 l 1,8,-1
 685 1518 l 1,9,-1
 453 875 l 1,0,-1
EndSplineSet
EndChar

StartChar: w.superior
Encoding: 65547 -1 394
Width: 979
GlyphClass: 2
Flags: W
LayerCount: 2
Fore
SplineSet
780 875 m 1,0,-1
 576 875 l 1,1,-1
 502 1229 l 1,2,-1
 491 1300 l 1,3,-1
 487 1300 l 1,4,-1
 476 1229 l 1,5,-1
 403 875 l 1,6,-1
 199 875 l 1,7,-1
 17 1518 l 1,8,-1
 228 1518 l 1,9,-1
 301 1171 l 1,10,-1
 311 1103 l 1,11,-1
 315 1103 l 1,12,-1
 324 1171 l 1,13,-1
 391 1518 l 1,14,-1
 591 1518 l 1,15,-1
 661 1171 l 1,16,-1
 672 1101 l 1,17,-1
 676 1101 l 1,18,-1
 687 1171 l 1,19,-1
 761 1518 l 1,20,-1
 965 1518 l 1,21,-1
 780 875 l 1,0,-1
EndSplineSet
EndChar

StartChar: x.superior
Encoding: 65548 -1 395
Width: 700
GlyphClass: 2
Flags: W
LayerCount: 2
Fore
SplineSet
683 875 m 1,0,-1
 444 875 l 1,1,-1
 366 1020 l 1,2,-1
 349 1058 l 1,3,-1
 347 1058 l 1,4,-1
 330 1020 l 1,5,-1
 252 875 l 1,6,-1
 18 875 l 1,7,-1
 236 1202 l 1,8,-1
 26 1518 l 1,9,-1
 261 1518 l 1,10,-1
 338 1376 l 1,11,-1
 354 1341 l 1,12,-1
 356 1341 l 1,13,-1
 372 1376 l 1,14,-1
 447 1518 l 1,15,-1
 676 1518 l 1,16,-1
 464 1202 l 1,17,-1
 683 875 l 1,0,-1
EndSplineSet
EndChar

StartChar: y.superior
Encoding: 65549 -1 396
Width: 674
GlyphClass: 2
Flags: W
LayerCount: 2
Fore
SplineSet
465 886 m 2,0,1
 413 744 413 744 386.5 697 c 128,-1,2
 360 650 360 650 322 628 c 128,-1,3
 284 606 284 606 193 606 c 0,4,5
 147 606 147 606 110 611 c 1,6,-1
 110 764 l 1,7,8
 128 762 128 762 156 762 c 0,9,10
 192 762 192 762 215.5 775.5 c 128,-1,11
 239 789 239 789 260 857 c 1,12,-1
 17 1518 l 1,13,-1
 235 1518 l 1,14,-1
 337 1157 l 1,15,-1
 356 1076 l 1,16,-1
 360 1076 l 1,17,-1
 378 1157 l 1,18,-1
 477 1518 l 1,19,-1
 686 1518 l 1,20,-1
 465 886 l 2,0,1
EndSplineSet
EndChar

StartChar: z.superior
Encoding: 65550 -1 397
Width: 642
GlyphClass: 2
Flags: W
LayerCount: 2
Fore
SplineSet
612 1034 m 1,0,-1
 612 875 l 1,1,-1
 27 875 l 1,2,-1
 27 1007 l 1,3,-1
 338 1362 l 1,4,-1
 338 1365 l 1,5,-1
 267 1362 l 1,6,-1
 50 1362 l 1,7,-1
 50 1518 l 1,8,-1
 601 1518 l 1,9,-1
 601 1379 l 1,10,-1
 293 1034 l 1,11,-1
 293 1031 l 1,12,-1
 376 1034 l 1,13,-1
 612 1034 l 1,0,-1
EndSplineSet
EndChar

StartChar: commasuperior
Encoding: 63202 63202 398
Width: 366
GlyphClass: 2
Flags: W
LayerCount: 2
Fore
SplineSet
288 899 m 2,0,1
 288 714 288 714 78 667 c 1,2,-1
 77 667 l 1,3,-1
 77 751 l 1,4,5
 174 775 174 775 179 875 c 1,6,-1
 77 875 l 1,7,-1
 77 1071 l 1,8,-1
 288 1071 l 1,9,-1
 288 899 l 2,0,1
EndSplineSet
EndChar

StartChar: periodsuperior
Encoding: 63208 63208 399
Width: 366
GlyphClass: 2
Flags: W
LayerCount: 2
Fore
SplineSet
288 875 m 1,0,-1
 77 875 l 1,1,-1
 77 1071 l 1,2,-1
 288 1071 l 1,3,-1
 288 875 l 1,0,-1
EndSplineSet
EndChar

StartChar: hyphensuperior
Encoding: 63206 63206 400
Width: 432
GlyphClass: 2
Flags: W
LayerCount: 2
Fore
SplineSet
400 1135 m 1,0,-1
 32 1135 l 1,1,-1
 32 1312 l 1,2,-1
 400 1312 l 1,3,-1
 400 1135 l 1,0,-1
EndSplineSet
EndChar

StartChar: comma
Encoding: 44 44 401
Width: 569
GlyphClass: 2
Flags: W
LayerCount: 2
Fore
SplineSet
438 41 m 2,0,1
 438 -284 438 -284 133 -344 c 1,2,-1
 131 -344 l 1,3,-1
 131 -236 l 1,4,5
 295 -191 295 -191 303 0 c 1,6,-1
 131 0 l 1,7,-1
 131 299 l 1,8,-1
 438 299 l 1,9,-1
 438 41 l 2,0,1
EndSplineSet
EndChar

StartChar: period
Encoding: 46 46 404
Width: 569
GlyphClass: 2
Flags: W
LayerCount: 2
Fore
SplineSet
438 0 m 1,0,-1
 131 0 l 1,1,-1
 131 299 l 1,2,-1
 438 299 l 1,3,-1
 438 0 l 1,0,-1
EndSplineSet
EndChar

StartChar: hyphen
Encoding: 45 45 406
AltUni2: 0000ad.ffffffff.0
Width: 682
GlyphClass: 2
Flags: W
LayerCount: 2
Fore
SplineSet
627 440 m 1,0,-1
 55 440 l 1,1,-1
 55 707 l 1,2,-1
 627 707 l 1,3,-1
 627 440 l 1,0,-1
EndSplineSet
EndChar

StartChar: exclam
Encoding: 33 33 408
Width: 681
GlyphClass: 2
Flags: W
LayerCount: 2
Fore
SplineSet
503 0 m 1,0,-1
 204 0 l 1,1,-1
 204 289 l 1,2,-1
 503 289 l 1,3,-1
 503 0 l 1,0,-1
429 408 m 1,4,-1
 277 408 l 1,5,-1
 195 1096 l 1,6,-1
 195 1470 l 1,7,-1
 511 1470 l 1,8,-1
 511 1096 l 1,9,-1
 429 408 l 1,4,-1
EndSplineSet
EndChar

StartChar: exclamdown
Encoding: 161 161 409
Width: 681
GlyphClass: 2
Flags: W
LayerCount: 2
Fore
SplineSet
179 1090 m 1,0,-1
 478 1090 l 1,1,-1
 478 801 l 1,2,-1
 179 801 l 1,3,-1
 179 1090 l 1,0,-1
252 682 m 1,4,-1
 404 682 l 1,5,-1
 486 -6 l 1,6,-1
 486 -381 l 1,7,-1
 170 -381 l 1,8,-1
 170 -6 l 1,9,-1
 252 682 l 1,4,-1
EndSplineSet
EndChar

StartChar: question
Encoding: 63 63 412
Width: 1236
GlyphClass: 2
Flags: W
LayerCount: 2
Fore
SplineSet
783 0 m 1,0,-1
 484 0 l 1,1,-1
 484 289 l 1,2,-1
 783 289 l 1,3,-1
 783 0 l 1,0,-1
495 426 m 1,4,5
 485 548 485 548 519 642.5 c 128,-1,6
 553 737 553 737 702 842 c 0,7,8
 828 930 828 930 828 1044 c 0,9,10
 828 1141 828 1141 773.5 1194 c 128,-1,11
 719 1247 719 1247 630 1247 c 0,12,13
 526 1247 526 1247 472 1187.5 c 128,-1,14
 418 1128 418 1128 409 1012 c 1,15,-1
 409 1010 l 1,16,-1
 120 1010 l 1,17,18
 120 1242 120 1242 270 1365.5 c 128,-1,19
 420 1489 420 1489 631 1489 c 0,20,21
 856 1489 856 1489 996 1377 c 128,-1,22
 1136 1265 1136 1265 1136 1053 c 0,23,24
 1136 963 1136 963 1093.5 878.5 c 128,-1,25
 1051 794 1051 794 888 676 c 0,26,27
 807 617 807 617 785 567.5 c 128,-1,28
 763 518 763 518 763 426 c 1,29,-1
 495 426 l 1,4,5
EndSplineSet
EndChar

StartChar: questiondown
Encoding: 191 191 413
Width: 1235
GlyphClass: 2
Flags: W
LayerCount: 2
Fore
SplineSet
452 1090 m 1,0,-1
 751 1090 l 1,1,-1
 751 801 l 1,2,-1
 452 801 l 1,3,-1
 452 1090 l 1,0,-1
740 664 m 1,4,5
 750 542 750 542 716 447.5 c 128,-1,6
 682 353 682 353 533 248 c 0,7,8
 407 160 407 160 407 46 c 0,9,10
 407 -51 407 -51 461.5 -104 c 128,-1,11
 516 -157 516 -157 605 -157 c 0,12,13
 709 -157 709 -157 763 -97.5 c 128,-1,14
 817 -38 817 -38 826 78 c 1,15,-1
 826 80 l 1,16,-1
 1115 80 l 1,17,18
 1115 -152 1115 -152 965 -275.5 c 128,-1,19
 815 -399 815 -399 604 -399 c 0,20,21
 379 -399 379 -399 239 -287 c 128,-1,22
 99 -175 99 -175 99 37 c 0,23,24
 99 127 99 127 141.5 211.5 c 128,-1,25
 184 296 184 296 347 414 c 0,26,27
 428 473 428 473 450 522.5 c 128,-1,28
 472 572 472 572 472 664 c 1,29,-1
 740 664 l 1,4,5
EndSplineSet
EndChar

StartChar: quoteleft
Encoding: 8216 8216 415
Width: 527
GlyphClass: 2
Flags: W
LayerCount: 2
Fore
SplineSet
130 1141 m 2,0,1
 129 1429 129 1429 411 1489 c 1,2,-1
 411 1384 l 1,3,4
 260 1343 260 1343 260 1190 c 1,5,-1
 417 1190 l 1,6,-1
 417 930 l 1,7,-1
 130 930 l 1,8,-1
 130 1141 l 2,0,1
EndSplineSet
EndChar

StartChar: quoteright
Encoding: 8217 8217 416
Width: 527
GlyphClass: 2
Flags: W
LayerCount: 2
Fore
SplineSet
397 1259 m 2,0,1
 398 971 398 971 116 911 c 1,2,-1
 116 1016 l 1,3,4
 267 1057 267 1057 267 1210 c 1,5,-1
 110 1210 l 1,6,-1
 110 1470 l 1,7,-1
 397 1470 l 1,8,-1
 397 1259 l 2,0,1
EndSplineSet
EndChar

StartChar: guilsinglleft
Encoding: 8249 8249 421
Width: 682
GlyphClass: 2
Flags: W
LayerCount: 2
Fore
SplineSet
512 754 m 1,0,-1
 307 573 l 1,1,-1
 512 393 l 1,2,-1
 512 156 l 1,3,-1
 170 451 l 1,4,-1
 170 696 l 1,5,-1
 512 991 l 1,6,-1
 512 754 l 1,0,-1
EndSplineSet
EndChar

StartChar: guilsinglright
Encoding: 8250 8250 422
Width: 682
GlyphClass: 2
Flags: W
LayerCount: 2
Fore
SplineSet
170 754 m 1,0,-1
 170 991 l 1,1,-1
 512 696 l 1,2,-1
 512 451 l 1,3,-1
 170 156 l 1,4,-1
 170 393 l 1,5,-1
 375 573 l 1,6,-1
 170 754 l 1,0,-1
EndSplineSet
EndChar

StartChar: slash
Encoding: 47 47 429
Width: 625
GlyphClass: 2
Flags: W
LayerCount: 2
Fore
SplineSet
200 -49 m 1,0,-1
 -40 -49 l 1,1,-1
 425 1509 l 1,2,-1
 665 1509 l 1,3,-1
 200 -49 l 1,0,-1
EndSplineSet
EndChar

StartChar: bar
Encoding: 124 124 430
Width: 589
GlyphClass: 2
Flags: W
LayerCount: 2
Fore
SplineSet
180 1509 m 1,0,-1
 409 1509 l 1,1,-1
 409 -39 l 1,2,-1
 180 -39 l 1,3,-1
 180 1509 l 1,0,-1
EndSplineSet
EndChar

StartChar: endash
Encoding: 8211 8211 431
Width: 1024
GlyphClass: 2
Flags: W
LayerCount: 2
Fore
SplineSet
1024 465 m 1,0,-1
 0 465 l 1,1,-1
 0 682 l 1,2,-1
 1024 682 l 1,3,-1
 1024 465 l 1,0,-1
EndSplineSet
EndChar

StartChar: threequartersemdash
Encoding: 63198 63198 433
Width: 1536
GlyphClass: 2
Flags: W
LayerCount: 2
Fore
SplineSet
1536 465 m 1,0,-1
 0 465 l 1,1,-1
 0 682 l 1,2,-1
 1536 682 l 1,3,-1
 1536 465 l 1,0,-1
EndSplineSet
EndChar

StartChar: emdash
Encoding: 8212 8212 435
Width: 2048
GlyphClass: 2
Flags: W
LayerCount: 2
Fore
SplineSet
2048 465 m 1,0,-1
 0 465 l 1,1,-1
 0 682 l 1,2,-1
 2048 682 l 1,3,-1
 2048 465 l 1,0,-1
EndSplineSet
EndChar

StartChar: uni2015
Encoding: 8213 8213 437
Width: 1648
GlyphClass: 2
Flags: W
LayerCount: 2
Fore
SplineSet
1598 465 m 1,0,-1
 50 465 l 1,1,-1
 50 682 l 1,2,-1
 1598 682 l 1,3,-1
 1598 465 l 1,0,-1
EndSplineSet
EndChar

StartChar: bullet
Encoding: 8226 8226 439
Width: 800
GlyphClass: 2
Flags: W
LayerCount: 2
Fore
SplineSet
722 735 m 256,0,1
 722 598 722 598 628.5 506 c 128,-1,2
 535 414 535 414 398 414 c 256,3,4
 261 414 261 414 169 505.5 c 128,-1,5
 77 597 77 597 77 735 c 0,6,7
 77 872 77 872 168.5 965.5 c 128,-1,8
 260 1059 260 1059 398 1059 c 0,9,10
 535 1059 535 1059 628.5 965.5 c 128,-1,11
 722 872 722 872 722 735 c 256,0,1
EndSplineSet
EndChar

StartChar: parenleft
Encoding: 40 40 442
Width: 781
GlyphClass: 2
Flags: W
LayerCount: 2
Fore
SplineSet
480 -426 m 1,0,1
 120 27 120 27 120 535 c 256,2,3
 120 1043 120 1043 480 1503 c 1,4,-1
 691 1503 l 1,5,6
 415 1067 415 1067 415 535 c 256,7,8
 415 3 415 3 691 -426 c 1,9,-1
 480 -426 l 1,0,1
EndSplineSet
EndChar

StartChar: parenright
Encoding: 41 41 443
Width: 761
GlyphClass: 2
Flags: W
LayerCount: 2
Fore
SplineSet
70 -426 m 1,0,1
 346 3 346 3 346 535 c 256,2,3
 346 1067 346 1067 70 1503 c 1,4,-1
 281 1503 l 1,5,6
 641 1043 641 1043 641 535 c 256,7,8
 641 27 641 27 281 -426 c 1,9,-1
 70 -426 l 1,0,1
EndSplineSet
EndChar

StartChar: bracketleft
Encoding: 91 91 446
Width: 679
GlyphClass: 2
Flags: W
LayerCount: 2
Fore
SplineSet
370 -205 m 1,0,-1
 624 -205 l 1,1,-1
 624 -401 l 1,2,-1
 120 -401 l 1,3,-1
 120 1479 l 1,4,-1
 624 1479 l 1,5,-1
 624 1282 l 1,6,-1
 370 1282 l 1,7,-1
 370 -205 l 1,0,-1
EndSplineSet
EndChar

StartChar: bracketright
Encoding: 93 93 447
Width: 679
GlyphClass: 2
Flags: W
LayerCount: 2
Fore
SplineSet
309 1282 m 1,0,-1
 55 1282 l 1,1,-1
 55 1479 l 1,2,-1
 559 1479 l 1,3,-1
 559 -401 l 1,4,-1
 55 -401 l 1,5,-1
 55 -205 l 1,6,-1
 309 -205 l 1,7,-1
 309 1282 l 1,0,-1
EndSplineSet
EndChar

StartChar: braceleft
Encoding: 123 123 450
Width: 810
GlyphClass: 2
Flags: W
LayerCount: 2
Fore
SplineSet
730 -401 m 1,0,-1
 560 -401 l 2,1,2
 449 -401 449 -401 361 -326 c 128,-1,3
 273 -251 273 -251 273 -121 c 2,4,-1
 273 289 l 2,5,6
 273 366 273 366 213.5 405 c 128,-1,7
 154 444 154 444 80 444 c 1,8,-1
 80 633 l 1,9,10
 154 633 154 633 213.5 673.5 c 128,-1,11
 273 714 273 714 273 788 c 2,12,-1
 273 1198 l 2,13,14
 273 1330 273 1330 361 1404.5 c 128,-1,15
 449 1479 449 1479 560 1479 c 2,16,-1
 730 1479 l 1,17,-1
 730 1298 l 1,18,-1
 637 1298 l 2,19,20
 580 1298 580 1298 551.5 1268 c 128,-1,21
 523 1238 523 1238 523 1173 c 2,22,-1
 523 762 l 1,23,24
 497 569 497 569 289 541 c 1,25,-1
 289 537 l 1,26,27
 497 506 497 506 523 315 c 1,28,-1
 523 -96 l 2,29,30
 523 -158 523 -158 551 -189.5 c 128,-1,31
 579 -221 579 -221 637 -221 c 2,32,-1
 730 -221 l 1,33,-1
 730 -401 l 1,0,-1
EndSplineSet
EndChar

StartChar: braceright
Encoding: 125 125 451
Width: 809
GlyphClass: 2
Flags: W
LayerCount: 2
Fore
SplineSet
80 -221 m 1,0,-1
 173 -221 l 2,1,2
 231 -221 231 -221 259 -189.5 c 128,-1,3
 287 -158 287 -158 287 -96 c 2,4,-1
 287 315 l 1,5,6
 313 506 313 506 521 537 c 1,7,-1
 521 541 l 1,8,9
 313 569 313 569 287 762 c 1,10,-1
 287 1173 l 2,11,12
 287 1238 287 1238 258.5 1268 c 128,-1,13
 230 1298 230 1298 173 1298 c 2,14,-1
 80 1298 l 1,15,-1
 80 1479 l 1,16,-1
 250 1479 l 2,17,18
 361 1479 361 1479 449 1404.5 c 128,-1,19
 537 1330 537 1330 537 1198 c 2,20,-1
 537 788 l 2,21,22
 537 714 537 714 596.5 673.5 c 128,-1,23
 656 633 656 633 730 633 c 1,24,-1
 730 444 l 1,25,26
 656 444 656 444 596.5 405 c 128,-1,27
 537 366 537 366 537 289 c 2,28,-1
 537 -121 l 2,29,30
 537 -251 537 -251 449 -326 c 128,-1,31
 361 -401 361 -401 250 -401 c 2,32,-1
 80 -401 l 1,33,-1
 80 -221 l 1,0,-1
EndSplineSet
EndChar

StartChar: asterisk
Encoding: 42 42 454
Width: 786
GlyphClass: 2
Flags: W
LayerCount: 2
Fore
SplineSet
736 1147 m 1,0,-1
 521 1081 l 1,1,-1
 663 883 l 1,2,-1
 534 793 l 1,3,-1
 394 979 l 1,4,-1
 253 793 l 1,5,-1
 124 883 l 1,6,-1
 263 1081 l 1,7,-1
 50 1147 l 1,8,-1
 97 1296 l 1,9,-1
 306 1227 l 1,10,-1
 306 1470 l 1,11,-1
 480 1470 l 1,12,-1
 480 1227 l 1,13,-1
 687 1296 l 1,14,-1
 736 1147 l 1,0,-1
EndSplineSet
EndChar

StartChar: dagger
Encoding: 8224 8224 455
Width: 1151
GlyphClass: 2
Flags: W
LayerCount: 2
Fore
SplineSet
1071 793 m 1,0,-1
 713 793 l 1,1,-1
 713 -350 l 1,2,-1
 438 -350 l 1,3,-1
 438 793 l 1,4,-1
 80 793 l 1,5,-1
 80 1022 l 1,6,-1
 438 1022 l 1,7,-1
 438 1470 l 1,8,-1
 713 1470 l 1,9,-1
 713 1022 l 1,10,-1
 1071 1022 l 1,11,-1
 1071 793 l 1,0,-1
EndSplineSet
EndChar

StartChar: daggerdbl
Encoding: 8225 8225 456
Width: 1151
GlyphClass: 2
Flags: W
LayerCount: 2
Fore
SplineSet
1071 813 m 1,0,-1
 711 813 l 1,1,-1
 711 324 l 1,2,-1
 1071 324 l 1,3,-1
 1071 94 l 1,4,-1
 711 94 l 1,5,-1
 711 -350 l 1,6,-1
 436 -350 l 1,7,-1
 436 94 l 1,8,-1
 80 94 l 1,9,-1
 80 324 l 1,10,-1
 436 324 l 1,11,-1
 436 813 l 1,12,-1
 80 813 l 1,13,-1
 80 1042 l 1,14,-1
 436 1042 l 1,15,-1
 436 1470 l 1,16,-1
 711 1470 l 1,17,-1
 711 1042 l 1,18,-1
 1071 1042 l 1,19,-1
 1071 813 l 1,0,-1
EndSplineSet
EndChar

StartChar: section
Encoding: 167 167 457
Width: 1169
GlyphClass: 2
Flags: W
LayerCount: 2
Fore
SplineSet
414 784 m 1,0,1
 326 745 326 745 326 666 c 0,2,3
 326 618 326 618 352.5 589 c 128,-1,4
 379 560 379 560 421 539 c 2,5,-1
 742 367 l 1,6,7
 830 414 830 414 830 502 c 0,8,9
 830 540 830 540 800.5 572 c 128,-1,10
 771 604 771 604 723 628 c 2,11,-1
 414 784 l 1,0,1
847 878 m 2,12,13
 981 811 981 811 1032.5 733 c 128,-1,14
 1084 655 1084 655 1084 571 c 0,15,16
 1084 488 1084 488 1033 404.5 c 128,-1,17
 982 321 982 321 889 274 c 1,18,19
 1016 170 1016 170 1016 12 c 0,20,21
 1016 -165 1016 -165 890.5 -271 c 128,-1,22
 765 -377 765 -377 566 -377 c 0,23,24
 368 -377 368 -377 256 -260.5 c 128,-1,25
 144 -144 144 -144 144 6 c 1,26,-1
 414 6 l 1,27,28
 419 -72 419 -72 463.5 -116 c 128,-1,29
 508 -160 508 -160 587 -160 c 0,30,31
 667 -160 667 -160 704.5 -116.5 c 128,-1,32
 742 -73 742 -73 742 -21 c 0,33,34
 742 30 742 30 715.5 60 c 128,-1,35
 689 90 689 90 621 125 c 2,36,-1
 308 285 l 2,37,38
 177 352 177 352 131 424.5 c 128,-1,39
 85 497 85 497 85 593 c 0,40,41
 85 690 85 690 127.5 756.5 c 128,-1,42
 170 823 170 823 275 885 c 1,43,44
 169 981 169 981 169 1122 c 0,45,46
 169 1282 169 1282 286 1385.5 c 128,-1,47
 403 1489 403 1489 582 1489 c 0,48,49
 775 1489 775 1489 883 1390 c 128,-1,50
 991 1291 991 1291 996 1114 c 1,51,-1
 736 1114 l 1,52,53
 723 1272 723 1272 576 1272 c 0,54,55
 513 1272 513 1272 471 1238 c 128,-1,56
 429 1204 429 1204 429 1157 c 0,57,58
 429 1123 429 1123 445.5 1096.5 c 128,-1,59
 462 1070 462 1070 507 1049 c 2,60,-1
 847 878 l 2,12,13
EndSplineSet
EndChar

StartChar: paragraph
Encoding: 182 182 458
Width: 1235
GlyphClass: 2
Flags: W
LayerCount: 2
Fore
SplineSet
489 711 m 1,0,1
 268 711 268 711 151.5 807 c 128,-1,2
 35 903 35 903 35 1065 c 0,3,4
 35 1251 35 1251 155 1342.5 c 128,-1,5
 275 1434 275 1434 534 1434 c 2,6,-1
 1155 1434 l 1,7,-1
 1155 -391 l 1,8,-1
 925 -391 l 1,9,-1
 925 1260 l 1,10,-1
 719 1260 l 1,11,-1
 719 -391 l 1,12,-1
 489 -391 l 1,13,-1
 489 711 l 1,0,1
EndSplineSet
EndChar

StartChar: Gamma
Encoding: 915 915 461
Width: 1159
GlyphClass: 2
Flags: W
LayerCount: 2
Fore
SplineSet
457 0 m 1,0,-1
 150 0 l 1,1,-1
 150 1470 l 1,2,-1
 1129 1470 l 1,3,-1
 1129 1207 l 1,4,-1
 457 1207 l 1,5,-1
 457 0 l 1,0,-1
EndSplineSet
EndChar

StartChar: Delta
Encoding: 916 916 462
Width: 1437
GlyphClass: 2
Flags: W
LayerCount: 2
Fore
SplineSet
429 250 m 1,0,-1
 999 250 l 1,1,-1
 720 1139 l 1,2,-1
 716 1139 l 1,3,-1
 429 250 l 1,0,-1
25 0 m 1,4,-1
 551 1470 l 1,5,-1
 892 1470 l 1,6,-1
 1412 0 l 1,7,-1
 25 0 l 1,4,-1
EndSplineSet
EndChar

StartChar: Theta
Encoding: 920 920 466
Width: 1649
GlyphClass: 2
Flags: W
LayerCount: 2
Fore
SplineSet
563 631 m 1,0,-1
 563 885 l 1,1,-1
 1086 885 l 1,2,-1
 1086 631 l 1,3,-1
 563 631 l 1,0,-1
390 735 m 0,4,5
 390 478 390 478 514 348.5 c 128,-1,6
 638 219 638 219 828 219 c 0,7,8
 1019 219 1019 219 1139 352.5 c 128,-1,9
 1259 486 1259 486 1259 735 c 256,10,11
 1259 984 1259 984 1140 1117.5 c 128,-1,12
 1021 1251 1021 1251 824 1251 c 256,13,14
 627 1251 627 1251 508.5 1118 c 128,-1,15
 390 985 390 985 390 735 c 0,4,5
85 735 m 0,16,17
 85 1119 85 1119 295.5 1314 c 128,-1,18
 506 1509 506 1509 822 1509 c 0,19,20
 1135 1509 1135 1509 1349.5 1317 c 128,-1,21
 1564 1125 1564 1125 1564 735 c 0,22,23
 1564 355 1564 355 1356.5 158 c 128,-1,24
 1149 -39 1149 -39 825 -39 c 0,25,26
 507 -39 507 -39 296 154.5 c 128,-1,27
 85 348 85 348 85 735 c 0,16,17
EndSplineSet
EndChar

StartChar: Lambda
Encoding: 923 923 469
Width: 1447
GlyphClass: 2
Flags: W
LayerCount: 2
Fore
SplineSet
349 0 m 1,0,-1
 25 0 l 1,1,-1
 550 1470 l 1,2,-1
 903 1470 l 1,3,-1
 1422 0 l 1,4,-1
 1088 0 l 1,5,-1
 725 1144 l 1,6,-1
 721 1144 l 1,7,-1
 349 0 l 1,0,-1
EndSplineSet
EndChar

StartChar: Xi
Encoding: 926 926 472
Width: 1345
GlyphClass: 2
Flags: W
LayerCount: 2
Fore
SplineSet
182 897 m 1,0,-1
 1163 897 l 1,1,-1
 1163 643 l 1,2,-1
 182 643 l 1,3,-1
 182 897 l 1,0,-1
123 1470 m 1,4,-1
 1223 1470 l 1,5,-1
 1223 1216 l 1,6,-1
 123 1216 l 1,7,-1
 123 1470 l 1,4,-1
90 260 m 1,8,-1
 1255 260 l 1,9,-1
 1255 0 l 1,10,-1
 90 0 l 1,11,-1
 90 260 l 1,8,-1
EndSplineSet
EndChar

StartChar: Pi
Encoding: 928 928 474
Width: 1442
GlyphClass: 2
Flags: W
LayerCount: 2
Fore
SplineSet
458 1216 m 1,0,-1
 458 0 l 1,1,-1
 150 0 l 1,2,-1
 150 1470 l 1,3,-1
 1292 1470 l 1,4,-1
 1292 0 l 1,5,-1
 985 0 l 1,6,-1
 985 1216 l 1,7,-1
 458 1216 l 1,0,-1
EndSplineSet
EndChar

StartChar: Sigma
Encoding: 931 931 476
Width: 1297
GlyphClass: 2
Flags: W
LayerCount: 2
Fore
SplineSet
80 0 m 1,0,-1
 80 219 l 1,1,-1
 598 758 l 1,2,-1
 108 1251 l 1,3,-1
 108 1470 l 1,4,-1
 1200 1470 l 1,5,-1
 1200 1210 l 1,6,-1
 527 1210 l 1,7,-1
 968 766 l 1,8,-1
 968 760 l 1,9,-1
 484 260 l 1,10,-1
 1232 260 l 1,11,-1
 1232 0 l 1,12,-1
 80 0 l 1,0,-1
EndSplineSet
EndChar

StartChar: Upsilon1
Encoding: 978 978 479
Width: 1363
GlyphClass: 2
Flags: W
LayerCount: 2
Fore
SplineSet
835 0 m 1,0,-1
 528 0 l 1,1,-1
 528 348 l 2,2,3
 528 631 528 631 402.5 896.5 c 128,-1,4
 277 1162 277 1162 30 1214 c 1,5,-1
 30 1480 l 1,6,7
 45 1482 45 1482 62 1482 c 0,8,9
 277 1482 277 1482 449.5 1296.5 c 128,-1,10
 622 1111 622 1111 680 832 c 1,11,-1
 687 832 l 1,12,13
 744 1109 744 1109 915.5 1295.5 c 128,-1,14
 1087 1482 1087 1482 1305 1482 c 0,15,16
 1319 1482 1319 1482 1333 1480 c 1,17,-1
 1333 1214 l 1,18,19
 1085 1161 1085 1161 960 896 c 128,-1,20
 835 631 835 631 835 348 c 2,21,-1
 835 0 l 1,0,-1
EndSplineSet
EndChar

StartChar: Phi
Encoding: 934 934 480
Width: 1727
GlyphClass: 2
Flags: W
LayerCount: 2
Fore
SplineSet
722 153 m 1,0,1
 424 162 424 162 242 318 c 128,-1,2
 60 474 60 474 60 741 c 256,3,4
 60 1008 60 1008 242 1165.5 c 128,-1,5
 424 1323 424 1323 722 1332 c 1,6,-1
 722 1509 l 1,7,-1
 1005 1509 l 1,8,-1
 1005 1332 l 1,9,10
 1303 1323 1303 1323 1485 1167 c 128,-1,11
 1667 1011 1667 1011 1667 744 c 256,12,13
 1667 477 1667 477 1485 319.5 c 128,-1,14
 1303 162 1303 162 1005 153 c 1,15,-1
 1005 -30 l 1,16,-1
 722 -30 l 1,17,-1
 722 153 l 1,0,1
999 390 m 1,18,19
 1161 391 1161 391 1263 486.5 c 128,-1,20
 1365 582 1365 582 1365 742 c 256,21,22
 1365 902 1365 902 1263 998 c 128,-1,23
 1161 1094 1161 1094 999 1095 c 1,24,-1
 999 390 l 1,18,19
728 1095 m 1,25,26
 565 1095 565 1095 463.5 999 c 128,-1,27
 362 903 362 903 362 743 c 256,28,29
 362 583 362 583 464 487 c 128,-1,30
 566 391 566 391 728 390 c 1,31,-1
 728 1095 l 1,25,26
EndSplineSet
EndChar

StartChar: Psi
Encoding: 936 936 482
Width: 1834
GlyphClass: 2
Flags: W
LayerCount: 2
Fore
SplineSet
768 317 m 1,0,1
 406 341 406 341 273 477 c 128,-1,2
 140 613 140 613 140 882 c 2,3,-1
 140 1470 l 1,4,-1
 441 1470 l 1,5,-1
 441 877 l 2,6,7
 441 710 441 710 517 641 c 128,-1,8
 593 572 593 572 768 564 c 1,9,-1
 768 1470 l 1,10,-1
 1066 1470 l 1,11,-1
 1066 564 l 1,12,13
 1241 572 1241 572 1317 641 c 128,-1,14
 1393 710 1393 710 1393 877 c 2,15,-1
 1393 1470 l 1,16,-1
 1694 1470 l 1,17,-1
 1694 882 l 2,18,19
 1694 613 1694 613 1561 477 c 128,-1,20
 1428 341 1428 341 1066 317 c 1,21,-1
 1066 0 l 1,22,-1
 768 0 l 1,23,-1
 768 317 l 1,0,1
EndSplineSet
EndChar

StartChar: Omega
Encoding: 937 937 483
Width: 1656
GlyphClass: 2
Flags: W
LayerCount: 2
Fore
SplineSet
1561 0 m 1,0,-1
 968 0 l 1,1,-1
 968 233 l 1,2,3
 1247 459 1247 459 1247 816 c 0,4,5
 1247 1009 1247 1009 1138 1132 c 128,-1,6
 1029 1255 1029 1255 830 1255 c 2,7,-1
 826 1255 l 2,8,9
 631 1255 631 1255 520 1132.5 c 128,-1,10
 409 1010 409 1010 409 816 c 0,11,12
 409 458 409 458 688 233 c 1,13,-1
 688 0 l 1,14,-1
 95 0 l 1,15,-1
 95 254 l 1,16,-1
 301 254 l 1,17,-1
 423 251 l 1,18,-1
 425 262 l 1,19,20
 111 491 111 491 111 860 c 0,21,22
 111 1142 111 1142 310 1325.5 c 128,-1,23
 509 1509 509 1509 828 1509 c 256,24,25
 1147 1509 1147 1509 1346 1326 c 128,-1,26
 1545 1143 1545 1143 1545 860 c 0,27,28
 1545 491 1545 491 1231 262 c 1,29,-1
 1233 251 l 1,30,-1
 1355 254 l 1,31,-1
 1561 254 l 1,32,-1
 1561 0 l 1,0,-1
EndSplineSet
EndChar

StartChar: alpha
Encoding: 945 945 493
Width: 1295
GlyphClass: 2
Flags: W
LayerCount: 2
Fore
SplineSet
865 555 m 0,0,1
 865 686 865 686 799 781.5 c 128,-1,2
 733 877 733 877 617 877 c 0,3,4
 502 877 502 877 439 785.5 c 128,-1,5
 376 694 376 694 376 549 c 256,6,7
 376 404 376 404 442.5 308.5 c 128,-1,8
 509 213 509 213 621 213 c 0,9,10
 734 213 734 213 799.5 321.5 c 128,-1,11
 865 430 865 430 865 555 c 0,0,1
1149 285 m 2,12,13
 1149 240 1149 240 1159 219.5 c 128,-1,14
 1169 199 1169 199 1203 199 c 0,15,16
 1230 199 1230 199 1255 206 c 1,17,-1
 1255 -10 l 1,18,19
 1196 -22 1196 -22 1147 -22 c 0,20,21
 1016 -22 1016 -22 942.5 34 c 128,-1,22
 869 90 869 90 869 195 c 1,23,-1
 863 195 l 1,24,25
 739 -30 739 -30 530 -30 c 256,26,27
 321 -30 321 -30 200.5 131 c 128,-1,28
 80 292 80 292 80 536 c 0,29,30
 80 792 80 792 204 955 c 128,-1,31
 328 1118 328 1118 543 1118 c 0,32,33
 750 1118 750 1118 860 911 c 1,34,-1
 866 911 l 1,35,-1
 866 1090 l 1,36,-1
 1149 1090 l 1,37,-1
 1149 285 l 2,12,13
EndSplineSet
EndChar

StartChar: beta
Encoding: 946 946 494
Width: 1287
GlyphClass: 2
Flags: W
LayerCount: 2
Fore
SplineSet
418 308 m 1,0,1
 513 209 513 209 655 209 c 0,2,3
 778 209 778 209 852 272.5 c 128,-1,4
 926 336 926 336 926 443 c 0,5,6
 926 557 926 557 843.5 617.5 c 128,-1,7
 761 678 761 678 622 678 c 0,8,9
 588 678 588 678 543 671 c 1,10,-1
 543 884 l 1,11,12
 584 880 584 880 616 880 c 0,13,14
 722 880 722 880 781.5 933 c 128,-1,15
 841 986 841 986 841 1083 c 0,16,17
 841 1163 841 1163 784 1217 c 128,-1,18
 727 1271 727 1271 636 1271 c 0,19,20
 525 1271 525 1271 471.5 1203.5 c 128,-1,21
 418 1136 418 1136 418 993 c 2,22,-1
 418 308 l 1,0,1
135 -424 m 1,23,-1
 135 1019 l 2,24,25
 135 1249 135 1249 277 1377.5 c 128,-1,26
 419 1506 419 1506 653 1506 c 0,27,28
 850 1506 850 1506 990 1400.5 c 128,-1,29
 1130 1295 1130 1295 1130 1127 c 0,30,31
 1130 900 1130 900 894 802 c 1,32,-1
 894 800 l 1,33,34
 1050 767 1050 767 1136 669.5 c 128,-1,35
 1222 572 1222 572 1222 428 c 0,36,37
 1222 232 1222 232 1081.5 100.5 c 128,-1,38
 941 -31 941 -31 735 -31 c 0,39,40
 544 -31 544 -31 419 76 c 1,41,-1
 419 -424 l 1,42,-1
 135 -424 l 1,23,-1
EndSplineSet
EndChar

StartChar: gamma
Encoding: 947 947 495
Width: 1273
GlyphClass: 2
Flags: W
LayerCount: 2
Fore
SplineSet
1188 1090 m 1,0,1
 1118 503 1118 503 751 -24 c 1,2,-1
 742 -424 l 1,3,-1
 453 -424 l 1,4,5
 467 -196 467 -196 467 -69 c 0,6,7
 467 74 467 74 417 266.5 c 128,-1,8
 367 459 367 459 293 619 c 0,9,10
 219 780 219 780 171 831.5 c 128,-1,11
 123 883 123 883 66 883 c 0,12,13
 46 883 46 883 25 877 c 1,14,-1
 25 1087 l 1,15,16
 99 1109 99 1109 151 1109 c 0,17,18
 288 1109 288 1109 371 1008 c 0,19,20
 559 779 559 779 679 268 c 1,21,-1
 685 268 l 1,22,23
 856 636 856 636 897 1090 c 1,24,-1
 1188 1090 l 1,0,1
EndSplineSet
EndChar

StartChar: delta
Encoding: 948 948 496
Width: 1261
GlyphClass: 2
Flags: W
LayerCount: 2
Fore
SplineSet
883 490 m 0,0,1
 883 677 883 677 633 830 c 1,2,3
 370 719 370 719 370 498 c 0,4,5
 370 374 370 374 442.5 293.5 c 128,-1,6
 515 213 515 213 625 213 c 0,7,8
 739 213 739 213 811 294.5 c 128,-1,9
 883 376 883 376 883 490 c 0,0,1
1075 1233 m 1,10,11
 869 1284 869 1284 697 1284 c 0,12,13
 610 1284 610 1284 575 1269.5 c 128,-1,14
 540 1255 540 1255 540 1226 c 256,15,16
 540 1197 540 1197 576.5 1166.5 c 128,-1,17
 613 1136 613 1136 787 1038 c 0,18,19
 995 922 995 922 1090.5 796.5 c 128,-1,20
 1186 671 1186 671 1186 513 c 0,21,22
 1186 274 1186 274 1023.5 122 c 128,-1,23
 861 -30 861 -30 621 -30 c 0,24,25
 395 -30 395 -30 235 112 c 128,-1,26
 75 254 75 254 75 480 c 0,27,28
 75 808 75 808 419 973 c 1,29,30
 241 1095 241 1095 241 1234 c 256,31,32
 241 1373 241 1373 363 1443 c 128,-1,33
 485 1513 485 1513 711 1513 c 0,34,35
 903 1513 903 1513 1075 1479 c 1,36,-1
 1075 1233 l 1,10,11
EndSplineSet
EndChar

StartChar: epsilon
Encoding: 949 949 497
Width: 1193
GlyphClass: 2
Flags: W
LayerCount: 2
Fore
SplineSet
767 461 m 1,0,1
 715 467 715 467 622 467 c 0,2,3
 494 467 494 467 439 433 c 128,-1,4
 384 399 384 399 384 334 c 0,5,6
 384 259 384 259 446 217.5 c 128,-1,7
 508 176 508 176 609 176 c 256,8,9
 710 176 710 176 772.5 220 c 128,-1,10
 835 264 835 264 839 339 c 1,11,-1
 1123 339 l 1,12,13
 1118 149 1118 149 970.5 55 c 128,-1,14
 823 -39 823 -39 594 -39 c 0,15,16
 370 -39 370 -39 227.5 50.5 c 128,-1,17
 85 140 85 140 85 306 c 0,18,19
 85 495 85 495 284 571 c 1,20,-1
 284 576 l 1,21,22
 126 663 126 663 126 808 c 0,23,24
 126 947 126 947 256.5 1032.5 c 128,-1,25
 387 1118 387 1118 607 1118 c 0,26,27
 811 1118 811 1118 946 1036.5 c 128,-1,28
 1081 955 1081 955 1097 795 c 1,29,-1
 814 795 l 1,30,31
 793 907 793 907 615 907 c 0,32,33
 526 907 526 907 470.5 873 c 128,-1,34
 415 839 415 839 415 774 c 0,35,36
 415 717 415 717 463 687.5 c 128,-1,37
 511 658 511 658 631 658 c 0,38,39
 713 658 713 658 767 660 c 1,40,-1
 767 461 l 1,0,1
EndSplineSet
EndChar

StartChar: zeta
Encoding: 950 950 498
Width: 1065
GlyphClass: 2
Flags: W
LayerCount: 2
Fore
SplineSet
989 1266 m 1,0,1
 375 938 375 938 375 520 c 0,2,3
 375 385 375 385 442 318 c 128,-1,4
 509 251 509 251 683 221 c 0,5,6
 742 211 742 211 798.5 199 c 128,-1,7
 855 187 855 187 899.5 161.5 c 128,-1,8
 944 136 944 136 971 90 c 128,-1,9
 998 44 998 44 998 -35 c 0,10,11
 998 -178 998 -178 902 -401 c 1,12,-1
 672 -401 l 1,13,14
 742 -234 742 -234 742 -123 c 0,15,16
 742 -91 742 -91 729.5 -71 c 128,-1,17
 717 -51 717 -51 692 -38.5 c 128,-1,18
 667 -26 667 -26 630 -18.5 c 128,-1,19
 593 -11 593 -11 544 -4 c 0,20,21
 288 34 288 34 181 142.5 c 128,-1,22
 74 251 74 251 74 449 c 0,23,24
 74 899 74 899 631 1239 c 1,25,-1
 631 1247 l 1,26,-1
 492 1243 l 1,27,-1
 168 1243 l 1,28,-1
 168 1470 l 1,29,-1
 989 1470 l 1,30,-1
 989 1266 l 1,0,1
EndSplineSet
EndChar

StartChar: eta
Encoding: 951 951 499
Width: 1274
GlyphClass: 2
Flags: W
LayerCount: 2
Fore
SplineSet
438 933 m 1,0,1
 547 1118 547 1118 765 1118 c 0,2,3
 938 1118 938 1118 1041 1018.5 c 128,-1,4
 1144 919 1144 919 1144 754 c 2,5,-1
 1144 -424 l 1,6,-1
 857 -424 l 1,7,-1
 857 667 l 2,8,9
 857 783 857 783 811.5 830 c 128,-1,10
 766 877 766 877 671 877 c 0,11,12
 564 877 564 877 505 807.5 c 128,-1,13
 446 738 446 738 446 625 c 2,14,-1
 446 0 l 1,15,-1
 159 0 l 1,16,-1
 159 760 l 2,17,18
 159 835 159 835 140.5 858 c 128,-1,19
 122 881 122 881 76 881 c 0,20,21
 62 881 62 881 40 876 c 1,22,-1
 40 1091 l 1,23,24
 81 1105 81 1105 147 1105 c 0,25,26
 377 1105 377 1105 433 933 c 1,27,-1
 438 933 l 1,0,1
EndSplineSet
EndChar

StartChar: theta
Encoding: 952 952 500
Width: 1268
GlyphClass: 2
Flags: W
LayerCount: 2
Fore
SplineSet
892 858 m 1,0,1
 885 1050 885 1050 822 1168.5 c 128,-1,2
 759 1287 759 1287 633 1287 c 256,3,4
 507 1287 507 1287 444.5 1168.5 c 128,-1,5
 382 1050 382 1050 375 858 c 1,6,-1
 892 858 l 1,0,1
375 658 m 1,7,8
 379 441 379 441 443 317 c 128,-1,9
 507 193 507 193 634 193 c 0,10,11
 758 193 758 193 823 316.5 c 128,-1,12
 888 440 888 440 893 658 c 1,13,-1
 375 658 l 1,7,8
81 741 m 256,14,15
 81 1119 81 1119 227 1314 c 128,-1,16
 373 1509 373 1509 631 1509 c 0,17,18
 890 1509 890 1509 1034.5 1314.5 c 128,-1,19
 1179 1120 1179 1120 1179 741 c 0,20,21
 1179 372 1179 372 1037 171 c 128,-1,22
 895 -30 895 -30 629 -30 c 0,23,24
 370 -30 370 -30 225.5 166.5 c 128,-1,25
 81 363 81 363 81 741 c 256,14,15
EndSplineSet
EndChar

StartChar: theta1
Encoding: 977 977 501
Width: 1298
GlyphClass: 2
Flags: W
LayerCount: 2
Fore
SplineSet
880 883 m 1,0,1
 864 1270 864 1270 629 1270 c 0,2,3
 527 1270 527 1270 465 1216 c 128,-1,4
 403 1162 403 1162 403 1078 c 0,5,6
 403 972 403 972 485.5 926 c 128,-1,7
 568 880 568 880 744 880 c 0,8,9
 808 880 808 880 880 883 c 1,0,1
385 539 m 1,10,-1
 385 512 l 2,11,12
 386 365 386 365 443.5 282 c 128,-1,13
 501 199 501 199 629 199 c 0,14,15
 758 199 758 199 820 303 c 128,-1,16
 882 407 882 407 883 642 c 1,17,18
 835 640 835 640 782 640 c 0,19,20
 452 640 452 640 285 750 c 128,-1,21
 118 860 118 860 118 1067 c 0,22,23
 118 1259 118 1259 255.5 1384 c 128,-1,24
 393 1509 393 1509 627 1509 c 0,25,26
 878 1509 878 1509 1013 1353 c 128,-1,27
 1148 1197 1148 1197 1170 908 c 1,28,29
 1216 912 1216 912 1263 920 c 1,30,-1
 1263 684 l 1,31,32
 1226 675 1226 675 1178 669 c 1,33,34
 1178 334 1178 334 1039 147 c 128,-1,35
 900 -40 900 -40 622 -40 c 0,36,37
 371 -40 371 -40 229 105 c 128,-1,38
 87 250 87 250 87 506 c 0,39,40
 87 525 87 525 89 539 c 1,41,-1
 385 539 l 1,10,-1
EndSplineSet
EndChar

StartChar: iota
Encoding: 953 953 502
Width: 599
GlyphClass: 2
Flags: W
LayerCount: 2
Fore
SplineSet
427 1090 m 1,0,-1
 427 308 l 2,1,2
 427 254 427 254 443 226.5 c 128,-1,3
 459 199 459 199 512 199 c 0,4,5
 543 199 543 199 579 208 c 1,6,-1
 579 -10 l 1,7,8
 513 -23 513 -23 446 -23 c 0,9,10
 350 -23 350 -23 287.5 -4 c 128,-1,11
 225 15 225 15 192 50.5 c 128,-1,12
 159 86 159 86 149.5 136.5 c 128,-1,13
 140 187 140 187 140 250 c 2,14,-1
 140 1090 l 1,15,-1
 427 1090 l 1,0,-1
EndSplineSet
EndChar

StartChar: kappa
Encoding: 954 954 503
Width: 1204
GlyphClass: 2
Flags: W
LayerCount: 2
Fore
SplineSet
522 428 m 1,0,-1
 427 330 l 1,1,-1
 427 0 l 1,2,-1
 140 0 l 1,3,-1
 140 1090 l 1,4,-1
 427 1090 l 1,5,-1
 427 617 l 1,6,-1
 744 960 l 2,7,8
 829 1053 829 1053 890.5 1080.5 c 128,-1,9
 952 1108 952 1108 1044 1108 c 0,10,11
 1101 1108 1101 1108 1149 1100 c 1,12,-1
 1149 870 l 1,13,14
 1106 877 1106 877 1080 877 c 0,15,16
 1021 877 1021 877 976.5 860 c 128,-1,17
 932 843 932 843 846 757 c 2,18,-1
 710 621 l 1,19,-1
 1204 0 l 1,20,-1
 854 0 l 1,21,-1
 522 428 l 1,0,-1
EndSplineSet
EndChar

StartChar: lambda
Encoding: 955 955 504
Width: 1226
GlyphClass: 2
Flags: W
LayerCount: 2
Fore
SplineSet
30 0 m 1,0,-1
 491 1055 l 1,1,-1
 445 1190 l 2,2,3
 430 1234 430 1234 395 1253.5 c 128,-1,4
 360 1273 360 1273 290 1273 c 0,5,6
 235 1273 235 1273 184 1263 c 1,7,-1
 184 1484 l 1,8,9
 276 1502 276 1502 381 1502 c 0,10,11
 513 1502 513 1502 579.5 1448 c 128,-1,12
 646 1394 646 1394 686 1281 c 2,13,-1
 768 1053 l 1,14,-1
 1040 293 l 2,15,16
 1061 235 1061 235 1083.5 217 c 128,-1,17
 1106 199 1106 199 1143 199 c 0,18,19
 1171 199 1171 199 1206 209 c 1,20,-1
 1206 -11 l 1,21,22
 1142 -24 1142 -24 1081 -24 c 0,23,24
 965 -24 965 -24 897.5 17.5 c 128,-1,25
 830 59 830 59 788 183 c 2,26,-1
 611 707 l 1,27,-1
 607 707 l 1,28,-1
 329 0 l 1,29,-1
 30 0 l 1,0,-1
EndSplineSet
EndChar

StartChar: mu
Encoding: 956 956 505
Width: 1279
GlyphClass: 2
Flags: W
LayerCount: 2
Fore
SplineSet
427 1090 m 1,0,-1
 427 438 l 2,1,2
 427 339 427 339 483 278 c 128,-1,3
 539 217 539 217 631 217 c 0,4,5
 729 217 729 217 783.5 278 c 128,-1,6
 838 339 838 339 838 451 c 2,7,-1
 838 1090 l 1,8,-1
 1125 1090 l 1,9,-1
 1125 324 l 2,10,11
 1125 250 1125 250 1142 224.5 c 128,-1,12
 1159 199 1159 199 1198 199 c 0,13,14
 1224 199 1224 199 1249 203 c 1,15,-1
 1249 -4 l 1,16,17
 1202 -18 1202 -18 1140 -18 c 0,18,19
 896 -18 896 -18 854 120 c 1,20,-1
 850 121 l 1,21,22
 820 53 820 53 758.5 12 c 128,-1,23
 697 -29 697 -29 629 -29 c 0,24,25
 494 -29 494 -29 431 98 c 1,26,-1
 427 98 l 1,27,-1
 427 -424 l 1,28,-1
 140 -424 l 1,29,-1
 140 1090 l 1,30,-1
 427 1090 l 1,0,-1
EndSplineSet
EndChar

StartChar: nu
Encoding: 957 957 506
Width: 1212
GlyphClass: 2
Flags: W
LayerCount: 2
Fore
SplineSet
1142 1090 m 1,0,1
 1096 625 1096 625 742 0 c 1,2,-1
 462 0 l 1,3,-1
 177 789 l 2,4,5
 159 840 159 840 133 860 c 128,-1,6
 107 880 107 880 61 880 c 0,7,8
 46 880 46 880 25 875 c 1,9,-1
 25 1087 l 1,10,11
 105 1105 105 1105 169 1105 c 0,12,13
 282 1105 282 1105 351 1057 c 128,-1,14
 420 1009 420 1009 448 906 c 2,15,-1
 621 281 l 1,16,-1
 626 281 l 1,17,18
 805 687 805 687 837 1090 c 1,19,-1
 1142 1090 l 1,0,1
EndSplineSet
EndChar

StartChar: xi
Encoding: 958 958 507
Width: 1095
GlyphClass: 2
Flags: W
LayerCount: 2
Fore
SplineSet
1026 1253 m 1,0,1
 911 1261 911 1261 809 1261 c 0,2,3
 625 1261 625 1261 530 1212.5 c 128,-1,4
 435 1164 435 1164 435 1066 c 0,5,6
 435 969 435 969 521 921 c 128,-1,7
 607 873 607 873 776 873 c 0,8,9
 832 873 832 873 906 878 c 1,10,-1
 906 659 l 1,11,12
 833 667 833 667 767 667 c 0,13,14
 558 667 558 667 463 611.5 c 128,-1,15
 368 556 368 556 368 443 c 0,16,17
 368 361 368 361 424 308 c 128,-1,18
 480 255 480 255 677 230 c 0,19,20
 765 219 765 219 829 206.5 c 128,-1,21
 893 194 893 194 943 167 c 128,-1,22
 993 140 993 140 1024 92 c 128,-1,23
 1055 44 1055 44 1055 -35 c 0,24,25
 1055 -175 1055 -175 959 -401 c 1,26,-1
 729 -401 l 1,27,28
 799 -233 799 -233 799 -123 c 0,29,30
 799 -83 799 -83 781.5 -62 c 128,-1,31
 764 -41 764 -41 724.5 -28.5 c 128,-1,32
 685 -16 685 -16 621 -7 c 128,-1,33
 557 2 557 2 464 18 c 0,34,35
 277 50 277 50 173.5 145.5 c 128,-1,36
 70 241 70 241 70 401 c 0,37,38
 70 686 70 686 397 778 c 1,39,-1
 397 783 l 1,40,41
 149 837 149 837 149 1022 c 0,42,43
 149 1101 149 1101 199 1165 c 128,-1,44
 249 1229 249 1229 327 1260 c 1,45,-1
 327 1267 l 1,46,-1
 135 1258 l 1,47,-1
 135 1470 l 1,48,-1
 1026 1470 l 1,49,-1
 1026 1253 l 1,0,1
EndSplineSet
EndChar

StartChar: pi
Encoding: 960 960 509
Width: 1388
GlyphClass: 2
Flags: W
LayerCount: 2
Fore
SplineSet
30 1090 m 1,0,-1
 1338 1090 l 1,1,-1
 1338 855 l 1,2,-1
 1159 855 l 1,3,-1
 1159 308 l 2,4,5
 1159 243 1159 243 1181.5 221 c 128,-1,6
 1204 199 1204 199 1245 199 c 0,7,8
 1277 199 1277 199 1312 208 c 1,9,-1
 1312 -10 l 1,10,11
 1249 -23 1249 -23 1190 -23 c 0,12,13
 1030 -23 1030 -23 951 29 c 128,-1,14
 872 81 872 81 872 229 c 2,15,-1
 872 855 l 1,16,-1
 494 855 l 1,17,-1
 494 0 l 1,18,-1
 207 0 l 1,19,-1
 207 855 l 1,20,-1
 30 855 l 1,21,-1
 30 1090 l 1,0,-1
EndSplineSet
EndChar

StartChar: rho
Encoding: 961 961 510
Width: 1267
GlyphClass: 2
Flags: W
LayerCount: 2
Fore
SplineSet
406 535 m 0,0,1
 406 373 406 373 468 292.5 c 128,-1,2
 530 212 530 212 643 212 c 0,3,4
 762 212 762 212 827 307 c 128,-1,5
 892 402 892 402 892 549 c 256,6,7
 892 696 892 696 828 785.5 c 128,-1,8
 764 875 764 875 647 875 c 0,9,10
 531 875 531 875 468.5 787 c 128,-1,11
 406 699 406 699 406 535 c 0,0,1
120 -424 m 1,12,-1
 120 610 l 2,13,14
 120 838 120 838 274.5 978 c 128,-1,15
 429 1118 429 1118 666 1118 c 0,16,17
 904 1118 904 1118 1045.5 966.5 c 128,-1,18
 1187 815 1187 815 1187 561 c 256,19,20
 1187 307 1187 307 1052.5 139 c 128,-1,21
 918 -29 918 -29 696 -29 c 0,22,23
 513 -29 513 -29 407 91 c 1,24,-1
 407 -424 l 1,25,-1
 120 -424 l 1,12,-1
EndSplineSet
EndChar

StartChar: sigma1
Encoding: 962 962 511
Width: 1149
GlyphClass: 2
Flags: W
LayerCount: 2
Fore
SplineSet
798 663 m 1,0,1
 768 875 768 875 601 875 c 0,2,3
 496 875 496 875 432.5 786.5 c 128,-1,4
 369 698 369 698 369 569 c 0,5,6
 369 462 369 462 424 387.5 c 128,-1,7
 479 313 479 313 625 262 c 0,8,9
 759 217 759 217 813.5 194.5 c 128,-1,10
 868 172 868 172 912 137 c 128,-1,11
 956 102 956 102 982.5 50.5 c 128,-1,12
 1009 -1 1009 -1 1009 -79 c 0,13,14
 1009 -222 1009 -222 904 -412 c 1,15,-1
 674 -412 l 1,16,17
 745 -270 745 -270 745 -177 c 0,18,19
 745 -129 745 -129 725.5 -96.5 c 128,-1,20
 706 -64 706 -64 673 -41 c 128,-1,21
 640 -18 640 -18 596 -1.5 c 128,-1,22
 552 15 552 15 439 54 c 0,23,24
 251 116 251 116 163 235 c 128,-1,25
 75 354 75 354 75 567 c 0,26,27
 75 804 75 804 229 961 c 128,-1,28
 383 1118 383 1118 622 1118 c 0,29,30
 823 1118 823 1118 952 992.5 c 128,-1,31
 1081 867 1081 867 1089 663 c 1,32,-1
 798 663 l 1,0,1
EndSplineSet
EndChar

StartChar: sigma
Encoding: 963 963 512
Width: 1340
GlyphClass: 2
Flags: W
LayerCount: 2
Fore
SplineSet
874 536 m 0,0,1
 874 684 874 684 810 770.5 c 128,-1,2
 746 857 746 857 626 857 c 0,3,4
 507 857 507 857 438.5 767 c 128,-1,5
 370 677 370 677 370 534 c 0,6,7
 370 392 370 392 437 301.5 c 128,-1,8
 504 211 504 211 623 211 c 256,9,10
 742 211 742 211 808 302.5 c 128,-1,11
 874 394 874 394 874 536 c 0,0,1
1315 855 m 1,12,-1
 1070 855 l 1,13,-1
 999 857 l 1,14,-1
 999 851 l 1,15,16
 1163 716 1163 716 1163 503 c 0,17,18
 1163 274 1163 274 1012.5 122 c 128,-1,19
 862 -30 862 -30 616 -30 c 256,20,21
 370 -30 370 -30 222.5 128 c 128,-1,22
 75 286 75 286 75 531 c 256,23,24
 75 776 75 776 230 933 c 128,-1,25
 385 1090 385 1090 634 1090 c 2,26,-1
 1315 1090 l 1,27,-1
 1315 855 l 1,12,-1
EndSplineSet
EndChar

StartChar: tau
Encoding: 964 964 513
Width: 1120
GlyphClass: 2
Flags: W
LayerCount: 2
Fore
SplineSet
35 1090 m 1,0,-1
 1085 1090 l 1,1,-1
 1085 855 l 1,2,-1
 676 855 l 1,3,-1
 676 308 l 2,4,5
 676 241 676 241 701 220 c 128,-1,6
 726 199 726 199 778 199 c 0,7,8
 816 199 816 199 858 208 c 1,9,-1
 858 -10 l 1,10,11
 785 -23 785 -23 724 -23 c 0,12,13
 546 -23 546 -23 467 31 c 128,-1,14
 388 85 388 85 388 228 c 2,15,-1
 388 855 l 1,16,-1
 35 855 l 1,17,-1
 35 1090 l 1,0,-1
EndSplineSet
EndChar

StartChar: upsilon
Encoding: 965 965 514
Width: 1238
GlyphClass: 2
Flags: W
LayerCount: 2
Fore
SplineSet
1056 1090 m 1,0,1
 1143 840 1143 840 1143 581 c 0,2,3
 1143 283 1143 283 1007 127 c 128,-1,4
 871 -29 871 -29 609 -29 c 0,5,6
 401 -29 401 -29 281.5 68 c 128,-1,7
 162 165 162 165 162 348 c 2,8,-1
 162 766 l 2,9,10
 162 820 162 820 148 851 c 128,-1,11
 134 882 134 882 86 882 c 0,12,13
 66 882 66 882 45 877 c 1,14,-1
 45 1092 l 1,15,16
 90 1105 90 1105 162 1105 c 0,17,18
 293 1105 293 1105 368.5 1048 c 128,-1,19
 444 991 444 991 444 819 c 2,20,-1
 444 430 l 2,21,22
 444 327 444 327 491.5 270 c 128,-1,23
 539 213 539 213 632 213 c 0,24,25
 743 213 743 213 799.5 299 c 128,-1,26
 856 385 856 385 856 601 c 0,27,28
 856 854 856 854 776 1090 c 1,29,-1
 1056 1090 l 1,0,1
EndSplineSet
EndChar

StartChar: phi
Encoding: 966 966 515
Width: 1695
GlyphClass: 2
Flags: W
LayerCount: 2
Fore
SplineSet
705 1373 m 1,0,-1
 990 1373 l 1,1,-1
 990 1100 l 1,2,3
 1282 1086 1282 1086 1451 934.5 c 128,-1,4
 1620 783 1620 783 1620 534 c 256,5,6
 1620 285 1620 285 1447.5 130 c 128,-1,7
 1275 -25 1275 -25 990 -33 c 1,8,-1
 990 -424 l 1,9,-1
 705 -424 l 1,10,-1
 705 -33 l 1,11,12
 413 -19 413 -19 244 132.5 c 128,-1,13
 75 284 75 284 75 533 c 256,14,15
 75 782 75 782 247.5 937 c 128,-1,16
 420 1092 420 1092 705 1100 c 1,17,-1
 705 1373 l 1,0,-1
988 190 m 1,18,19
 1151 190 1151 190 1245.5 288 c 128,-1,20
 1340 386 1340 386 1340 534 c 256,21,22
 1340 682 1340 682 1245.5 779.5 c 128,-1,23
 1151 877 1151 877 988 877 c 1,24,-1
 988 190 l 1,18,19
707 877 m 1,25,26
 544 877 544 877 449.5 779 c 128,-1,27
 355 681 355 681 355 533 c 256,28,29
 355 385 355 385 449.5 287.5 c 128,-1,30
 544 190 544 190 707 190 c 1,31,-1
 707 877 l 1,25,26
EndSplineSet
EndChar

StartChar: phi1
Encoding: 981 981 516
Width: 1673
GlyphClass: 2
Flags: W
LayerCount: 2
Fore
SplineSet
978 193 m 1,0,1
 1134 193 1134 193 1226 297.5 c 128,-1,2
 1318 402 1318 402 1318 548 c 256,3,4
 1318 694 1318 694 1231.5 785 c 128,-1,5
 1145 876 1145 876 978 882 c 1,6,-1
 978 193 l 1,0,1
693 -424 m 1,7,-1
 693 -31 l 1,8,9
 420 -23 420 -23 247.5 128 c 128,-1,10
 75 279 75 279 75 541 c 0,11,12
 75 757 75 757 214 900 c 128,-1,13
 353 1043 353 1043 568 1086 c 1,14,-1
 568 859 l 1,15,16
 470 830 470 830 412.5 741 c 128,-1,17
 355 652 355 652 355 548 c 0,18,19
 355 390 355 390 447 291.5 c 128,-1,20
 539 193 539 193 693 193 c 1,21,-1
 693 1102 l 1,22,23
 766 1109 766 1109 852 1109 c 0,24,25
 1211 1109 1211 1109 1404.5 958 c 128,-1,26
 1598 807 1598 807 1598 549 c 256,27,28
 1598 291 1598 291 1426.5 136 c 128,-1,29
 1255 -19 1255 -19 978 -31 c 1,30,-1
 978 -424 l 1,31,-1
 693 -424 l 1,7,-1
EndSplineSet
EndChar

StartChar: chi
Encoding: 967 967 517
Width: 1285
GlyphClass: 2
Flags: W
LayerCount: 2
Fore
SplineSet
1240 -431 m 1,0,1
 1185 -442 1185 -442 1128 -442 c 0,2,3
 999 -442 999 -442 930.5 -399.5 c 128,-1,4
 862 -357 862 -357 814 -265 c 2,5,-1
 628 88 l 1,6,-1
 626 88 l 1,7,-1
 341 -424 l 1,8,-1
 25 -424 l 1,9,-1
 486 359 l 1,10,-1
 268 774 l 2,11,12
 229 848 229 848 190 866 c 128,-1,13
 151 884 151 884 104 884 c 0,14,15
 87 884 87 884 59 879 c 1,16,-1
 59 1096 l 1,17,18
 104 1110 104 1110 173 1110 c 0,19,20
 302 1110 302 1110 374 1072 c 128,-1,21
 446 1034 446 1034 497 936 c 2,22,-1
 661 619 l 1,23,-1
 664 619 l 1,24,-1
 925 1090 l 1,25,-1
 1241 1090 l 1,26,-1
 805 350 l 1,27,-1
 1043 -103 l 2,28,29
 1071 -157 1071 -157 1102.5 -186.5 c 128,-1,30
 1134 -216 1134 -216 1187 -216 c 0,31,32
 1208 -216 1208 -216 1240 -211 c 1,33,-1
 1240 -431 l 1,0,1
EndSplineSet
EndChar

StartChar: psi
Encoding: 968 968 518
Width: 1707
GlyphClass: 2
Flags: W
LayerCount: 2
Fore
SplineSet
712 -10 m 1,0,1
 432 0 432 0 281 99 c 128,-1,2
 130 198 130 198 130 417 c 2,3,-1
 130 1090 l 1,4,-1
 417 1090 l 1,5,-1
 417 478 l 2,6,7
 417 332 417 332 485.5 275 c 128,-1,8
 554 218 554 218 712 214 c 1,9,-1
 712 1423 l 1,10,-1
 995 1423 l 1,11,-1
 995 214 l 1,12,13
 1153 218 1153 218 1221.5 275 c 128,-1,14
 1290 332 1290 332 1290 478 c 2,15,-1
 1290 1090 l 1,16,-1
 1577 1090 l 1,17,-1
 1577 417 l 2,18,19
 1577 198 1577 198 1426 99 c 128,-1,20
 1275 0 1275 0 995 -10 c 1,21,-1
 995 -424 l 1,22,-1
 712 -424 l 1,23,-1
 712 -10 l 1,0,1
EndSplineSet
EndChar

StartChar: omega
Encoding: 969 969 519
Width: 1717
GlyphClass: 2
Flags: W
LayerCount: 2
Fore
SplineSet
1001 422 m 2,0,1
 1001 318 1001 318 1034 264.5 c 128,-1,2
 1067 211 1067 211 1140 211 c 0,3,4
 1236 211 1236 211 1290 304.5 c 128,-1,5
 1344 398 1344 398 1344 553 c 0,6,7
 1344 834 1344 834 1167 1090 c 1,8,-1
 1471 1090 l 1,9,10
 1632 825 1632 825 1632 489 c 0,11,12
 1632 256 1632 256 1510 112.5 c 128,-1,13
 1388 -31 1388 -31 1179 -31 c 0,14,15
 1069 -31 1069 -31 979 24.5 c 128,-1,16
 889 80 889 80 861 163 c 1,17,-1
 856 163 l 1,18,19
 827 80 827 80 737.5 24.5 c 128,-1,20
 648 -31 648 -31 538 -31 c 0,21,22
 329 -31 329 -31 207 112.5 c 128,-1,23
 85 256 85 256 85 489 c 0,24,25
 85 823 85 823 246 1090 c 1,26,-1
 550 1090 l 1,27,28
 373 834 373 834 373 553 c 0,29,30
 373 399 373 399 427 305 c 128,-1,31
 481 211 481 211 577 211 c 0,32,33
 650 211 650 211 683 264.5 c 128,-1,34
 716 318 716 318 716 422 c 2,35,-1
 716 815 l 1,36,-1
 1001 815 l 1,37,-1
 1001 422 l 2,0,1
EndSplineSet
EndChar

StartChar: omega1
Encoding: 982 982 520
Width: 1717
GlyphClass: 2
Flags: W
LayerCount: 2
Fore
SplineSet
1474 855 m 1,0,1
 1629 667 1629 667 1629 441 c 0,2,3
 1629 245 1629 245 1505 107.5 c 128,-1,4
 1381 -30 1381 -30 1178 -30 c 0,5,6
 1068 -30 1068 -30 980.5 24.5 c 128,-1,7
 893 79 893 79 864 172 c 1,8,-1
 857 172 l 1,9,10
 828 79 828 79 737.5 24.5 c 128,-1,11
 647 -30 647 -30 540 -30 c 0,12,13
 332 -30 332 -30 208.5 105 c 128,-1,14
 85 240 85 240 85 444 c 0,15,16
 85 635 85 635 205 811 c 1,17,-1
 468 811 l 1,18,19
 373 650 373 650 373 494 c 0,20,21
 373 371 373 371 427.5 290.5 c 128,-1,22
 482 210 482 210 575 210 c 0,23,24
 646 210 646 210 682.5 257 c 128,-1,25
 719 304 719 304 719 399 c 2,26,-1
 719 707 l 1,27,-1
 998 707 l 1,28,-1
 998 399 l 2,29,30
 998 303 998 303 1035.5 256.5 c 128,-1,31
 1073 210 1073 210 1143 210 c 0,32,33
 1240 210 1240 210 1292 293 c 128,-1,34
 1344 376 1344 376 1344 496 c 0,35,36
 1344 683 1344 683 1195 855 c 1,37,-1
 85 855 l 1,38,-1
 85 1090 l 1,39,-1
 1628 1090 l 1,40,-1
 1628 855 l 1,41,-1
 1474 855 l 1,0,1
EndSplineSet
EndChar

StartChar: uni0411
Encoding: 1041 1041 534
Width: 1424
GlyphClass: 2
Flags: W
LayerCount: 2
Fore
SplineSet
451 254 m 1,0,-1
 801 254 l 2,1,2
 916 254 916 254 976 304.5 c 128,-1,3
 1036 355 1036 355 1036 452 c 0,4,5
 1036 545 1036 545 974.5 592.5 c 128,-1,6
 913 640 913 640 816 640 c 2,7,-1
 451 640 l 1,8,-1
 451 254 l 1,0,-1
150 1470 m 1,9,-1
 1250 1470 l 1,10,-1
 1250 1210 l 1,11,-1
 451 1210 l 1,12,-1
 451 894 l 1,13,-1
 850 894 l 2,14,15
 1098 894 1098 894 1223.5 783.5 c 128,-1,16
 1349 673 1349 673 1349 459 c 0,17,18
 1349 261 1349 261 1215 130.5 c 128,-1,19
 1081 0 1081 0 849 0 c 2,20,-1
 150 0 l 1,21,-1
 150 1470 l 1,9,-1
EndSplineSet
EndChar

StartChar: uni0414
Encoding: 1044 1044 537
Width: 1598
GlyphClass: 2
Flags: W
LayerCount: 2
Fore
SplineSet
713 1217 m 1,0,1
 693 936 693 936 621.5 689 c 128,-1,2
 550 442 550 442 421 254 c 1,3,-1
 1053 254 l 1,4,-1
 1053 1217 l 1,5,-1
 713 1217 l 1,0,1
310 0 m 1,6,-1
 310 -410 l 1,7,-1
 20 -410 l 1,8,-1
 20 254 l 1,9,-1
 93 254 l 1,10,11
 288 499 288 499 361 791.5 c 128,-1,12
 434 1084 434 1084 445 1470 c 1,13,-1
 1358 1470 l 1,14,-1
 1358 254 l 1,15,-1
 1558 254 l 1,16,-1
 1558 -411 l 1,17,-1
 1268 -411 l 1,18,-1
 1268 0 l 1,19,-1
 310 0 l 1,6,-1
EndSplineSet
EndChar

StartChar: uni0416
Encoding: 1046 1046 539
Width: 2040
GlyphClass: 2
Flags: W
LayerCount: 2
Fore
SplineSet
873 0 m 1,0,-1
 873 638 l 1,1,-1
 714 638 l 2,2,3
 606 638 606 638 554 597.5 c 128,-1,4
 502 557 502 557 495 473 c 2,5,-1
 479 276 l 2,6,7
 465 91 465 91 448 0 c 1,8,-1
 65 0 l 1,9,-1
 65 61 l 1,10,11
 123 80 123 80 142 126 c 128,-1,12
 161 172 161 172 169 252 c 2,13,-1
 194 500 l 2,14,15
 215 702 215 702 428 766 c 1,16,-1
 428 772 l 1,17,18
 232 836 232 836 212 1039 c 2,19,-1
 198 1183 l 2,20,21
 185 1317 185 1317 155 1357.5 c 128,-1,22
 125 1398 125 1398 80 1410 c 1,23,-1
 80 1470 l 1,24,-1
 455 1470 l 1,25,26
 480 1347 480 1347 491 1204 c 2,27,-1
 503 1047 l 2,28,29
 509 962 509 962 560 922 c 128,-1,30
 611 882 611 882 722 882 c 2,31,-1
 873 882 l 1,32,-1
 873 1470 l 1,33,-1
 1167 1470 l 1,34,-1
 1167 882 l 1,35,-1
 1318 882 l 2,36,37
 1429 882 1429 882 1480 922 c 128,-1,38
 1531 962 1531 962 1537 1047 c 2,39,-1
 1549 1204 l 2,40,41
 1560 1347 1560 1347 1585 1470 c 1,42,-1
 1960 1470 l 1,43,-1
 1960 1410 l 1,44,45
 1915 1398 1915 1398 1885 1357.5 c 128,-1,46
 1855 1317 1855 1317 1842 1183 c 2,47,-1
 1828 1039 l 2,48,49
 1808 836 1808 836 1612 772 c 1,50,-1
 1612 766 l 1,51,52
 1825 702 1825 702 1846 500 c 2,53,-1
 1871 252 l 2,54,55
 1879 172 1879 172 1898 126 c 128,-1,56
 1917 80 1917 80 1975 61 c 1,57,-1
 1975 0 l 1,58,-1
 1592 0 l 1,59,60
 1575 91 1575 91 1561 276 c 2,61,-1
 1545 473 l 2,62,63
 1538 557 1538 557 1486 597.5 c 128,-1,64
 1434 638 1434 638 1326 638 c 2,65,-1
 1167 638 l 1,66,-1
 1167 0 l 1,67,-1
 873 0 l 1,0,-1
EndSplineSet
EndChar

StartChar: uni0417
Encoding: 1047 1047 540
Width: 1349
GlyphClass: 2
Flags: W
LayerCount: 2
Fore
SplineSet
464 887 m 1,0,-1
 709 887 l 2,1,2
 820 887 820 887 871.5 924 c 128,-1,3
 923 961 923 961 923 1058 c 256,4,5
 923 1155 923 1155 854.5 1203.5 c 128,-1,6
 786 1252 786 1252 657 1252 c 0,7,8
 532 1252 532 1252 457.5 1204.5 c 128,-1,9
 383 1157 383 1157 375 1066 c 1,10,-1
 93 1066 l 1,11,12
 101 1262 101 1262 246.5 1385.5 c 128,-1,13
 392 1509 392 1509 670 1509 c 0,14,15
 914 1509 914 1509 1066 1400.5 c 128,-1,16
 1218 1292 1218 1292 1218 1105 c 0,17,18
 1218 888 1218 888 1014 795 c 1,19,-1
 1014 791 l 1,20,21
 1274 710 1274 710 1274 431 c 0,22,23
 1274 209 1274 209 1102 89.5 c 128,-1,24
 930 -30 930 -30 653 -30 c 0,25,26
 374 -30 374 -30 228.5 87.5 c 128,-1,27
 83 205 83 205 70 433 c 1,28,-1
 352 433 l 1,29,30
 363 332 363 332 443 280 c 128,-1,31
 523 228 523 228 662 228 c 256,32,33
 801 228 801 228 886.5 285.5 c 128,-1,34
 972 343 972 343 972 455 c 0,35,36
 972 556 972 556 916 601.5 c 128,-1,37
 860 647 860 647 720 647 c 2,38,-1
 464 647 l 1,39,-1
 464 887 l 1,0,-1
EndSplineSet
EndChar

StartChar: uni0418
Encoding: 1048 1048 541
Width: 1515
GlyphClass: 2
Flags: W
LayerCount: 2
Fore
SplineSet
1058 1470 m 1,0,-1
 1365 1470 l 1,1,-1
 1365 0 l 1,2,-1
 1058 0 l 1,3,-1
 1058 717 l 1,4,-1
 1061 939 l 1,5,-1
 1053 939 l 1,6,-1
 457 144 l 1,7,-1
 457 0 l 1,8,-1
 150 0 l 1,9,-1
 150 1470 l 1,10,-1
 457 1470 l 1,11,-1
 457 753 l 1,12,-1
 454 538 l 1,13,-1
 462 538 l 1,14,-1
 1058 1333 l 1,15,-1
 1058 1470 l 1,0,-1
EndSplineSet
EndChar

StartChar: uni0419
Encoding: 1049 1049 542
Width: 1515
GlyphClass: 2
Flags: W
LayerCount: 2
Fore
SplineSet
1058 1470 m 1,0,-1
 1365 1470 l 1,1,-1
 1365 0 l 1,2,-1
 1058 0 l 1,3,-1
 1058 717 l 1,4,-1
 1061 939 l 1,5,-1
 1053 939 l 1,6,-1
 457 144 l 1,7,-1
 457 0 l 1,8,-1
 150 0 l 1,9,-1
 150 1470 l 1,10,-1
 457 1470 l 1,11,-1
 457 753 l 1,12,-1
 454 538 l 1,13,-1
 462 538 l 1,14,-1
 1058 1333 l 1,15,-1
 1058 1470 l 1,0,-1
1180 1909 m 1,16,17
 1171 1769 1171 1769 1057.5 1670 c 128,-1,18
 944 1571 944 1571 758 1571 c 256,19,20
 572 1571 572 1571 456.5 1670.5 c 128,-1,21
 341 1770 341 1770 333 1909 c 1,22,-1
 551 1909 l 1,23,24
 589 1748 589 1748 758 1748 c 0,25,26
 926 1748 926 1748 962 1909 c 1,27,-1
 1180 1909 l 1,16,17
EndSplineSet
EndChar

StartChar: uni041A
Encoding: 1050 1050 543
Width: 1453
GlyphClass: 2
Flags: W
LayerCount: 2
Fore
SplineSet
457 1470 m 1,0,-1
 457 887 l 1,1,-1
 723 887 l 2,2,3
 834 887 834 887 885 926.5 c 128,-1,4
 936 966 936 966 942 1051 c 2,5,-1
 954 1206 l 2,6,7
 965 1348 965 1348 990 1470 c 1,8,-1
 1373 1470 l 1,9,-1
 1373 1410 l 1,10,11
 1328 1398 1328 1398 1298 1357.5 c 128,-1,12
 1268 1317 1268 1317 1255 1183 c 2,13,-1
 1241 1039 l 2,14,15
 1221 836 1221 836 1025 772 c 1,16,-1
 1025 766 l 1,17,18
 1238 702 1238 702 1259 500 c 2,19,-1
 1284 252 l 2,20,21
 1292 172 1292 172 1311 126 c 128,-1,22
 1330 80 1330 80 1388 61 c 1,23,-1
 1388 0 l 1,24,-1
 997 0 l 1,25,26
 980 90 980 90 966 274 c 2,27,-1
 950 469 l 2,28,29
 943 553 943 553 891 593 c 128,-1,30
 839 633 839 633 731 633 c 2,31,-1
 457 633 l 1,32,-1
 457 0 l 1,33,-1
 150 0 l 1,34,-1
 150 1470 l 1,35,-1
 457 1470 l 1,0,-1
EndSplineSet
EndChar

StartChar: uni041B
Encoding: 1051 1051 544
Width: 1532
GlyphClass: 2
Flags: W
LayerCount: 2
Fore
SplineSet
1075 0 m 1,0,-1
 1075 1217 l 1,1,-1
 744 1217 l 1,2,3
 718 815 718 815 666 560 c 0,4,5
 603 248 603 248 476 114.5 c 128,-1,6
 349 -19 349 -19 129 -19 c 0,7,8
 84 -19 84 -19 35 -13 c 1,9,-1
 35 296 l 1,10,11
 63 292 63 292 87 292 c 0,12,13
 204 292 204 292 274 358.5 c 128,-1,14
 344 425 344 425 387 642 c 0,15,16
 428 850 428 850 444 1107 c 128,-1,17
 460 1364 460 1364 465 1470 c 1,18,-1
 1382 1470 l 1,19,-1
 1382 0 l 1,20,-1
 1075 0 l 1,0,-1
EndSplineSet
EndChar

StartChar: uni0423
Encoding: 1059 1059 552
Width: 1301
GlyphClass: 2
Flags: W
LayerCount: 2
Fore
SplineSet
363 1470 m 1,0,-1
 623 865 l 1,1,-1
 670 752 l 1,2,-1
 674 752 l 1,3,-1
 713 865 l 1,4,-1
 950 1470 l 1,5,-1
 1281 1470 l 1,6,-1
 818 406 l 1,7,-1
 761 276 l 2,8,9
 692 118 692 118 592 56 c 128,-1,10
 492 -6 492 -6 314 -6 c 0,11,12
 243 -6 243 -6 180 4 c 1,13,-1
 180 283 l 1,14,15
 228 275 228 275 274 275 c 0,16,17
 394 275 394 275 445.5 298 c 128,-1,18
 497 321 497 321 522 380 c 2,19,-1
 533 406 l 1,20,-1
 25 1470 l 1,21,-1
 363 1470 l 1,0,-1
EndSplineSet
EndChar

StartChar: uni0424
Encoding: 1060 1060 553
Width: 1798
GlyphClass: 2
Flags: W
LayerCount: 2
Fore
SplineSet
758 1509 m 1,0,-1
 1040 1509 l 1,1,-1
 1040 1298 l 1,2,-1
 1225 1298 l 2,3,4
 1506 1298 1506 1298 1614.5 1156 c 128,-1,5
 1723 1014 1723 1014 1723 752 c 256,6,7
 1723 490 1723 490 1615 348.5 c 128,-1,8
 1507 207 1507 207 1230 207 c 2,9,-1
 1040 207 l 1,10,-1
 1040 -20 l 1,11,-1
 758 -20 l 1,12,-1
 758 207 l 1,13,-1
 573 207 l 2,14,15
 292 207 292 207 183.5 349 c 128,-1,16
 75 491 75 491 75 753 c 256,17,18
 75 1015 75 1015 183 1156.5 c 128,-1,19
 291 1298 291 1298 568 1298 c 2,20,-1
 758 1298 l 1,21,-1
 758 1509 l 1,0,-1
1036 431 m 1,22,-1
 1166 431 l 2,23,24
 1312 431 1312 431 1369 508 c 128,-1,25
 1426 585 1426 585 1426 752 c 256,26,27
 1426 919 1426 919 1369.5 996.5 c 128,-1,28
 1313 1074 1313 1074 1167 1074 c 2,29,-1
 1036 1074 l 1,30,-1
 1036 431 l 1,22,-1
429 997 m 256,31,32
 372 920 372 920 372 753 c 256,33,34
 372 586 372 586 428.5 508.5 c 128,-1,35
 485 431 485 431 631 431 c 2,36,-1
 762 431 l 1,37,-1
 762 1074 l 1,38,-1
 632 1074 l 2,39,40
 486 1074 486 1074 429 997 c 256,31,32
EndSplineSet
EndChar

StartChar: uni0426
Encoding: 1062 1062 555
Width: 1529
GlyphClass: 2
Flags: W
LayerCount: 2
Fore
SplineSet
1289 254 m 1,0,-1
 1489 254 l 1,1,-1
 1489 -411 l 1,2,-1
 1199 -411 l 1,3,-1
 1199 0 l 1,4,-1
 150 0 l 1,5,-1
 150 1470 l 1,6,-1
 457 1470 l 1,7,-1
 457 254 l 1,8,-1
 981 254 l 1,9,-1
 981 1470 l 1,10,-1
 1289 1470 l 1,11,-1
 1289 254 l 1,0,-1
EndSplineSet
EndChar

StartChar: uni0427
Encoding: 1063 1063 556
Width: 1379
GlyphClass: 2
Flags: W
LayerCount: 2
Fore
SplineSet
922 574 m 1,0,1
 750 549 750 549 586 549 c 0,2,3
 324 549 324 549 207 658.5 c 128,-1,4
 90 768 90 768 90 1015 c 2,5,-1
 90 1469 l 1,6,-1
 400 1469 l 1,7,-1
 400 1093 l 2,8,9
 400 929 400 929 459 866 c 128,-1,10
 518 803 518 803 678 803 c 0,11,12
 795 803 795 803 922 819 c 1,13,-1
 922 1469 l 1,14,-1
 1229 1469 l 1,15,-1
 1229 -1 l 1,16,-1
 922 -1 l 1,17,-1
 922 574 l 1,0,1
EndSplineSet
EndChar

StartChar: uni0428
Encoding: 1064 1064 557
Width: 2046
GlyphClass: 2
Flags: W
LayerCount: 2
Fore
SplineSet
873 1470 m 1,0,-1
 1172 1470 l 1,1,-1
 1172 254 l 1,2,-1
 1596 254 l 1,3,-1
 1596 1470 l 1,4,-1
 1896 1470 l 1,5,-1
 1896 0 l 1,6,-1
 150 0 l 1,7,-1
 150 1470 l 1,8,-1
 449 1470 l 1,9,-1
 449 254 l 1,10,-1
 873 254 l 1,11,-1
 873 1470 l 1,0,-1
EndSplineSet
EndChar

StartChar: uni0429
Encoding: 1065 1065 558
Width: 2116
GlyphClass: 2
Flags: W
LayerCount: 2
Fore
SplineSet
863 1470 m 1,0,-1
 1162 1470 l 1,1,-1
 1162 254 l 1,2,-1
 1576 254 l 1,3,-1
 1576 1470 l 1,4,-1
 1876 1470 l 1,5,-1
 1876 254 l 1,6,-1
 2076 254 l 1,7,-1
 2076 -411 l 1,8,-1
 1786 -411 l 1,9,-1
 1786 0 l 1,10,-1
 150 0 l 1,11,-1
 150 1470 l 1,12,-1
 449 1470 l 1,13,-1
 449 254 l 1,14,-1
 863 254 l 1,15,-1
 863 1470 l 1,0,-1
EndSplineSet
EndChar

StartChar: uni042A
Encoding: 1066 1066 559
Width: 1770
GlyphClass: 2
Flags: W
LayerCount: 2
Fore
SplineSet
796 254 m 1,0,-1
 1162 254 l 2,1,2
 1280 254 1280 254 1338.5 310 c 128,-1,3
 1397 366 1397 366 1397 470 c 0,4,5
 1397 571 1397 571 1333.5 623 c 128,-1,6
 1270 675 1270 675 1177 675 c 2,7,-1
 796 675 l 1,8,-1
 796 254 l 1,0,-1
796 1470 m 1,9,-1
 796 928 l 1,10,-1
 1211 928 l 2,11,12
 1457 928 1457 928 1583.5 812.5 c 128,-1,13
 1710 697 1710 697 1710 476 c 0,14,15
 1710 268 1710 268 1574 134 c 128,-1,16
 1438 0 1438 0 1210 0 c 2,17,-1
 491 0 l 1,18,-1
 491 1210 l 1,19,-1
 30 1210 l 1,20,-1
 30 1470 l 1,21,-1
 796 1470 l 1,9,-1
EndSplineSet
EndChar

StartChar: uni042B
Encoding: 1067 1067 560
Width: 1993
GlyphClass: 2
Flags: W
LayerCount: 2
Fore
SplineSet
455 928 m 1,0,-1
 837 928 l 2,1,2
 1083 928 1083 928 1209.5 812.5 c 128,-1,3
 1336 697 1336 697 1336 476 c 0,4,5
 1336 268 1336 268 1200 134 c 128,-1,6
 1064 0 1064 0 836 0 c 2,7,-1
 150 0 l 1,8,-1
 150 1470 l 1,9,-1
 455 1470 l 1,10,-1
 455 928 l 1,0,-1
1843 0 m 1,11,-1
 1537 0 l 1,12,-1
 1537 1470 l 1,13,-1
 1843 1470 l 1,14,-1
 1843 0 l 1,11,-1
455 254 m 1,15,-1
 788 254 l 2,16,17
 906 254 906 254 964.5 310 c 128,-1,18
 1023 366 1023 366 1023 470 c 0,19,20
 1023 571 1023 571 959.5 623 c 128,-1,21
 896 675 896 675 803 675 c 2,22,-1
 455 675 l 1,23,-1
 455 254 l 1,15,-1
EndSplineSet
EndChar

StartChar: uni042C
Encoding: 1068 1068 561
Width: 1429
GlyphClass: 2
Flags: W
LayerCount: 2
Fore
SplineSet
455 928 m 1,0,-1
 870 928 l 2,1,2
 1116 928 1116 928 1242.5 812.5 c 128,-1,3
 1369 697 1369 697 1369 476 c 0,4,5
 1369 268 1369 268 1233 134 c 128,-1,6
 1097 0 1097 0 869 0 c 2,7,-1
 150 0 l 1,8,-1
 150 1470 l 1,9,-1
 455 1470 l 1,10,-1
 455 928 l 1,0,-1
455 254 m 1,11,-1
 821 254 l 2,12,13
 939 254 939 254 997.5 310 c 128,-1,14
 1056 366 1056 366 1056 470 c 0,15,16
 1056 571 1056 571 992.5 623 c 128,-1,17
 929 675 929 675 836 675 c 2,18,-1
 455 675 l 1,19,-1
 455 254 l 1,11,-1
EndSplineSet
EndChar

StartChar: uni042D
Encoding: 1069 1069 562
Width: 1485
GlyphClass: 2
Flags: W
LayerCount: 2
Fore
SplineSet
514 884 m 1,0,-1
 1081 884 l 1,1,2
 1025 1247 1025 1247 719 1247 c 0,3,4
 457 1247 457 1247 398 1033 c 1,5,-1
 92 1033 l 1,6,7
 134 1270 134 1270 294.5 1389.5 c 128,-1,8
 455 1509 455 1509 717 1509 c 0,9,10
 1060 1509 1060 1509 1227.5 1297 c 128,-1,11
 1395 1085 1395 1085 1395 726 c 0,12,13
 1395 369 1395 369 1214 165 c 128,-1,14
 1033 -39 1033 -39 695 -39 c 0,15,16
 427 -39 427 -39 263 118 c 128,-1,17
 99 275 99 275 80 517 c 1,18,-1
 387 517 l 1,19,20
 426 225 426 225 719 225 c 0,21,22
 1055 225 1055 225 1089 644 c 1,23,-1
 514 644 l 1,24,-1
 514 884 l 1,0,-1
EndSplineSet
EndChar

StartChar: uni042E
Encoding: 1070 1070 563
Width: 2094
GlyphClass: 2
Flags: W
LayerCount: 2
Fore
SplineSet
957 735 m 0,0,1
 957 475 957 475 1063 346 c 128,-1,2
 1169 217 1169 217 1331 217 c 256,3,4
 1493 217 1493 217 1597 350 c 128,-1,5
 1701 483 1701 483 1701 734 c 256,6,7
 1701 985 1701 985 1599 1119 c 128,-1,8
 1497 1253 1497 1253 1329 1253 c 0,9,10
 1162 1253 1162 1253 1059.5 1119 c 128,-1,11
 957 985 957 985 957 735 c 0,0,1
1333 -39 m 0,12,13
 1059 -39 1059 -39 872.5 135.5 c 128,-1,14
 686 310 686 310 666 662 c 1,15,-1
 455 662 l 1,16,-1
 455 0 l 1,17,-1
 150 0 l 1,18,-1
 150 1470 l 1,19,-1
 455 1470 l 1,20,-1
 455 909 l 1,21,-1
 675 909 l 1,22,23
 713 1191 713 1191 891.5 1350 c 128,-1,24
 1070 1509 1070 1509 1333 1509 c 0,25,26
 1629 1509 1629 1509 1816.5 1309.5 c 128,-1,27
 2004 1110 2004 1110 2004 735 c 0,28,29
 2004 356 2004 356 1815 158.5 c 128,-1,30
 1626 -39 1626 -39 1333 -39 c 0,12,13
EndSplineSet
EndChar

StartChar: uni042F
Encoding: 1071 1071 564
Width: 1475
GlyphClass: 2
Flags: W
LayerCount: 2
Fore
SplineSet
647 1214 m 2,0,1
 532 1214 532 1214 472 1166 c 128,-1,2
 412 1118 412 1118 412 1025 c 0,3,4
 412 924 412 924 482 877 c 128,-1,5
 552 830 552 830 699 830 c 2,6,-1
 1028 830 l 1,7,-1
 1028 1214 l 1,8,-1
 647 1214 l 2,0,1
370 694 m 1,9,10
 106 807 106 807 106 1061 c 0,11,12
 106 1264 106 1264 241 1367 c 128,-1,13
 376 1470 376 1470 604 1470 c 2,14,-1
 1325 1470 l 1,15,-1
 1325 0 l 1,16,-1
 1028 0 l 1,17,-1
 1028 586 l 1,18,-1
 695 586 l 2,19,20
 594 586 594 586 540.5 549 c 128,-1,21
 487 512 487 512 480 433 c 2,22,-1
 464 253 l 2,23,24
 448 78 448 78 433 0 c 1,25,-1
 44 0 l 1,26,-1
 44 61 l 1,27,28
 91 75 91 75 113.5 111 c 128,-1,29
 136 147 136 147 149 265 c 2,30,-1
 170 449 l 2,31,32
 191 638 191 638 370 689 c 1,33,-1
 370 694 l 1,9,10
EndSplineSet
EndChar

StartChar: uni0490
Encoding: 1168 1168 568
Width: 1138
GlyphClass: 2
Flags: W
LayerCount: 2
Fore
SplineSet
457 0 m 1,0,-1
 150 0 l 1,1,-1
 150 1470 l 1,2,-1
 842 1470 l 1,3,-1
 842 1761 l 1,4,-1
 1098 1761 l 1,5,-1
 1098 1207 l 1,6,-1
 457 1207 l 1,7,-1
 457 0 l 1,0,-1
EndSplineSet
EndChar

StartChar: uni0402
Encoding: 1026 1026 569
Width: 1687
GlyphClass: 2
Flags: W
LayerCount: 2
Fore
SplineSet
459 1210 m 1,0,-1
 30 1210 l 1,1,-1
 30 1470 l 1,2,-1
 1256 1470 l 1,3,-1
 1256 1210 l 1,4,-1
 766 1210 l 1,5,-1
 766 908 l 1,6,-1
 1128 908 l 2,7,8
 1376 908 1376 908 1501.5 795.5 c 128,-1,9
 1627 683 1627 683 1627 466 c 0,10,11
 1627 261 1627 261 1491 130.5 c 128,-1,12
 1355 0 1355 0 1127 0 c 2,13,-1
 1006 0 l 1,14,-1
 1006 254 l 1,15,-1
 1079 254 l 2,16,17
 1192 254 1192 254 1253 304.5 c 128,-1,18
 1314 355 1314 355 1314 460 c 0,19,20
 1314 554 1314 554 1252.5 604.5 c 128,-1,21
 1191 655 1191 655 1094 655 c 2,22,-1
 766 655 l 1,23,-1
 766 0 l 1,24,-1
 459 0 l 1,25,-1
 459 1210 l 1,0,-1
EndSplineSet
EndChar

StartChar: uni0404
Encoding: 1028 1028 571
Width: 1483
GlyphClass: 2
Flags: W
LayerCount: 2
Fore
SplineSet
398 644 m 1,0,1
 415 436 415 436 507.5 330.5 c 128,-1,2
 600 225 600 225 776 225 c 0,3,4
 905 225 905 225 986.5 298.5 c 128,-1,5
 1068 372 1068 372 1096 517 c 1,6,-1
 1403 517 l 1,7,8
 1358 239 1358 239 1193.5 100 c 128,-1,9
 1029 -39 1029 -39 756 -39 c 0,10,11
 444 -39 444 -39 267 153.5 c 128,-1,12
 90 346 90 346 90 743 c 0,13,14
 90 1109 90 1109 274 1309 c 128,-1,15
 458 1509 458 1509 784 1509 c 0,16,17
 1057 1509 1057 1509 1217 1371.5 c 128,-1,18
 1377 1234 1377 1234 1396 1033 c 1,19,-1
 1090 1033 l 1,20,21
 1040 1247 1040 1247 774 1247 c 0,22,23
 468 1247 468 1247 404 884 c 1,24,-1
 971 884 l 1,25,-1
 971 644 l 1,26,-1
 398 644 l 1,0,1
EndSplineSet
EndChar

StartChar: uni0409
Encoding: 1033 1033 576
Width: 2303
GlyphClass: 2
Flags: W
LayerCount: 2
Fore
SplineSet
1367 928 m 1,0,-1
 1744 928 l 2,1,2
 1990 928 1990 928 2116.5 812.5 c 128,-1,3
 2243 697 2243 697 2243 476 c 0,4,5
 2243 268 2243 268 2107 134 c 128,-1,6
 1971 0 1971 0 1743 0 c 2,7,-1
 1060 0 l 1,8,-1
 1060 1217 l 1,9,-1
 744 1217 l 1,10,11
 718 815 718 815 666 560 c 0,12,13
 603 248 603 248 476 114.5 c 128,-1,14
 349 -19 349 -19 129 -19 c 0,15,16
 84 -19 84 -19 35 -13 c 1,17,-1
 35 296 l 1,18,19
 63 292 63 292 87 292 c 0,20,21
 204 292 204 292 274 358.5 c 128,-1,22
 344 425 344 425 387 642 c 0,23,24
 428 850 428 850 444 1107 c 128,-1,25
 460 1364 460 1364 465 1470 c 1,26,-1
 1367 1470 l 1,27,-1
 1367 928 l 1,0,-1
1367 254 m 1,28,-1
 1695 254 l 2,29,30
 1813 254 1813 254 1871.5 310 c 128,-1,31
 1930 366 1930 366 1930 470 c 0,32,33
 1930 571 1930 571 1866.5 623 c 128,-1,34
 1803 675 1803 675 1710 675 c 2,35,-1
 1367 675 l 1,36,-1
 1367 254 l 1,28,-1
EndSplineSet
EndChar

StartChar: uni040A
Encoding: 1034 1034 577
Width: 2220
GlyphClass: 2
Flags: W
LayerCount: 2
Fore
SplineSet
1284 922 m 1,0,-1
 1661 922 l 2,1,2
 1907 922 1907 922 2033.5 807 c 128,-1,3
 2160 692 2160 692 2160 473 c 0,4,5
 2160 266 2160 266 2024 133 c 128,-1,6
 1888 0 1888 0 1660 0 c 2,7,-1
 977 0 l 1,8,-1
 977 669 l 1,9,-1
 457 669 l 1,10,-1
 457 0 l 1,11,-1
 150 0 l 1,12,-1
 150 1470 l 1,13,-1
 457 1470 l 1,14,-1
 457 922 l 1,15,-1
 977 922 l 1,16,-1
 977 1470 l 1,17,-1
 1284 1470 l 1,18,-1
 1284 922 l 1,0,-1
1284 254 m 1,19,-1
 1612 254 l 2,20,21
 1730 254 1730 254 1788.5 309 c 128,-1,22
 1847 364 1847 364 1847 467 c 0,23,24
 1847 566 1847 566 1783.5 617.5 c 128,-1,25
 1720 669 1720 669 1627 669 c 2,26,-1
 1284 669 l 1,27,-1
 1284 254 l 1,19,-1
EndSplineSet
EndChar

StartChar: uni040B
Encoding: 1035 1035 578
Width: 1658
GlyphClass: 2
Flags: W
LayerCount: 2
Fore
SplineSet
766 0 m 1,0,-1
 459 0 l 1,1,-1
 459 1210 l 1,2,-1
 30 1210 l 1,3,-1
 30 1470 l 1,4,-1
 1256 1470 l 1,5,-1
 1256 1210 l 1,6,-1
 766 1210 l 1,7,-1
 766 885 l 1,8,9
 935 910 935 910 1087 910 c 0,10,11
 1363 910 1363 910 1465.5 790 c 128,-1,12
 1568 670 1568 670 1568 456 c 2,13,-1
 1568 0 l 1,14,-1
 1258 0 l 1,15,-1
 1258 373 l 2,16,17
 1258 519 1258 519 1206.5 587.5 c 128,-1,18
 1155 656 1155 656 993 656 c 0,19,20
 886 656 886 656 766 640 c 1,21,-1
 766 0 l 1,0,-1
EndSplineSet
EndChar

StartChar: uni040E
Encoding: 1038 1038 580
Width: 1301
GlyphClass: 2
Flags: W
LayerCount: 2
Fore
SplineSet
1094 1909 m 1,0,1
 1085 1769 1085 1769 971.5 1670 c 128,-1,2
 858 1571 858 1571 672 1571 c 256,3,4
 486 1571 486 1571 370.5 1670.5 c 128,-1,5
 255 1770 255 1770 247 1909 c 1,6,-1
 465 1909 l 1,7,8
 503 1748 503 1748 672 1748 c 0,9,10
 840 1748 840 1748 876 1909 c 1,11,-1
 1094 1909 l 1,0,1
363 1470 m 1,12,-1
 623 865 l 1,13,-1
 670 752 l 1,14,-1
 674 752 l 1,15,-1
 713 865 l 1,16,-1
 950 1470 l 1,17,-1
 1281 1470 l 1,18,-1
 817 405 l 1,19,-1
 761 276 l 2,20,21
 692 118 692 118 592 56 c 128,-1,22
 492 -6 492 -6 314 -6 c 0,23,24
 243 -6 243 -6 180 4 c 1,25,-1
 180 283 l 1,26,27
 228 275 228 275 274 275 c 0,28,29
 394 275 394 275 445.5 298 c 128,-1,30
 497 321 497 321 522 380 c 2,31,-1
 533 406 l 1,32,-1
 25 1470 l 1,33,-1
 363 1470 l 1,12,-1
EndSplineSet
EndChar

StartChar: uni040F
Encoding: 1039 1039 581
Width: 1449
GlyphClass: 2
Flags: W
LayerCount: 2
Fore
SplineSet
150 0 m 1,0,-1
 150 1470 l 1,1,-1
 457 1470 l 1,2,-1
 457 254 l 1,3,-1
 991 254 l 1,4,-1
 991 1470 l 1,5,-1
 1299 1470 l 1,6,-1
 1299 0 l 1,7,-1
 869 0 l 1,8,-1
 869 -411 l 1,9,-1
 579 -411 l 1,10,-1
 579 0 l 1,11,-1
 150 0 l 1,0,-1
EndSplineSet
EndChar

StartChar: uni0462
Encoding: 1122 1122 582
Width: 1653
GlyphClass: 2
Flags: W
LayerCount: 2
Fore
SplineSet
704 254 m 1,0,-1
 1045 254 l 2,1,2
 1157 254 1157 254 1218.5 302.5 c 128,-1,3
 1280 351 1280 351 1280 449 c 0,4,5
 1280 535 1280 535 1222 585 c 128,-1,6
 1164 635 1164 635 1060 635 c 2,7,-1
 704 635 l 1,8,-1
 704 254 l 1,0,-1
397 1061 m 1,9,-1
 25 1061 l 1,10,-1
 25 1296 l 1,11,-1
 397 1296 l 1,12,-1
 397 1500 l 1,13,-1
 704 1500 l 1,14,-1
 704 1296 l 1,15,-1
 1135 1296 l 1,16,-1
 1135 1061 l 1,17,-1
 704 1061 l 1,18,-1
 704 888 l 1,19,-1
 1094 888 l 2,20,21
 1340 888 1340 888 1466.5 777.5 c 128,-1,22
 1593 667 1593 667 1593 455 c 0,23,24
 1593 260 1593 260 1458 130 c 128,-1,25
 1323 0 1323 0 1093 0 c 2,26,-1
 397 0 l 1,27,-1
 397 1061 l 1,9,-1
EndSplineSet
EndChar

StartChar: uni0472
Encoding: 1138 1138 583
Width: 1583
GlyphClass: 2
Flags: W
LayerCount: 2
Fore
SplineSet
1186 874 m 1,0,1
 1160 1048 1160 1048 1055 1151 c 128,-1,2
 950 1254 950 1254 792 1254 c 0,3,4
 639 1254 639 1254 531 1154 c 128,-1,5
 423 1054 423 1054 397 874 c 1,6,-1
 1186 874 l 1,0,1
394 620 m 1,7,8
 417 425 417 425 527 320.5 c 128,-1,9
 637 216 637 216 792 216 c 0,10,11
 940 216 940 216 1050 313.5 c 128,-1,12
 1160 411 1160 411 1189 620 c 1,13,-1
 394 620 l 1,7,8
85 735 m 0,14,15
 85 1113 85 1113 282 1311 c 128,-1,16
 479 1509 479 1509 789 1509 c 256,17,18
 1099 1509 1099 1509 1298.5 1313.5 c 128,-1,19
 1498 1118 1498 1118 1498 735 c 0,20,21
 1498 361 1498 361 1302 161 c 128,-1,22
 1106 -39 1106 -39 792 -39 c 0,23,24
 493 -39 493 -39 289 150.5 c 128,-1,25
 85 340 85 340 85 735 c 0,14,15
EndSplineSet
EndChar

StartChar: uni0474
Encoding: 1140 1140 584
Width: 1377
GlyphClass: 2
Flags: W
LayerCount: 2
Fore
SplineSet
521 0 m 1,0,-1
 25 1470 l 1,1,-1
 355 1470 l 1,2,-1
 670 356 l 1,3,-1
 674 356 l 1,4,-1
 914 1272 l 2,5,6
 943 1385 943 1385 1019 1436 c 128,-1,7
 1095 1487 1095 1487 1205 1487 c 0,8,9
 1284 1487 1284 1487 1352 1470 c 1,10,-1
 1352 1241 l 1,11,12
 1326 1246 1326 1246 1298 1246 c 0,13,14
 1244 1246 1244 1246 1215.5 1220 c 128,-1,15
 1187 1194 1187 1194 1168 1134 c 2,16,-1
 813 0 l 1,17,-1
 521 0 l 1,0,-1
EndSplineSet
EndChar

StartChar: uni0431
Encoding: 1073 1073 586
Width: 1285
GlyphClass: 2
Flags: W
LayerCount: 2
Fore
SplineSet
915 526 m 0,0,1
 915 651 915 651 851 739.5 c 128,-1,2
 787 828 787 828 650 828 c 0,3,4
 521 828 521 828 453.5 746.5 c 128,-1,5
 386 665 386 665 386 526 c 0,6,7
 386 379 386 379 456.5 297 c 128,-1,8
 527 215 527 215 650 215 c 0,9,10
 780 215 780 215 847.5 302.5 c 128,-1,11
 915 390 915 390 915 526 c 0,0,1
1107 1319 m 1,12,13
 1042 1280 1042 1280 723 1243 c 0,14,15
 470 1214 470 1214 394 1130 c 128,-1,16
 318 1046 318 1046 307 843 c 1,17,-1
 312 842 l 1,18,19
 437 1056 437 1056 702 1056 c 0,20,21
 922 1056 922 1056 1066 912 c 128,-1,22
 1210 768 1210 768 1210 533 c 0,23,24
 1210 286 1210 286 1056 129 c 128,-1,25
 902 -28 902 -28 654 -28 c 0,26,27
 380 -28 380 -28 230 150.5 c 128,-1,28
 80 329 80 329 80 678 c 0,29,30
 80 1066 80 1066 216 1254.5 c 128,-1,31
 352 1443 352 1443 633 1486 c 0,32,33
 951 1533 951 1533 997.5 1553.5 c 128,-1,34
 1044 1574 1044 1574 1054 1613 c 1,35,-1
 1107 1613 l 1,36,-1
 1107 1319 l 1,12,13
EndSplineSet
EndChar

StartChar: uni0432
Encoding: 1074 1074 587
Width: 1211
GlyphClass: 2
Flags: W
LayerCount: 2
Fore
SplineSet
420 655 m 1,0,-1
 632 655 l 2,1,2
 734 655 734 655 770.5 687.5 c 128,-1,3
 807 720 807 720 807 777 c 0,4,5
 807 835 807 835 770 867.5 c 128,-1,6
 733 900 733 900 625 900 c 2,7,-1
 420 900 l 1,8,-1
 420 655 l 1,0,-1
420 201 m 1,9,-1
 658 201 l 2,10,11
 743 201 743 201 787.5 237.5 c 128,-1,12
 832 274 832 274 832 339 c 256,13,14
 832 404 832 404 787.5 438 c 128,-1,15
 743 472 743 472 642 472 c 2,16,-1
 420 472 l 1,17,-1
 420 201 l 1,9,-1
140 1101 m 1,18,-1
 756 1101 l 2,19,20
 916 1101 916 1101 1005.5 1022.5 c 128,-1,21
 1095 944 1095 944 1095 824 c 0,22,23
 1095 669 1095 669 925 580 c 1,24,25
 1126 529 1126 529 1126 325 c 0,26,27
 1126 185 1126 185 1020 92.5 c 128,-1,28
 914 0 914 0 730 0 c 2,29,-1
 140 0 l 1,30,-1
 140 1101 l 1,18,-1
EndSplineSet
EndChar

StartChar: uni0433
Encoding: 1075 1075 588
Width: 922
GlyphClass: 2
Flags: W
LayerCount: 2
Fore
SplineSet
140 1090 m 1,0,-1
 892 1090 l 1,1,-1
 892 850 l 1,2,-1
 427 850 l 1,3,-1
 427 0 l 1,4,-1
 140 0 l 1,5,-1
 140 1090 l 1,0,-1
EndSplineSet
EndChar

StartChar: uni0434
Encoding: 1076 1076 589
Width: 1304
GlyphClass: 2
Flags: W
LayerCount: 2
Fore
SplineSet
542 872 m 1,0,1
 529 499 529 499 392 228 c 1,2,-1
 809 228 l 1,3,-1
 809 872 l 1,4,-1
 542 872 l 1,0,1
30 228 m 1,5,-1
 109 228 l 1,6,7
 220 400 220 400 258 594 c 128,-1,8
 296 788 296 788 296 1090 c 1,9,-1
 1092 1090 l 1,10,-1
 1092 228 l 1,11,-1
 1264 228 l 1,12,-1
 1264 -370 l 1,13,-1
 1002 -370 l 1,14,-1
 1002 0 l 1,15,-1
 292 0 l 1,16,-1
 292 -370 l 1,17,-1
 30 -370 l 1,18,-1
 30 228 l 1,5,-1
EndSplineSet
EndChar

StartChar: uni0436
Encoding: 1078 1078 591
Width: 1656
GlyphClass: 2
Flags: W
LayerCount: 2
Fore
SplineSet
693 456 m 1,0,-1
 575 456 l 2,1,2
 501 456 501 456 465 424 c 128,-1,3
 429 392 429 392 426 338 c 2,4,-1
 413 190 l 2,5,6
 402 54 402 54 391 0 c 1,7,-1
 55 0 l 1,8,-1
 55 52 l 1,9,10
 96 64 96 64 111.5 98 c 128,-1,11
 127 132 127 132 134 198 c 2,12,-1
 151 366 l 2,13,14
 165 514 165 514 327 562 c 1,15,-1
 327 567 l 1,16,17
 177 618 177 618 163 769 c 2,18,-1
 153 874 l 2,19,20
 146 948 146 948 128.5 986.5 c 128,-1,21
 111 1025 111 1025 65 1039 c 1,22,-1
 65 1090 l 1,23,-1
 391 1090 l 1,24,25
 409 1014 409 1014 418 896 c 2,26,-1
 427 783 l 2,27,28
 432 718 432 718 471.5 690.5 c 128,-1,29
 511 663 511 663 584 663 c 2,30,-1
 693 663 l 1,31,-1
 693 1090 l 1,32,-1
 963 1090 l 1,33,-1
 963 663 l 1,34,-1
 1072 663 l 2,35,36
 1145 663 1145 663 1184.5 690.5 c 128,-1,37
 1224 718 1224 718 1229 783 c 2,38,-1
 1238 896 l 2,39,40
 1247 1014 1247 1014 1265 1090 c 1,41,-1
 1591 1090 l 1,42,-1
 1591 1039 l 1,43,44
 1545 1025 1545 1025 1527.5 986.5 c 128,-1,45
 1510 948 1510 948 1503 874 c 2,46,-1
 1493 769 l 2,47,48
 1479 618 1479 618 1329 567 c 1,49,-1
 1329 562 l 1,50,51
 1491 514 1491 514 1505 366 c 2,52,-1
 1522 198 l 2,53,54
 1529 132 1529 132 1544.5 98 c 128,-1,55
 1560 64 1560 64 1601 52 c 1,56,-1
 1601 0 l 1,57,-1
 1265 0 l 1,58,59
 1254 54 1254 54 1243 190 c 2,60,-1
 1230 338 l 2,61,62
 1227 392 1227 392 1191 424 c 128,-1,63
 1155 456 1155 456 1081 456 c 2,64,-1
 963 456 l 1,65,-1
 963 0 l 1,66,-1
 693 0 l 1,67,-1
 693 456 l 1,0,-1
EndSplineSet
EndChar

StartChar: uni0437
Encoding: 1079 1079 592
Width: 1173
GlyphClass: 2
Flags: W
LayerCount: 2
Fore
SplineSet
421 642 m 1,0,-1
 646 642 l 2,1,2
 722 642 722 642 747.5 669 c 128,-1,3
 773 696 773 696 773 762 c 0,4,5
 773 825 773 825 721 866.5 c 128,-1,6
 669 908 669 908 570 908 c 0,7,8
 390 908 390 908 374 764 c 1,9,-1
 94 764 l 1,10,11
 106 930 106 930 236 1024 c 128,-1,12
 366 1118 366 1118 592 1118 c 0,13,14
 798 1118 798 1118 930 1036 c 128,-1,15
 1062 954 1062 954 1062 805 c 0,16,17
 1062 647 1062 647 905 569 c 1,18,-1
 905 567 l 1,19,20
 1098 514 1098 514 1098 320 c 0,21,22
 1098 148 1098 148 951.5 54.5 c 128,-1,23
 805 -39 805 -39 575 -39 c 0,24,25
 330 -39 330 -39 200 56 c 128,-1,26
 70 151 70 151 60 329 c 1,27,-1
 349 329 l 1,28,29
 364 175 364 175 576 175 c 0,30,31
 682 175 682 175 740 214 c 128,-1,32
 798 253 798 253 798 324 c 256,33,34
 798 395 798 395 762 423.5 c 128,-1,35
 726 452 726 452 657 452 c 2,36,-1
 421 452 l 1,37,-1
 421 642 l 1,0,-1
EndSplineSet
EndChar

StartChar: uni0438
Encoding: 1080 1080 593
Width: 1285
GlyphClass: 2
Flags: W
LayerCount: 2
Fore
SplineSet
858 -1 m 1,0,-1
 858 528 l 1,1,-1
 861 656 l 1,2,-1
 853 656 l 1,3,-1
 427 112 l 1,4,-1
 427 -1 l 1,5,-1
 140 -1 l 1,6,-1
 140 1089 l 1,7,-1
 427 1089 l 1,8,-1
 427 568 l 1,9,-1
 424 439 l 1,10,-1
 431 439 l 1,11,-1
 858 987 l 1,12,-1
 858 1089 l 1,13,-1
 1145 1089 l 1,14,-1
 1145 -1 l 1,15,-1
 858 -1 l 1,0,-1
EndSplineSet
EndChar

StartChar: uni043A
Encoding: 1082 1082 595
Width: 1178
GlyphClass: 2
Flags: W
LayerCount: 2
Fore
SplineSet
427 1090 m 1,0,-1
 427 674 l 1,1,-1
 588 674 l 2,2,3
 661 674 661 674 700.5 701 c 128,-1,4
 740 728 740 728 745 791 c 2,5,-1
 754 901 l 2,6,7
 763 1016 763 1016 781 1090 c 1,8,-1
 1113 1090 l 1,9,-1
 1113 1039 l 1,10,11
 1067 1025 1067 1025 1049.5 986.5 c 128,-1,12
 1032 948 1032 948 1025 874 c 2,13,-1
 1015 769 l 2,14,15
 1001 618 1001 618 851 567 c 1,16,-1
 851 562 l 1,17,18
 1013 514 1013 514 1027 366 c 2,19,-1
 1044 198 l 2,20,21
 1051 132 1051 132 1066.5 98 c 128,-1,22
 1082 64 1082 64 1123 52 c 1,23,-1
 1123 0 l 1,24,-1
 781 0 l 1,25,26
 770 53 770 53 759 185 c 2,27,-1
 746 329 l 2,28,29
 743 382 743 382 707 413 c 128,-1,30
 671 444 671 444 597 444 c 2,31,-1
 427 444 l 1,32,-1
 427 0 l 1,33,-1
 140 0 l 1,34,-1
 140 1090 l 1,35,-1
 427 1090 l 1,0,-1
EndSplineSet
EndChar

StartChar: uni043B
Encoding: 1083 1083 596
Width: 1281
GlyphClass: 2
Flags: W
LayerCount: 2
Fore
SplineSet
856 0 m 1,0,-1
 856 855 l 1,1,-1
 578 855 l 1,2,3
 558 394 558 394 440.5 188 c 128,-1,4
 323 -18 323 -18 80 -18 c 0,5,6
 52 -18 52 -18 15 -14 c 1,7,-1
 15 247 l 1,8,9
 34 245 34 245 52 245 c 0,10,11
 159 245 159 245 206 299.5 c 128,-1,12
 253 354 253 354 278 490 c 0,13,14
 300 607 300 607 312.5 792.5 c 128,-1,15
 325 978 325 978 328 1090 c 1,16,-1
 1141 1090 l 1,17,-1
 1141 0 l 1,18,-1
 856 0 l 1,0,-1
EndSplineSet
EndChar

StartChar: uni043C
Encoding: 1084 1084 597
Width: 1528
GlyphClass: 2
Flags: W
LayerCount: 2
Fore
SplineSet
140 1090 m 1,0,-1
 580 1090 l 1,1,-1
 768 282 l 1,2,-1
 775 282 l 1,3,-1
 969 1090 l 1,4,-1
 1388 1090 l 1,5,-1
 1388 0 l 1,6,-1
 1118 0 l 1,7,-1
 1118 714 l 1,8,-1
 1121 877 l 1,9,-1
 1112 877 l 1,10,-1
 896 0 l 1,11,-1
 632 0 l 1,12,-1
 417 877 l 1,13,-1
 407 877 l 1,14,-1
 410 714 l 1,15,-1
 410 0 l 1,16,-1
 140 0 l 1,17,-1
 140 1090 l 1,0,-1
EndSplineSet
EndChar

StartChar: uni043D
Encoding: 1085 1085 598
Width: 1261
GlyphClass: 2
Flags: W
LayerCount: 2
Fore
SplineSet
140 1090 m 1,0,-1
 427 1090 l 1,1,-1
 427 678 l 1,2,-1
 838 678 l 1,3,-1
 838 1090 l 1,4,-1
 1121 1090 l 1,5,-1
 1121 0 l 1,6,-1
 838 0 l 1,7,-1
 838 443 l 1,8,-1
 427 443 l 1,9,-1
 427 0 l 1,10,-1
 140 0 l 1,11,-1
 140 1090 l 1,0,-1
EndSplineSet
EndChar

StartChar: uni043F
Encoding: 1087 1087 600
Width: 1240
GlyphClass: 2
Flags: W
LayerCount: 2
Fore
SplineSet
140 1090 m 1,0,-1
 1100 1090 l 1,1,-1
 1100 0 l 1,2,-1
 817 0 l 1,3,-1
 817 855 l 1,4,-1
 427 855 l 1,5,-1
 427 0 l 1,6,-1
 140 0 l 1,7,-1
 140 1090 l 1,0,-1
EndSplineSet
EndChar

StartChar: uni0442
Encoding: 1090 1090 603
Width: 1007
GlyphClass: 2
Flags: W
LayerCount: 2
Fore
SplineSet
360 850 m 1,0,-1
 30 850 l 1,1,-1
 30 1090 l 1,2,-1
 977 1090 l 1,3,-1
 977 850 l 1,4,-1
 647 850 l 1,5,-1
 647 0 l 1,6,-1
 360 0 l 1,7,-1
 360 850 l 1,0,-1
EndSplineSet
EndChar

StartChar: uni0444
Encoding: 1092 1092 605
Width: 1659
GlyphClass: 2
Flags: W
LayerCount: 2
Fore
SplineSet
970 1101 m 1,0,-1
 1093 1101 l 2,1,2
 1330 1101 1330 1101 1444 990.5 c 128,-1,3
 1558 880 1558 880 1559 601 c 2,4,-1
 1559 491 l 2,5,6
 1558 224 1558 224 1443 107 c 128,-1,7
 1328 -10 1328 -10 1084 -9 c 2,8,-1
 970 -10 l 1,9,-1
 970 -424 l 1,10,-1
 689 -424 l 1,11,-1
 689 -10 l 1,12,-1
 575 -9 l 2,13,14
 330 -10 330 -10 215 102.5 c 128,-1,15
 100 215 100 215 100 501 c 2,16,-1
 100 591 l 2,17,18
 101 877 101 877 216.5 989 c 128,-1,19
 332 1101 332 1101 576 1101 c 2,20,-1
 689 1101 l 1,21,-1
 689 1470 l 1,22,-1
 970 1470 l 1,23,-1
 970 1101 l 1,0,-1
614 881 m 2,24,25
 486 881 486 881 435.5 824.5 c 128,-1,26
 385 768 385 768 385 546 c 256,27,28
 385 324 385 324 435 267 c 128,-1,29
 485 210 485 210 614 210 c 2,30,-1
 693 210 l 1,31,-1
 693 881 l 1,32,-1
 614 881 l 2,24,25
966 881 m 1,33,-1
 966 210 l 1,34,-1
 1045 210 l 2,35,36
 1174 210 1174 210 1224 267 c 128,-1,37
 1274 324 1274 324 1274 546 c 256,38,39
 1274 768 1274 768 1223.5 824.5 c 128,-1,40
 1173 881 1173 881 1045 881 c 2,41,-1
 966 881 l 1,33,-1
EndSplineSet
EndChar

StartChar: uni0446
Encoding: 1094 1094 607
Width: 1287
GlyphClass: 2
Flags: W
LayerCount: 2
Fore
SplineSet
1075 230 m 1,0,-1
 1247 230 l 1,1,-1
 1247 -370 l 1,2,-1
 985 -370 l 1,3,-1
 985 0 l 1,4,-1
 140 0 l 1,5,-1
 140 1090 l 1,6,-1
 423 1090 l 1,7,-1
 423 230 l 1,8,-1
 788 230 l 1,9,-1
 788 1090 l 1,10,-1
 1075 1090 l 1,11,-1
 1075 230 l 1,0,-1
EndSplineSet
EndChar

StartChar: uni0447
Encoding: 1095 1095 608
Width: 1153
GlyphClass: 2
Flags: W
LayerCount: 2
Fore
SplineSet
724 420 m 1,0,1
 595 399 595 399 460 399 c 0,2,3
 253 399 253 399 164 483 c 128,-1,4
 75 567 75 567 75 737 c 2,5,-1
 75 1090 l 1,6,-1
 362 1090 l 1,7,-1
 362 791 l 2,8,9
 362 701 362 701 399 659.5 c 128,-1,10
 436 618 436 618 549 618 c 0,11,12
 659 618 659 618 726 633 c 1,13,-1
 726 1090 l 1,14,-1
 1013 1090 l 1,15,-1
 1013 0 l 1,16,-1
 724 0 l 1,17,-1
 724 420 l 1,0,1
EndSplineSet
EndChar

StartChar: uni0448
Encoding: 1096 1096 609
Width: 1719
GlyphClass: 2
Flags: W
LayerCount: 2
Fore
SplineSet
722 1090 m 1,0,-1
 993 1090 l 1,1,-1
 993 226 l 1,2,-1
 1304 226 l 1,3,-1
 1304 1090 l 1,4,-1
 1575 1090 l 1,5,-1
 1575 0 l 1,6,-1
 140 0 l 1,7,-1
 140 1090 l 1,8,-1
 411 1090 l 1,9,-1
 411 226 l 1,10,-1
 722 226 l 1,11,-1
 722 1090 l 1,0,-1
EndSplineSet
EndChar

StartChar: uni0449
Encoding: 1097 1097 610
Width: 1771
GlyphClass: 2
Flags: W
LayerCount: 2
Fore
SplineSet
712 1090 m 1,0,-1
 983 1090 l 1,1,-1
 983 226 l 1,2,-1
 1284 226 l 1,3,-1
 1284 1090 l 1,4,-1
 1555 1090 l 1,5,-1
 1555 226 l 1,6,-1
 1727 226 l 1,7,-1
 1727 -370 l 1,8,-1
 1465 -370 l 1,9,-1
 1465 0 l 1,10,-1
 140 0 l 1,11,-1
 140 1090 l 1,12,-1
 411 1090 l 1,13,-1
 411 226 l 1,14,-1
 712 226 l 1,15,-1
 712 1090 l 1,0,-1
EndSplineSet
EndChar

StartChar: uni044A
Encoding: 1098 1098 611
Width: 1370
GlyphClass: 2
Flags: W
LayerCount: 2
Fore
SplineSet
642 210 m 1,0,-1
 858 210 l 2,1,2
 945 210 945 210 989.5 250 c 128,-1,3
 1034 290 1034 290 1034 362 c 0,4,5
 1034 431 1034 431 986 469 c 128,-1,6
 938 507 938 507 839 507 c 2,7,-1
 642 507 l 1,8,-1
 642 210 l 1,0,-1
355 855 m 1,9,-1
 30 855 l 1,10,-1
 30 1090 l 1,11,-1
 642 1090 l 1,12,-1
 642 714 l 1,13,-1
 934 714 l 2,14,15
 1127 714 1127 714 1228.5 622 c 128,-1,16
 1330 530 1330 530 1330 365 c 0,17,18
 1330 206 1330 206 1223 103 c 128,-1,19
 1116 0 1116 0 934 0 c 2,20,-1
 355 0 l 1,21,-1
 355 855 l 1,9,-1
EndSplineSet
EndChar

StartChar: uni044B
Encoding: 1099 1099 612
Width: 1676
GlyphClass: 2
Flags: W
LayerCount: 2
Fore
SplineSet
427 714 m 1,0,-1
 698 714 l 2,1,2
 891 714 891 714 992.5 622 c 128,-1,3
 1094 530 1094 530 1094 365 c 0,4,5
 1094 206 1094 206 987 103 c 128,-1,6
 880 0 880 0 698 0 c 2,7,-1
 140 0 l 1,8,-1
 140 1090 l 1,9,-1
 427 1090 l 1,10,-1
 427 714 l 1,0,-1
1536 1090 m 1,11,-1
 1536 0 l 1,12,-1
 1249 0 l 1,13,-1
 1249 1090 l 1,14,-1
 1536 1090 l 1,11,-1
427 210 m 1,15,-1
 622 210 l 2,16,17
 709 210 709 210 753.5 250 c 128,-1,18
 798 290 798 290 798 362 c 0,19,20
 798 431 798 431 750 469 c 128,-1,21
 702 507 702 507 603 507 c 2,22,-1
 427 507 l 1,23,-1
 427 210 l 1,15,-1
EndSplineSet
EndChar

StartChar: uni044C
Encoding: 1100 1100 613
Width: 1163
GlyphClass: 2
Flags: W
LayerCount: 2
Fore
SplineSet
427 714 m 1,0,-1
 727 714 l 2,1,2
 920 714 920 714 1021.5 622 c 128,-1,3
 1123 530 1123 530 1123 365 c 0,4,5
 1123 206 1123 206 1016 103 c 128,-1,6
 909 0 909 0 727 0 c 2,7,-1
 140 0 l 1,8,-1
 140 1090 l 1,9,-1
 427 1090 l 1,10,-1
 427 714 l 1,0,-1
427 210 m 1,11,-1
 651 210 l 2,12,13
 738 210 738 210 782.5 250 c 128,-1,14
 827 290 827 290 827 362 c 0,15,16
 827 431 827 431 779 469 c 128,-1,17
 731 507 731 507 632 507 c 2,18,-1
 427 507 l 1,19,-1
 427 210 l 1,11,-1
EndSplineSet
EndChar

StartChar: uni044D
Encoding: 1101 1101 614
Width: 1163
GlyphClass: 2
Flags: W
LayerCount: 2
Fore
SplineSet
417 650 m 1,0,-1
 787 650 l 1,1,2
 779 755 779 755 723 826.5 c 128,-1,3
 667 898 667 898 555 898 c 0,4,5
 464 898 464 898 410.5 854.5 c 128,-1,6
 357 811 357 811 345 746 c 1,7,-1
 60 746 l 1,8,9
 84 912 84 912 209.5 1015 c 128,-1,10
 335 1118 335 1118 562 1118 c 0,11,12
 818 1118 818 1118 950.5 971.5 c 128,-1,13
 1083 825 1083 825 1083 552 c 0,14,15
 1083 265 1083 265 940.5 113.5 c 128,-1,16
 798 -38 798 -38 532 -38 c 0,17,18
 309 -38 309 -38 186 73.5 c 128,-1,19
 63 185 63 185 55 360 c 1,20,-1
 340 360 l 1,21,22
 344 287 344 287 396.5 234 c 128,-1,23
 449 181 449 181 545 181 c 0,24,25
 664 181 664 181 722 257 c 128,-1,26
 780 333 780 333 789 460 c 1,27,-1
 417 460 l 1,28,-1
 417 650 l 1,0,-1
EndSplineSet
EndChar

StartChar: uni044E
Encoding: 1102 1102 615
Width: 1727
GlyphClass: 2
Flags: W
LayerCount: 2
Fore
SplineSet
1357 545 m 0,0,1
 1357 698 1357 698 1299 789 c 128,-1,2
 1241 880 1241 880 1121 880 c 0,3,4
 1002 880 1002 880 943.5 790.5 c 128,-1,5
 885 701 885 701 885 545 c 0,6,7
 885 387 885 387 945 298.5 c 128,-1,8
 1005 210 1005 210 1121 210 c 0,9,10
 1239 210 1239 210 1298 298.5 c 128,-1,11
 1357 387 1357 387 1357 545 c 0,0,1
1647 545 m 0,12,13
 1647 285 1647 285 1506.5 128 c 128,-1,14
 1366 -29 1366 -29 1128 -29 c 0,15,16
 916 -29 916 -29 778 98.5 c 128,-1,17
 640 226 640 226 614 450 c 1,18,-1
 423 450 l 1,19,-1
 423 0 l 1,20,-1
 140 0 l 1,21,-1
 140 1090 l 1,22,-1
 423 1090 l 1,23,-1
 423 670 l 1,24,-1
 618 670 l 1,25,26
 652 876 652 876 786 997 c 128,-1,27
 920 1118 920 1118 1128 1118 c 0,28,29
 1355 1118 1355 1118 1501 967.5 c 128,-1,30
 1647 817 1647 817 1647 545 c 0,12,13
EndSplineSet
EndChar

StartChar: uni044F
Encoding: 1103 1103 616
Width: 1224
GlyphClass: 2
Flags: W
LayerCount: 2
Fore
SplineSet
799 887 m 1,0,-1
 552 887 l 2,1,2
 473 887 473 887 436 851 c 128,-1,3
 399 815 399 815 399 749 c 0,4,5
 399 672 399 672 441.5 636.5 c 128,-1,6
 484 601 484 601 567 601 c 2,7,-1
 799 601 l 1,8,-1
 799 887 l 1,0,-1
345 498 m 1,9,10
 107 572 107 572 107 789 c 0,11,12
 107 937 107 937 218 1014.5 c 128,-1,13
 329 1092 329 1092 521 1092 c 2,14,-1
 1084 1092 l 1,15,-1
 1084 0 l 1,16,-1
 799 0 l 1,17,-1
 799 398 l 1,18,-1
 593 398 l 2,19,20
 522 398 522 398 478 371.5 c 128,-1,21
 434 345 434 345 429 283 c 2,22,-1
 419 172 l 2,23,24
 406 26 406 26 398 0 c 1,25,-1
 56 0 l 1,26,-1
 56 52 l 1,27,28
 92 62 92 62 110 93 c 128,-1,29
 128 124 128 124 135 200 c 2,30,-1
 146 309 l 2,31,32
 161 453 161 453 345 493 c 1,33,-1
 345 498 l 1,9,10
EndSplineSet
EndChar

StartChar: uni0491
Encoding: 1169 1169 620
Width: 903
GlyphClass: 2
Flags: W
LayerCount: 2
Fore
SplineSet
140 1090 m 1,0,-1
 643 1090 l 1,1,-1
 643 1340 l 1,2,-1
 873 1340 l 1,3,-1
 873 855 l 1,4,-1
 427 855 l 1,5,-1
 427 0 l 1,6,-1
 140 0 l 1,7,-1
 140 1090 l 1,0,-1
EndSplineSet
EndChar

StartChar: uni0452
Encoding: 1106 1106 621
Width: 1283
GlyphClass: 2
Flags: W
LayerCount: 2
Fore
SplineSet
835 1174 m 1,0,-1
 460 1174 l 1,1,-1
 460 869 l 1,2,3
 563 1043 563 1043 779 1043 c 0,4,5
 944 1043 944 1043 1051 947.5 c 128,-1,6
 1158 852 1158 852 1158 679 c 2,7,-1
 1158 40 l 2,8,9
 1158 -189 1158 -189 1018.5 -316.5 c 128,-1,10
 879 -444 879 -444 637 -444 c 1,11,-1
 637 -204 l 1,12,13
 756 -204 756 -204 813.5 -147 c 128,-1,14
 871 -90 871 -90 871 28 c 2,15,-1
 871 602 l 2,16,17
 871 697 871 697 828 749.5 c 128,-1,18
 785 802 785 802 685 802 c 0,19,20
 582 802 582 802 521 734 c 0,21,22
 463 670 463 670 460 561 c 2,23,-1
 460 0 l 1,24,-1
 173 0 l 1,25,-1
 173 1174 l 1,26,-1
 40 1174 l 1,27,-1
 40 1356 l 1,28,-1
 173 1356 l 1,29,-1
 173 1480 l 1,30,-1
 460 1480 l 1,31,-1
 460 1356 l 1,32,-1
 835 1356 l 1,33,-1
 835 1174 l 1,0,-1
EndSplineSet
EndChar

StartChar: uni0454
Encoding: 1108 1108 623
Width: 1157
GlyphClass: 2
Flags: W
LayerCount: 2
Fore
SplineSet
740 460 m 1,0,-1
 373 460 l 1,1,2
 383 181 383 181 595 181 c 0,3,4
 686 181 686 181 745.5 226.5 c 128,-1,5
 805 272 805 272 817 357 c 1,6,-1
 1102 357 l 1,7,8
 1082 178 1082 178 947 70 c 128,-1,9
 812 -38 812 -38 596 -38 c 0,10,11
 347 -38 347 -38 213.5 103 c 128,-1,12
 80 244 80 244 80 524 c 0,13,14
 80 817 80 817 219 967.5 c 128,-1,15
 358 1118 358 1118 627 1118 c 0,16,17
 842 1118 842 1118 966 1016 c 128,-1,18
 1090 914 1090 914 1097 746 c 1,19,-1
 812 746 l 1,20,21
 806 815 806 815 750.5 856.5 c 128,-1,22
 695 898 695 898 615 898 c 0,23,24
 399 898 399 898 376 650 c 1,25,-1
 740 650 l 1,26,-1
 740 460 l 1,0,-1
EndSplineSet
EndChar

StartChar: uni0459
Encoding: 1113 1113 628
Width: 1842
GlyphClass: 2
Flags: W
LayerCount: 2
Fore
SplineSet
1136 714 m 1,0,-1
 1406 714 l 2,1,2
 1599 714 1599 714 1700.5 622 c 128,-1,3
 1802 530 1802 530 1802 365 c 0,4,5
 1802 206 1802 206 1695 103 c 128,-1,6
 1588 0 1588 0 1406 0 c 2,7,-1
 849 0 l 1,8,-1
 849 855 l 1,9,-1
 578 855 l 1,10,11
 558 394 558 394 440.5 188 c 128,-1,12
 323 -18 323 -18 80 -18 c 0,13,14
 52 -18 52 -18 15 -14 c 1,15,-1
 15 247 l 1,16,17
 34 245 34 245 52 245 c 0,18,19
 159 245 159 245 206 299.5 c 128,-1,20
 253 354 253 354 278 490 c 0,21,22
 300 607 300 607 312.5 792.5 c 128,-1,23
 325 978 325 978 328 1090 c 1,24,-1
 1136 1090 l 1,25,-1
 1136 714 l 1,0,-1
1136 210 m 1,26,-1
 1330 210 l 2,27,28
 1417 210 1417 210 1461.5 250 c 128,-1,29
 1506 290 1506 290 1506 362 c 0,30,31
 1506 431 1506 431 1458 469 c 128,-1,32
 1410 507 1410 507 1311 507 c 2,33,-1
 1136 507 l 1,34,-1
 1136 210 l 1,26,-1
EndSplineSet
EndChar

StartChar: uni045A
Encoding: 1114 1114 629
Width: 1797
GlyphClass: 2
Flags: W
LayerCount: 2
Fore
SplineSet
808 489 m 1,0,-1
 427 489 l 1,1,-1
 427 0 l 1,2,-1
 140 0 l 1,3,-1
 140 1090 l 1,4,-1
 427 1090 l 1,5,-1
 427 704 l 1,6,-1
 808 704 l 1,7,-1
 808 1090 l 1,8,-1
 1091 1090 l 1,9,-1
 1091 704 l 1,10,-1
 1361 704 l 2,11,12
 1554 704 1554 704 1655.5 613.5 c 128,-1,13
 1757 523 1757 523 1757 360 c 0,14,15
 1757 203 1757 203 1650 101.5 c 128,-1,16
 1543 0 1543 0 1361 0 c 2,17,-1
 808 0 l 1,18,-1
 808 489 l 1,0,-1
1092 210 m 1,19,-1
 1285 210 l 2,20,21
 1372 210 1372 210 1416.5 248.5 c 128,-1,22
 1461 287 1461 287 1461 357 c 0,23,24
 1461 424 1461 424 1413 460.5 c 128,-1,25
 1365 497 1365 497 1266 497 c 2,26,-1
 1092 497 l 1,27,-1
 1092 210 l 1,19,-1
EndSplineSet
EndChar

StartChar: uni045F
Encoding: 1119 1119 633
Width: 1231
GlyphClass: 2
Flags: W
LayerCount: 2
Fore
SplineSet
1091 0 m 1,0,-1
 746 0 l 1,1,-1
 746 -370 l 1,2,-1
 484 -370 l 1,3,-1
 484 0 l 1,4,-1
 140 0 l 1,5,-1
 140 1090 l 1,6,-1
 423 1090 l 1,7,-1
 423 230 l 1,8,-1
 804 230 l 1,9,-1
 804 1090 l 1,10,-1
 1091 1090 l 1,11,-1
 1091 0 l 1,0,-1
EndSplineSet
EndChar

StartChar: uni04D9
Encoding: 1241 1241 634
Width: 1139
GlyphClass: 2
Flags: W
LayerCount: 2
Fore
SplineSet
344 435 m 1,0,1
 349 330 349 330 409 267.5 c 128,-1,2
 469 205 469 205 561 205 c 0,3,4
 756 205 756 205 788 435 c 1,5,-1
 344 435 l 1,0,1
67 769 m 1,6,7
 105 919 105 919 234.5 1018 c 128,-1,8
 364 1117 364 1117 566 1117 c 0,9,10
 815 1117 815 1117 950.5 969 c 128,-1,11
 1086 821 1086 821 1086 552 c 0,12,13
 1086 282 1086 282 941.5 126 c 128,-1,14
 797 -30 797 -30 545 -30 c 0,15,16
 326 -30 326 -30 188.5 116 c 128,-1,17
 51 262 51 262 51 544 c 0,18,19
 51 601 51 601 52 621 c 1,20,-1
 799 621 l 1,21,22
 791 756 791 756 731.5 821.5 c 128,-1,23
 672 887 672 887 552 887 c 0,24,25
 478 887 478 887 427 854 c 128,-1,26
 376 821 376 821 362 769 c 1,27,-1
 67 769 l 1,6,7
EndSplineSet
EndChar

StartChar: uni0463
Encoding: 1123 1123 635
Width: 1327
GlyphClass: 2
Flags: W
LayerCount: 2
Fore
SplineSet
591 210 m 1,0,-1
 815 210 l 2,1,2
 893 210 893 210 942 244 c 128,-1,3
 991 278 991 278 991 352 c 0,4,5
 991 416 991 416 943 451.5 c 128,-1,6
 895 487 895 487 796 487 c 2,7,-1
 591 487 l 1,8,-1
 591 210 l 1,0,-1
308 883 m 1,9,-1
 30 883 l 1,10,-1
 30 1090 l 1,11,-1
 308 1090 l 1,12,-1
 308 1470 l 1,13,-1
 591 1470 l 1,14,-1
 591 1090 l 1,15,-1
 918 1090 l 1,16,-1
 918 883 l 1,17,-1
 591 883 l 1,18,-1
 591 694 l 1,19,-1
 891 694 l 2,20,21
 1084 694 1084 694 1185.5 604.5 c 128,-1,22
 1287 515 1287 515 1287 355 c 0,23,24
 1287 199 1287 199 1179.5 99.5 c 128,-1,25
 1072 0 1072 0 891 0 c 2,26,-1
 308 0 l 1,27,-1
 308 883 l 1,9,-1
EndSplineSet
EndChar

StartChar: uni0473
Encoding: 1139 1139 636
Width: 1274
GlyphClass: 2
Flags: W
LayerCount: 2
Fore
SplineSet
637 881 m 256,0,1
 414 881 414 881 373 648 c 1,2,-1
 901 648 l 1,3,4
 860 881 860 881 637 881 c 256,0,1
637 209 m 0,5,6
 864 209 864 209 903 457 c 1,7,-1
 371 457 l 1,8,9
 408 209 408 209 637 209 c 0,5,6
1194 545 m 0,10,11
 1194 279 1194 279 1043 125 c 128,-1,12
 892 -29 892 -29 637 -29 c 0,13,14
 383 -29 383 -29 231.5 124.5 c 128,-1,15
 80 278 80 278 80 545 c 0,16,17
 80 816 80 816 232.5 967 c 128,-1,18
 385 1118 385 1118 637 1118 c 0,19,20
 879 1118 879 1118 1036.5 970 c 128,-1,21
 1194 822 1194 822 1194 545 c 0,10,11
EndSplineSet
EndChar

StartChar: uni0475
Encoding: 1141 1141 637
Width: 1161
GlyphClass: 2
Flags: W
LayerCount: 2
Fore
SplineSet
25 1090 m 1,0,-1
 344 1090 l 1,1,-1
 573 287 l 1,2,-1
 580 287 l 1,3,-1
 753 908 l 2,4,5
 780 1006 780 1006 840.5 1058 c 128,-1,6
 901 1110 901 1110 1014 1110 c 0,7,8
 1073 1110 1073 1110 1141 1098 c 1,9,-1
 1141 876 l 1,10,11
 1120 880 1120 880 1091 880 c 0,12,13
 1044 880 1044 880 1018.5 848.5 c 128,-1,14
 993 817 993 817 976 764 c 2,15,-1
 724 0 l 1,16,-1
 420 0 l 1,17,-1
 25 1090 l 1,0,-1
EndSplineSet
EndChar

StartChar: uni0431.SRB
Encoding: 65569 -1 638
Width: 1261
GlyphClass: 2
Flags: W
LayerCount: 2
Fore
SplineSet
787 1038 m 0,0,1
 995 922 995 922 1090.5 796.5 c 128,-1,2
 1186 671 1186 671 1186 513 c 0,3,4
 1186 274 1186 274 1023.5 122 c 128,-1,5
 861 -30 861 -30 621 -30 c 0,6,7
 395 -30 395 -30 235 112 c 128,-1,8
 75 254 75 254 75 480 c 0,9,10
 75 808 75 808 419 973 c 1,11,12
 242 1098 242 1098 242 1230 c 256,13,14
 242 1362 242 1362 336 1416 c 128,-1,15
 430 1470 430 1470 601 1470 c 2,16,-1
 1075 1470 l 1,17,-1
 1075 1244 l 1,18,-1
 577 1244 l 2,19,20
 533 1244 533 1244 533 1215 c 0,21,22
 533 1187 533 1187 567 1164.5 c 128,-1,23
 601 1142 601 1142 787 1038 c 0,0,1
883 490 m 0,24,25
 883 677 883 677 633 830 c 1,26,27
 370 719 370 719 370 498 c 0,28,29
 370 374 370 374 442.5 293.5 c 128,-1,30
 515 213 515 213 625 213 c 0,31,32
 739 213 739 213 811 294.5 c 128,-1,33
 883 376 883 376 883 490 c 0,24,25
EndSplineSet
EndChar

StartChar: grave
Encoding: 96 96 639
Width: 700
GlyphClass: 2
Flags: W
LayerCount: 2
Fore
SplineSet
-27 1536 m 1,0,-1
 288 1536 l 1,1,-1
 481 1237 l 1,2,-1
 274 1237 l 1,3,-1
 -27 1536 l 1,0,-1
EndSplineSet
EndChar

StartChar: acute
Encoding: 180 180 640
Width: 682
GlyphClass: 2
Flags: W
LayerCount: 2
Fore
SplineSet
427 1237 m 1,0,-1
 220 1237 l 1,1,-1
 413 1536 l 1,2,-1
 728 1536 l 1,3,-1
 427 1237 l 1,0,-1
EndSplineSet
EndChar

StartChar: circumflex
Encoding: 710 710 641
Width: 700
GlyphClass: 2
Flags: W
LayerCount: 2
Fore
SplineSet
711 1237 m 1,0,-1
 480 1237 l 1,1,-1
 349 1405 l 1,2,-1
 220 1237 l 1,3,-1
 -11 1237 l 1,4,-1
 222 1536 l 1,5,-1
 478 1536 l 1,6,-1
 711 1237 l 1,0,-1
EndSplineSet
EndChar

StartChar: caron
Encoding: 711 711 642
Width: 700
GlyphClass: 2
Flags: W
LayerCount: 2
Fore
SplineSet
478 1237 m 1,0,-1
 222 1237 l 1,1,-1
 -11 1536 l 1,2,-1
 220 1536 l 1,3,-1
 349 1368 l 1,4,-1
 480 1536 l 1,5,-1
 711 1536 l 1,6,-1
 478 1237 l 1,0,-1
EndSplineSet
EndChar

StartChar: uni02BC
Encoding: 700 700 643
Width: 700
GlyphClass: 2
Flags: W
LayerCount: 2
Fore
SplineSet
229 1109 m 1,0,1
 297 1120 297 1120 323.5 1152.5 c 128,-1,2
 350 1185 350 1185 350 1244 c 1,3,-1
 231 1244 l 1,4,-1
 231 1470 l 1,5,-1
 470 1470 l 1,6,-1
 470 1256 l 2,7,8
 470 1148 470 1148 405 1084 c 128,-1,9
 340 1020 340 1020 229 1014 c 1,10,-1
 229 1109 l 1,0,1
EndSplineSet
EndChar

StartChar: tilde
Encoding: 732 732 644
Width: 700
GlyphClass: 2
Flags: W
LayerCount: 2
Fore
SplineSet
-16 1258 m 1,0,1
 34 1506 34 1506 224 1506 c 0,2,3
 242 1506 242 1506 264.5 1501.5 c 128,-1,4
 287 1497 287 1497 360 1474 c 0,5,6
 414 1455 414 1455 447.5 1443.5 c 128,-1,7
 481 1432 481 1432 507 1432 c 0,8,9
 582 1432 582 1432 603 1514 c 1,10,-1
 736 1514 l 1,11,12
 686 1268 686 1268 509 1268 c 0,13,14
 491 1268 491 1268 462 1272.5 c 128,-1,15
 433 1277 433 1277 360 1300 c 0,16,17
 306 1317 306 1317 272 1329.5 c 128,-1,18
 238 1342 238 1342 212 1342 c 0,19,20
 136 1342 136 1342 115 1258 c 1,21,-1
 -16 1258 l 1,0,1
EndSplineSet
EndChar

StartChar: dieresis
Encoding: 168 168 645
Width: 700
GlyphClass: 2
Flags: W
LayerCount: 2
Fore
SplineSet
679 1249 m 1,0,-1
 426 1249 l 1,1,-1
 426 1485 l 1,2,-1
 679 1485 l 1,3,-1
 679 1249 l 1,0,-1
274 1249 m 1,4,-1
 21 1249 l 1,5,-1
 21 1485 l 1,6,-1
 274 1485 l 1,7,-1
 274 1249 l 1,4,-1
EndSplineSet
EndChar

StartChar: macron
Encoding: 175 175 646
AltUni2: 0002c9.ffffffff.0
Width: 700
GlyphClass: 2
Flags: W
LayerCount: 2
Fore
SplineSet
703 1288 m 1,0,-1
 -3 1288 l 1,1,-1
 -3 1440 l 1,2,-1
 703 1440 l 1,3,-1
 703 1288 l 1,0,-1
EndSplineSet
EndChar

StartChar: breve
Encoding: 728 728 647
Width: 700
GlyphClass: 2
Flags: W
LayerCount: 2
Fore
SplineSet
688 1536 m 1,0,1
 656 1232 656 1232 350 1232 c 256,2,3
 44 1232 44 1232 12 1536 c 1,4,-1
 147 1536 l 1,5,6
 167 1388 167 1388 350 1388 c 256,7,8
 533 1388 533 1388 553 1536 c 1,9,-1
 688 1536 l 1,0,1
EndSplineSet
EndChar

StartChar: ring
Encoding: 730 730 648
Width: 700
GlyphClass: 2
Flags: W
LayerCount: 2
Fore
SplineSet
457 1395 m 0,0,1
 457 1440 457 1440 428.5 1471 c 128,-1,2
 400 1502 400 1502 350 1502 c 0,3,4
 301 1502 301 1502 272.5 1471.5 c 128,-1,5
 244 1441 244 1441 244 1395 c 0,6,7
 244 1347 244 1347 273 1318 c 128,-1,8
 302 1289 302 1289 350 1289 c 0,9,10
 401 1289 401 1289 429 1321 c 128,-1,11
 457 1353 457 1353 457 1395 c 0,0,1
571 1395 m 0,12,13
 571 1305 571 1305 506.5 1243.5 c 128,-1,14
 442 1182 442 1182 350 1182 c 256,15,16
 258 1182 258 1182 193.5 1244 c 128,-1,17
 129 1306 129 1306 129 1395 c 0,18,19
 129 1485 129 1485 195 1546.5 c 128,-1,20
 261 1608 261 1608 350 1608 c 0,21,22
 440 1608 440 1608 505.5 1546 c 128,-1,23
 571 1484 571 1484 571 1395 c 0,12,13
EndSplineSet
EndChar

StartChar: hungarumlaut
Encoding: 733 733 649
Width: 700
GlyphClass: 2
Flags: W
LayerCount: 2
Fore
SplineSet
669 1237 m 1,0,-1
 475 1237 l 1,1,-1
 655 1536 l 1,2,-1
 960 1536 l 1,3,-1
 669 1237 l 1,0,-1
220 1237 m 1,4,-1
 26 1237 l 1,5,-1
 206 1536 l 1,6,-1
 511 1536 l 1,7,-1
 220 1237 l 1,4,-1
EndSplineSet
EndChar

StartChar: dotaccent
Encoding: 729 729 650
Width: 700
GlyphClass: 2
Flags: W
LayerCount: 2
Fore
SplineSet
493 1219 m 1,0,-1
 206 1219 l 1,1,-1
 206 1485 l 1,2,-1
 493 1485 l 1,3,-1
 493 1219 l 1,0,-1
EndSplineSet
EndChar

StartChar: cedilla
Encoding: 184 184 651
Width: 682
GlyphClass: 2
Flags: W
LayerCount: 2
Fore
SplineSet
297 0 m 1,0,-1
 418 0 l 1,1,-1
 340 -113 l 1,2,3
 371 -104 371 -104 395 -104 c 0,4,5
 473 -104 473 -104 526.5 -146.5 c 128,-1,6
 580 -189 580 -189 580 -270 c 0,7,8
 580 -352 580 -352 509.5 -409.5 c 128,-1,9
 439 -467 439 -467 321 -467 c 0,10,11
 213 -467 213 -467 90 -416 c 1,12,-1
 135 -317 l 1,13,14
 239 -350 239 -350 287 -350 c 256,15,16
 335 -350 335 -350 362 -327 c 128,-1,17
 389 -304 389 -304 389 -269 c 0,18,19
 389 -235 389 -235 365.5 -216 c 128,-1,20
 342 -197 342 -197 309 -197 c 0,21,22
 274 -197 274 -197 228 -213 c 1,23,-1
 184 -172 l 1,24,-1
 297 0 l 1,0,-1
EndSplineSet
EndChar

StartChar: ogonek
Encoding: 731 731 652
Width: 700
GlyphClass: 2
Flags: W
LayerCount: 2
Fore
SplineSet
560 11 m 1,0,-1
 560 4 l 1,1,2
 357 -47 357 -47 357 -165 c 0,3,4
 357 -204 357 -204 382.5 -228.5 c 128,-1,5
 408 -253 408 -253 453 -253 c 0,6,7
 492 -253 492 -253 543 -231 c 1,8,-1
 543 -413 l 1,9,10
 481 -446 481 -446 397 -446 c 0,11,12
 283 -446 283 -446 211 -388 c 128,-1,13
 139 -330 139 -330 139 -230 c 0,14,15
 139 -85 139 -85 302 24 c 1,16,-1
 560 11 l 1,0,-1
EndSplineSet
EndChar

StartChar: uni0326
Encoding: 806 806 653
Width: 700
GlyphClass: 2
Flags: W
LayerCount: 2
Fore
SplineSet
229 -453 m 1,0,1
 297 -442 297 -442 323.5 -409.5 c 128,-1,2
 350 -377 350 -377 350 -318 c 1,3,-1
 231 -318 l 1,4,-1
 231 -92 l 1,5,-1
 470 -92 l 1,6,-1
 470 -306 l 2,7,8
 470 -414 470 -414 405 -478 c 128,-1,9
 340 -542 340 -542 229 -548 c 1,10,-1
 229 -453 l 1,0,1
EndSplineSet
EndChar

StartChar: uni0326.alt
Encoding: 65570 -1 654
Width: 700
GlyphClass: 2
Flags: W
LayerCount: 2
Fore
SplineSet
470 1585 m 1,0,1
 402 1574 402 1574 375.5 1541.5 c 128,-1,2
 349 1509 349 1509 349 1450 c 1,3,-1
 468 1450 l 1,4,-1
 468 1224 l 1,5,-1
 229 1224 l 1,6,-1
 229 1438 l 2,7,8
 229 1546 229 1546 294 1610 c 128,-1,9
 359 1674 359 1674 470 1680 c 1,10,-1
 470 1585 l 1,0,1
EndSplineSet
EndChar

StartChar: gravecomb
Encoding: 768 768 655
Width: 0
GlyphClass: 4
Flags: W
LayerCount: 2
Fore
SplineSet
-311 1536 m 1,0,-1
 -21 1536 l 1,1,-1
 122 1237 l 1,2,-1
 -60 1237 l 1,3,-1
 -311 1536 l 1,0,-1
EndSplineSet
EndChar

StartChar: acutecomb
Encoding: 769 769 656
Width: 0
GlyphClass: 4
Flags: W
LayerCount: 2
Fore
SplineSet
60 1237 m 1,0,-1
 -122 1237 l 1,1,-1
 21 1536 l 1,2,-1
 311 1536 l 1,3,-1
 60 1237 l 1,0,-1
EndSplineSet
EndChar

StartChar: tildecomb
Encoding: 771 771 657
Width: 0
GlyphClass: 4
Flags: W
LayerCount: 2
Fore
SplineSet
-366 1258 m 1,0,1
 -316 1506 -316 1506 -126 1506 c 0,2,3
 -108 1506 -108 1506 -85.5 1501.5 c 128,-1,4
 -63 1497 -63 1497 10 1474 c 0,5,6
 64 1455 64 1455 97.5 1443.5 c 128,-1,7
 131 1432 131 1432 157 1432 c 0,8,9
 232 1432 232 1432 253 1514 c 1,10,-1
 386 1514 l 1,11,12
 336 1268 336 1268 159 1268 c 0,13,14
 141 1268 141 1268 112 1272.5 c 128,-1,15
 83 1277 83 1277 10 1300 c 0,16,17
 -44 1317 -44 1317 -78 1329.5 c 128,-1,18
 -112 1342 -112 1342 -138 1342 c 0,19,20
 -214 1342 -214 1342 -235 1258 c 1,21,-1
 -366 1258 l 1,0,1
EndSplineSet
EndChar

StartChar: hookabovecomb
Encoding: 777 777 658
Width: 0
GlyphClass: 4
Flags: W
LayerCount: 2
Fore
SplineSet
52 1231 m 1,0,-1
 -64 1231 l 1,1,2
 -64 1271 -64 1271 -48.5 1297 c 128,-1,3
 -33 1323 -33 1323 2 1345 c 0,4,5
 34 1363 34 1363 54 1378.5 c 128,-1,6
 74 1394 74 1394 74 1427 c 0,7,8
 74 1465 74 1465 52 1483.5 c 128,-1,9
 30 1502 30 1502 0 1502 c 0,10,11
 -31 1502 -31 1502 -54 1482 c 128,-1,12
 -77 1462 -77 1462 -81 1422 c 1,13,-1
 -204 1422 l 1,14,15
 -204 1515 -204 1515 -142.5 1567 c 128,-1,16
 -81 1619 -81 1619 4 1619 c 0,17,18
 91 1619 91 1619 147.5 1569.5 c 128,-1,19
 204 1520 204 1520 204 1434 c 0,20,21
 204 1390 204 1390 184.5 1359 c 128,-1,22
 165 1328 165 1328 121 1298 c 0,23,24
 88 1274 88 1274 71 1261 c 128,-1,25
 54 1248 54 1248 52 1231 c 1,0,-1
EndSplineSet
EndChar

StartChar: dotbelowcomb
Encoding: 803 803 659
Width: 0
GlyphClass: 4
Flags: W
LayerCount: 2
Fore
SplineSet
134 -446 m 1,0,-1
 -133 -446 l 1,1,-1
 -133 -185 l 1,2,-1
 134 -185 l 1,3,-1
 134 -446 l 1,0,-1
EndSplineSet
EndChar

StartChar: tonos
Encoding: 900 900 660
Width: 700
GlyphClass: 2
Flags: W
LayerCount: 2
Fore
SplineSet
443 1211 m 1,0,-1
 238 1211 l 1,1,-1
 284 1559 l 1,2,-1
 582 1559 l 1,3,-1
 443 1211 l 1,0,-1
EndSplineSet
EndChar

StartChar: dieresistonos
Encoding: 901 901 661
Width: 700
GlyphClass: 2
Flags: W
LayerCount: 2
Fore
SplineSet
764 1257 m 1,0,-1
 545 1257 l 1,1,-1
 545 1480 l 1,2,-1
 764 1480 l 1,3,-1
 764 1257 l 1,0,-1
156 1257 m 1,4,-1
 -63 1257 l 1,5,-1
 -63 1480 l 1,6,-1
 156 1480 l 1,7,-1
 156 1257 l 1,4,-1
407 1233 m 1,8,-1
 247 1233 l 1,9,-1
 263 1549 l 1,10,-1
 499 1549 l 1,11,-1
 407 1233 l 1,8,-1
EndSplineSet
EndChar

StartChar: cyrbreve
Encoding: 63188 63188 662
Width: 700
GlyphClass: 2
Flags: W
LayerCount: 2
Fore
SplineSet
351 1389 m 256,0,1
 508 1389 508 1389 541 1556 c 1,2,-1
 741 1556 l 1,3,4
 733 1410 733 1410 630.5 1310 c 128,-1,5
 528 1210 528 1210 351 1210 c 256,6,7
 174 1210 174 1210 71.5 1310 c 128,-1,8
 -31 1410 -31 1410 -39 1556 c 1,9,-1
 161 1556 l 1,10,11
 194 1389 194 1389 351 1389 c 256,0,1
EndSplineSet
EndChar

StartChar: asciicircum
Encoding: 94 94 663
AltUni2: 002038.ffffffff.0
Width: 1196
GlyphClass: 2
Flags: W
LayerCount: 2
Fore
SplineSet
127 662 m 1,0,-1
 496 1430 l 1,1,-1
 700 1430 l 1,2,-1
 1069 662 l 1,3,-1
 844 662 l 1,4,-1
 598 1200 l 1,5,-1
 350 662 l 1,6,-1
 127 662 l 1,0,-1
EndSplineSet
EndChar

StartChar: asciitilde
Encoding: 126 126 664
Width: 1200
GlyphClass: 2
Flags: W
LayerCount: 2
Fore
SplineSet
1045 681 m 1,0,-1
 1146 483 l 1,1,2
 1049 334 1049 334 859 334 c 0,3,4
 760 334 760 334 601 399 c 0,5,6
 520 434 520 434 468.5 453.5 c 128,-1,7
 417 473 417 473 351 473 c 0,8,9
 227 473 227 473 157 355 c 1,10,-1
 56 553 l 1,11,12
 153 702 153 702 343 702 c 0,13,14
 442 702 442 702 601 637 c 0,15,16
 682 602 682 602 733.5 582.5 c 128,-1,17
 785 563 785 563 851 563 c 0,18,19
 975 563 975 563 1045 681 c 1,0,-1
EndSplineSet
EndChar

StartChar: brokenbar
Encoding: 166 166 665
Width: 573
GlyphClass: 2
Flags: W
LayerCount: 2
Fore
SplineSet
172 1509 m 1,0,-1
 401 1509 l 1,1,-1
 401 915 l 1,2,-1
 172 915 l 1,3,-1
 172 1509 l 1,0,-1
172 555 m 1,4,-1
 401 555 l 1,5,-1
 401 -39 l 1,6,-1
 172 -39 l 1,7,-1
 172 555 l 1,4,-1
EndSplineSet
EndChar

StartChar: backslash
Encoding: 92 92 666
Width: 625
GlyphClass: 2
Flags: W
LayerCount: 2
Fore
SplineSet
-40 1509 m 1,0,-1
 200 1509 l 1,1,-1
 665 -39 l 1,2,-1
 425 -39 l 1,3,-1
 -40 1509 l 1,0,-1
EndSplineSet
EndChar

StartChar: copyright
Encoding: 169 169 667
Width: 1717
GlyphClass: 2
Flags: W
LayerCount: 2
Fore
SplineSet
294 737 m 256,0,1
 294 476 294 476 453.5 302.5 c 128,-1,2
 613 129 613 129 861 129 c 0,3,4
 1091 129 1091 129 1257.5 300.5 c 128,-1,5
 1424 472 1424 472 1424 737 c 0,6,7
 1424 996 1424 996 1261 1168.5 c 128,-1,8
 1098 1341 1098 1341 861 1341 c 0,9,10
 615 1341 615 1341 454.5 1169.5 c 128,-1,11
 294 998 294 998 294 737 c 256,0,1
861 -39 m 0,12,13
 529 -39 529 -39 304.5 177.5 c 128,-1,14
 80 394 80 394 80 737 c 0,15,16
 80 1075 80 1075 298.5 1292 c 128,-1,17
 517 1509 517 1509 861 1509 c 0,18,19
 1191 1509 1191 1509 1414 1296.5 c 128,-1,20
 1637 1084 1637 1084 1637 737 c 256,21,22
 1637 390 1637 390 1410.5 175.5 c 128,-1,23
 1184 -39 1184 -39 861 -39 c 0,12,13
1057 872 m 1,24,25
 1024 1008 1024 1008 870 1008 c 0,26,27
 773 1008 773 1008 716 937 c 128,-1,28
 659 866 659 866 659 740 c 0,29,30
 659 632 659 632 719.5 554.5 c 128,-1,31
 780 477 780 477 874 477 c 0,32,33
 1036 477 1036 477 1057 621 c 1,34,-1
 1241 621 l 1,35,36
 1222 486 1222 486 1124 392.5 c 128,-1,37
 1026 299 1026 299 874 299 c 0,38,39
 685 299 685 299 566.5 425 c 128,-1,40
 448 551 448 551 448 743 c 0,41,42
 448 942 448 942 561 1064 c 128,-1,43
 674 1186 674 1186 870 1186 c 0,44,45
 1026 1186 1026 1186 1121.5 1094.5 c 128,-1,46
 1217 1003 1217 1003 1233 872 c 1,47,-1
 1057 872 l 1,24,25
EndSplineSet
EndChar

StartChar: copyrightserif
Encoding: 63193 63193 668
Width: 1717
GlyphClass: 2
Flags: W
LayerCount: 2
Fore
SplineSet
1207 878 m 1,0,-1
 1156 880 l 1,1,2
 1095 1119 1095 1119 899 1119 c 0,3,4
 770 1119 770 1119 702 1024 c 128,-1,5
 634 929 634 929 634 763 c 0,6,7
 634 590 634 590 707 480.5 c 128,-1,8
 780 371 780 371 914 371 c 0,9,10
 1074 371 1074 371 1192 533 c 1,11,-1
 1231 500 l 1,12,13
 1100 295 1100 295 857 295 c 0,14,15
 671 295 671 295 542 417 c 128,-1,16
 413 539 413 539 413 732 c 0,17,18
 413 922 413 922 544 1051 c 128,-1,19
 675 1180 675 1180 868 1180 c 0,20,21
 923 1180 923 1180 966 1169.5 c 128,-1,22
 1009 1159 1009 1159 1058 1136 c 0,23,24
 1073 1129 1073 1129 1083.5 1125 c 128,-1,25
 1094 1121 1094 1121 1101 1121 c 0,26,27
 1129 1121 1129 1121 1137 1167 c 1,28,-1
 1188 1168 l 1,29,-1
 1207 878 l 1,0,-1
294 737 m 256,30,31
 294 476 294 476 453.5 302.5 c 128,-1,32
 613 129 613 129 861 129 c 0,33,34
 1091 129 1091 129 1257.5 300.5 c 128,-1,35
 1424 472 1424 472 1424 737 c 0,36,37
 1424 996 1424 996 1261 1168.5 c 128,-1,38
 1098 1341 1098 1341 861 1341 c 0,39,40
 615 1341 615 1341 454.5 1169.5 c 128,-1,41
 294 998 294 998 294 737 c 256,30,31
861 -39 m 0,42,43
 529 -39 529 -39 304.5 177.5 c 128,-1,44
 80 394 80 394 80 737 c 0,45,46
 80 1075 80 1075 298.5 1292 c 128,-1,47
 517 1509 517 1509 861 1509 c 0,48,49
 1191 1509 1191 1509 1414 1296.5 c 128,-1,50
 1637 1084 1637 1084 1637 737 c 256,51,52
 1637 390 1637 390 1410.5 175.5 c 128,-1,53
 1184 -39 1184 -39 861 -39 c 0,42,43
EndSplineSet
EndChar

StartChar: registered
Encoding: 174 174 670
Width: 1717
GlyphClass: 2
Flags: W
LayerCount: 2
Fore
SplineSet
294 737 m 256,0,1
 294 476 294 476 453.5 302.5 c 128,-1,2
 613 129 613 129 861 129 c 0,3,4
 1091 129 1091 129 1257.5 300.5 c 128,-1,5
 1424 472 1424 472 1424 737 c 0,6,7
 1424 996 1424 996 1261 1168.5 c 128,-1,8
 1098 1341 1098 1341 861 1341 c 0,9,10
 615 1341 615 1341 454.5 1169.5 c 128,-1,11
 294 998 294 998 294 737 c 256,0,1
861 -39 m 0,12,13
 529 -39 529 -39 304.5 177.5 c 128,-1,14
 80 394 80 394 80 737 c 0,15,16
 80 1075 80 1075 298.5 1292 c 128,-1,17
 517 1509 517 1509 861 1509 c 0,18,19
 1191 1509 1191 1509 1414 1296.5 c 128,-1,20
 1637 1084 1637 1084 1637 737 c 256,21,22
 1637 390 1637 390 1410.5 175.5 c 128,-1,23
 1184 -39 1184 -39 861 -39 c 0,12,13
862 801 m 2,24,25
 950 801 950 801 982.5 827.5 c 128,-1,26
 1015 854 1015 854 1015 912 c 0,27,28
 1015 961 1015 961 979 986.5 c 128,-1,29
 943 1012 943 1012 869 1012 c 2,30,-1
 731 1012 l 1,31,-1
 731 801 l 1,32,-1
 862 801 l 2,24,25
731 326 m 1,33,-1
 553 326 l 1,34,-1
 553 1160 l 1,35,-1
 892 1160 l 2,36,37
 1050 1160 1050 1160 1128 1101 c 128,-1,38
 1206 1042 1206 1042 1206 913 c 0,39,40
 1206 718 1206 718 1025 681 c 1,41,-1
 1218 326 l 1,42,-1
 1017 326 l 1,43,-1
 847 667 l 1,44,-1
 731 667 l 1,45,-1
 731 326 l 1,33,-1
EndSplineSet
EndChar

StartChar: registerserif
Encoding: 63194 63194 671
Width: 1717
GlyphClass: 2
Flags: W
LayerCount: 2
Fore
SplineSet
861 -39 m 0,0,1
 529 -39 529 -39 304.5 177.5 c 128,-1,2
 80 394 80 394 80 737 c 0,3,4
 80 1075 80 1075 298.5 1292 c 128,-1,5
 517 1509 517 1509 861 1509 c 0,6,7
 1191 1509 1191 1509 1414 1296.5 c 128,-1,8
 1637 1084 1637 1084 1637 737 c 256,9,10
 1637 390 1637 390 1410.5 175.5 c 128,-1,11
 1184 -39 1184 -39 861 -39 c 0,0,1
294 737 m 256,12,13
 294 476 294 476 453.5 302.5 c 128,-1,14
 613 129 613 129 861 129 c 0,15,16
 1107 129 1107 129 1281 326 c 1,17,-1
 1051 326 l 1,18,-1
 850 706 l 1,19,-1
 777 706 l 1,20,-1
 777 468 l 2,21,22
 777 408 777 408 793.5 386.5 c 128,-1,23
 810 365 810 365 888 365 c 1,24,-1
 888 326 l 1,25,-1
 486 326 l 1,26,-1
 486 366 l 1,27,28
 542 366 542 366 563 387 c 128,-1,29
 584 408 584 408 584 468 c 2,30,-1
 584 1021 l 2,31,32
 584 1075 584 1075 569 1097.5 c 128,-1,33
 554 1120 554 1120 496 1121 c 1,34,-1
 496 1160 l 1,35,-1
 904 1160 l 2,36,37
 1050 1160 1050 1160 1140 1100.5 c 128,-1,38
 1230 1041 1230 1041 1230 941 c 0,39,40
 1230 791 1230 791 1038 730 c 1,41,-1
 1202 433 l 2,42,43
 1239 365 1239 365 1312 365 c 1,44,45
 1424 520 1424 520 1424 737 c 0,46,47
 1424 996 1424 996 1261 1168.5 c 128,-1,48
 1098 1341 1098 1341 861 1341 c 0,49,50
 615 1341 615 1341 454.5 1169.5 c 128,-1,51
 294 998 294 998 294 737 c 256,12,13
797 753 m 2,52,53
 904 753 904 753 962 799 c 128,-1,54
 1020 845 1020 845 1020 929 c 0,55,56
 1020 1004 1020 1004 971.5 1055.5 c 128,-1,57
 923 1107 923 1107 848 1107 c 0,58,59
 799 1107 799 1107 777 1101 c 1,60,-1
 777 753 l 1,61,-1
 797 753 l 2,52,53
EndSplineSet
EndChar

StartChar: trademark
Encoding: 8482 8482 673
Width: 2048
GlyphClass: 2
Flags: W
LayerCount: 2
Fore
SplineSet
788 1296 m 1,0,-1
 553 1296 l 1,1,-1
 553 627 l 1,2,-1
 324 627 l 1,3,-1
 324 1296 l 1,4,-1
 90 1296 l 1,5,-1
 90 1470 l 1,6,-1
 788 1470 l 1,7,-1
 788 1296 l 1,0,-1
1454 958 m 1,8,-1
 1645 1470 l 1,9,-1
 1958 1470 l 1,10,-1
 1958 627 l 1,11,-1
 1741 627 l 1,12,-1
 1741 1202 l 1,13,-1
 1737 1202 l 1,14,-1
 1536 627 l 1,15,-1
 1370 627 l 1,16,-1
 1169 1202 l 1,17,-1
 1165 1202 l 1,18,-1
 1165 627 l 1,19,-1
 948 627 l 1,20,-1
 948 1470 l 1,21,-1
 1262 1470 l 1,22,-1
 1454 958 l 1,8,-1
EndSplineSet
EndChar

StartChar: trademarkserif
Encoding: 63195 63195 674
Width: 2077
GlyphClass: 2
Flags: W
LayerCount: 2
Fore
SplineSet
824 1470 m 1,0,-1
 824 1236 l 1,1,-1
 791 1236 l 1,2,3
 789 1303 789 1303 768 1340 c 128,-1,4
 747 1377 747 1377 717.5 1393.5 c 128,-1,5
 688 1410 688 1410 657.5 1413 c 128,-1,6
 627 1416 627 1416 607 1416 c 2,7,-1
 572 1416 l 1,8,-1
 572 807 l 2,9,10
 572 772 572 772 573.5 745.5 c 128,-1,11
 575 719 575 719 584 701.5 c 128,-1,12
 593 684 593 684 613 675.5 c 128,-1,13
 633 667 633 667 669 667 c 1,14,-1
 669 630 l 1,15,-1
 241 630 l 1,16,-1
 241 667 l 1,17,18
 274 669 274 669 293 673 c 128,-1,19
 312 677 312 677 322 691 c 128,-1,20
 332 705 332 705 335 733 c 128,-1,21
 338 761 338 761 338 811 c 2,22,-1
 338 1416 l 1,23,-1
 305 1416 l 2,24,25
 244 1416 244 1416 208.5 1398 c 128,-1,26
 173 1380 173 1380 154 1353 c 128,-1,27
 135 1326 135 1326 129 1294.5 c 128,-1,28
 123 1263 123 1263 121 1236 c 1,29,-1
 90 1236 l 1,30,-1
 90 1470 l 1,31,-1
 824 1470 l 1,0,-1
1224 1470 m 1,32,-1
 1443 955 l 1,33,-1
 1659 1470 l 1,34,-1
 1987 1470 l 1,35,-1
 1987 1431 l 1,36,37
 1951 1431 1951 1431 1931.5 1423 c 128,-1,38
 1912 1415 1912 1415 1903 1398 c 128,-1,39
 1894 1381 1894 1381 1892.5 1354.5 c 128,-1,40
 1891 1328 1891 1328 1891 1292 c 2,41,-1
 1891 800 l 2,42,43
 1891 769 1891 769 1892.5 745 c 128,-1,44
 1894 721 1894 721 1903 704.5 c 128,-1,45
 1912 688 1912 688 1931.5 678.5 c 128,-1,46
 1951 669 1951 669 1987 667 c 1,47,-1
 1987 630 l 1,48,-1
 1551 630 l 1,49,-1
 1551 667 l 1,50,51
 1585 668 1585 668 1606 673 c 128,-1,52
 1627 678 1627 678 1639 692 c 128,-1,53
 1651 706 1651 706 1655 731.5 c 128,-1,54
 1659 757 1659 757 1659 800 c 2,55,-1
 1659 1326 l 1,56,-1
 1358 630 l 1,57,-1
 1334 630 l 1,58,-1
 1033 1326 l 1,59,-1
 1033 804 l 2,60,61
 1033 768 1033 768 1034.5 742.5 c 128,-1,62
 1036 717 1036 717 1046.5 700.5 c 128,-1,63
 1057 684 1057 684 1078.5 676 c 128,-1,64
 1100 668 1100 668 1141 667 c 1,65,-1
 1141 630 l 1,66,-1
 876 630 l 1,67,-1
 876 667 l 1,68,69
 912 668 912 668 932.5 674 c 128,-1,70
 953 680 953 680 964 695 c 128,-1,71
 975 710 975 710 978 737 c 128,-1,72
 981 764 981 764 981 807 c 2,73,-1
 981 1294 l 2,74,75
 981 1330 981 1330 978.5 1356.5 c 128,-1,76
 976 1383 976 1383 966 1400 c 128,-1,77
 956 1417 956 1417 934.5 1424.5 c 128,-1,78
 913 1432 913 1432 876 1431 c 1,79,-1
 876 1470 l 1,80,-1
 1224 1470 l 1,32,-1
EndSplineSet
EndChar

StartChar: at
Encoding: 64 64 676
Width: 1911
GlyphClass: 2
Flags: W
LayerCount: 2
Fore
SplineSet
1145 584 m 0,0,1
 1145 660 1145 660 1100 711.5 c 128,-1,2
 1055 763 1055 763 967 763 c 0,3,4
 868 763 868 763 810.5 681.5 c 128,-1,5
 753 600 753 600 753 489 c 0,6,7
 753 381 753 381 795 338.5 c 128,-1,8
 837 296 837 296 907 296 c 0,9,10
 1005 296 1005 296 1075 384.5 c 128,-1,11
 1145 473 1145 473 1145 584 c 0,0,1
1235 925 m 1,12,-1
 1415 925 l 1,13,-1
 1296 403 l 2,14,15
 1283 343 1283 343 1283 315 c 0,16,17
 1283 274 1283 274 1318 274 c 0,18,19
 1400 274 1400 274 1472.5 377 c 128,-1,20
 1545 480 1545 480 1545 640 c 0,21,22
 1545 878 1545 878 1390.5 1018.5 c 128,-1,23
 1236 1159 1236 1159 986 1159 c 0,24,25
 717 1159 717 1159 559.5 986.5 c 128,-1,26
 402 814 402 814 402 544 c 0,27,28
 402 237 402 237 581 79 c 128,-1,29
 760 -79 760 -79 1015 -79 c 0,30,31
 1256 -79 1256 -79 1445 84 c 1,32,-1
 1627 84 l 1,33,34
 1386 -243 1386 -243 1002 -243 c 0,35,36
 666 -243 666 -243 433 -25.5 c 128,-1,37
 200 192 200 192 200 548 c 0,38,39
 200 871 200 871 423 1096.5 c 128,-1,40
 646 1322 646 1322 990 1322 c 0,41,42
 1286 1322 1286 1322 1498.5 1143 c 128,-1,43
 1711 964 1711 964 1711 690 c 0,44,45
 1711 419 1711 419 1553 258 c 128,-1,46
 1395 97 1395 97 1211 97 c 0,47,48
 1094 97 1094 97 1075 218 c 1,49,-1
 1071 220 l 1,50,51
 962 98 962 98 844 98 c 0,52,53
 723 98 723 98 627.5 194 c 128,-1,54
 532 290 532 290 532 477 c 0,55,56
 532 660 532 660 642.5 808 c 128,-1,57
 753 956 753 956 948 956 c 0,58,59
 1131 956 1131 956 1209 823 c 1,60,-1
 1235 925 l 1,12,-1
EndSplineSet
EndChar

StartChar: uni2105
Encoding: 8453 8453 678
Width: 1761
GlyphClass: 2
Flags: W
LayerCount: 2
Fore
SplineSet
1307 484 m 0,0,1
 1224 484 1224 484 1173.5 414 c 128,-1,2
 1123 344 1123 344 1123 253 c 0,3,4
 1123 201 1123 201 1149.5 167 c 128,-1,5
 1176 133 1176 133 1230 133 c 0,6,7
 1313 133 1313 133 1363.5 207 c 128,-1,8
 1414 281 1414 281 1414 364 c 0,9,10
 1414 403 1414 403 1399 432 c 0,11,12
 1376 484 1376 484 1307 484 c 0,0,1
1336 647 m 0,13,14
 1481 645 1481 645 1551 572 c 128,-1,15
 1621 499 1621 499 1621 397 c 0,16,17
 1621 238 1621 238 1504.5 103.5 c 128,-1,18
 1388 -31 1388 -31 1201 -30 c 0,19,20
 1062 -30 1062 -30 989.5 42 c 128,-1,21
 917 114 917 114 917 219 c 0,22,23
 917 387 917 387 1035 517 c 128,-1,24
 1153 647 1153 647 1336 647 c 0,13,14
614 1228 m 1,25,26
 614 1312 614 1312 532 1312 c 0,27,28
 452 1312 452 1312 410 1230.5 c 128,-1,29
 368 1149 368 1149 368 1067 c 0,30,31
 368 1013 368 1013 390 985 c 128,-1,32
 412 957 412 957 454 957 c 0,33,34
 529 957 529 957 572 1049 c 1,35,-1
 774 1049 l 1,36,37
 739 941 739 941 646 869 c 0,38,39
 554 798 554 798 422 798 c 0,40,41
 300 798 300 798 230 861 c 128,-1,42
 160 924 160 924 160 1030 c 0,43,44
 160 1202 160 1202 269.5 1338.5 c 128,-1,45
 379 1475 379 1475 584 1475 c 0,46,47
 693 1475 693 1475 756 1420.5 c 128,-1,48
 819 1366 819 1366 819 1269 c 0,49,50
 819 1249 819 1249 816 1228 c 1,51,-1
 614 1228 l 1,25,26
1340 1466 m 1,52,-1
 1510 1466 l 1,53,-1
 376 -68 l 1,54,-1
 205 -68 l 1,55,-1
 1340 1466 l 1,52,-1
EndSplineSet
EndChar

StartChar: uni2100
Encoding: 8448 8448 679
Width: 1669
GlyphClass: 2
Flags: W
LayerCount: 2
Fore
SplineSet
691 941 m 2,0,1
 683 904 683 904 683 884 c 0,2,3
 683 847 683 847 707 840 c 1,4,-1
 700 809 l 1,5,-1
 493 809 l 1,6,7
 486 837 486 837 489 885 c 1,8,9
 437 838 437 838 383.5 815 c 128,-1,10
 330 792 330 792 261 792 c 0,11,12
 189 792 189 792 137 832.5 c 128,-1,13
 85 873 85 873 85 958 c 0,14,15
 85 1044 85 1044 137.5 1101.5 c 128,-1,16
 190 1159 190 1159 299 1177 c 2,17,-1
 491 1206 l 2,18,19
 562 1217 562 1217 562 1264 c 0,20,21
 562 1314 562 1314 478 1314 c 0,22,23
 374 1314 374 1314 360 1244 c 1,24,-1
 167 1244 l 1,25,26
 228 1469 228 1469 517 1469 c 0,27,28
 635 1469 635 1469 701.5 1428 c 128,-1,29
 768 1387 768 1387 768 1319 c 0,30,31
 768 1300 768 1300 764 1283 c 2,32,-1
 691 941 l 2,0,1
1375 1466 m 1,33,-1
 1545 1466 l 1,34,-1
 411 -68 l 1,35,-1
 240 -68 l 1,36,-1
 1375 1466 l 1,33,-1
532 1114 m 1,37,38
 496 1093 496 1093 413 1079 c 0,39,40
 333 1066 333 1066 312 1043 c 128,-1,41
 291 1020 291 1020 291 991 c 0,42,43
 291 963 291 963 312.5 951 c 128,-1,44
 334 939 334 939 360 939 c 0,45,46
 414 939 414 939 460.5 967.5 c 128,-1,47
 507 996 507 996 516 1040 c 2,48,-1
 532 1114 l 1,37,38
1414 400 m 1,49,50
 1414 484 1414 484 1332 484 c 0,51,52
 1252 484 1252 484 1210 402.5 c 128,-1,53
 1168 321 1168 321 1168 239 c 0,54,55
 1168 185 1168 185 1190 157 c 128,-1,56
 1212 129 1212 129 1254 129 c 0,57,58
 1329 129 1329 129 1372 221 c 1,59,-1
 1574 221 l 1,60,61
 1539 113 1539 113 1446 41 c 0,62,63
 1354 -30 1354 -30 1222 -30 c 0,64,65
 1100 -30 1100 -30 1030 33 c 128,-1,66
 960 96 960 96 960 202 c 0,67,68
 960 374 960 374 1069.5 510.5 c 128,-1,69
 1179 647 1179 647 1384 647 c 0,70,71
 1493 647 1493 647 1556 592.5 c 128,-1,72
 1619 538 1619 538 1619 441 c 0,73,74
 1619 421 1619 421 1616 400 c 1,75,-1
 1414 400 l 1,49,50
EndSplineSet
EndChar

